{
.appVersion = "895";
copyright = "Copyright 2009, 2010, 2011 by Daniel Johnson.  Released under the terms of the Open Font License.";
customParameters = (
{
name = licenseURL;
value = "http://scripts.sil.org/OFL";
},
{
name = vendorID;
value = PfEd;
},
{
name = panose;
value = (
2,
0,
7,
3,
0,
0,
0,
0,
0,
0
);
},
{
name = unicodeRanges;
value = (
0,
1,
2,
3,
5,
6,
7,
9,
29,
31,
32,
33,
35,
38,
45,
60,
62,
69
);
},
{
name = codePageRanges;
value = (
1252,
1250,
1251,
1253,
1254,
1257
);
},
{
name = glyphOrder;
value = (
.notdef,
uni0000,
uni000D,
space,
exclam,
quotedbl,
numbersign,
dollar,
percent,
ampersand,
quotesingle,
parenleft,
parenright,
asterisk,
plus,
comma,
hyphen,
period,
slash,
zero,
one,
two,
three,
four,
five,
six,
seven,
eight,
nine,
colon,
semicolon,
less,
equal,
greater,
question,
at,
A,
B,
C,
D,
E,
F,
G,
H,
I,
J,
K,
L,
M,
N,
O,
P,
Q,
R,
S,
T,
U,
V,
W,
X,
Y,
Z,
bracketleft,
backslash,
bracketright,
asciicircum,
underscore,
grave,
a,
b,
c,
d,
e,
f,
g,
h,
i,
j,
k,
l,
m,
n,
o,
p,
q,
r,
s,
t,
u,
v,
w,
x,
y,
z,
braceleft,
bar,
braceright,
asciitilde,
exclamdown,
cent,
sterling,
currency,
yen,
brokenbar,
section,
dieresis,
copyright,
ordfeminine,
guillemotleft,
logicalnot,
uni00AD,
registered,
macron,
degree,
plusminus,
twosuperior,
threesuperior,
acute,
uni00B5,
paragraph,
periodcentered,
cedilla,
onesuperior,
ordmasculine,
guillemotright,
onequarter,
onehalf,
threequarters,
questiondown,
Agrave,
Aacute,
Acircumflex,
Atilde,
Adieresis,
Aring,
AE,
Ccedilla,
Egrave,
Eacute,
Ecircumflex,
Edieresis,
Igrave,
Iacute,
Icircumflex,
Idieresis,
Eth,
Ntilde,
Ograve,
Oacute,
Ocircumflex,
Otilde,
Odieresis,
multiply,
Oslash,
Ugrave,
Uacute,
Ucircumflex,
Udieresis,
Yacute,
Thorn,
germandbls,
agrave,
aacute,
acircumflex,
atilde,
adieresis,
aring,
ae,
ccedilla,
egrave,
eacute,
ecircumflex,
edieresis,
igrave,
iacute,
icircumflex,
idieresis,
eth,
ntilde,
ograve,
oacute,
ocircumflex,
otilde,
odieresis,
divide,
oslash,
ugrave,
uacute,
ucircumflex,
udieresis,
yacute,

glyphs = (
{
glyphname = .notdef;
lastChange = "2016-08-01 22:58:16 +0000";
layers = (
{
layerId = "AE6579ED-DC47-4075-A6A3-4B1A21099458";
paths = (
{
closed = 1;
nodes = (
"156 589 OFFCURVE",
"169 606 OFFCURVE",
"210 606 CURVE SMOOTH",
"328 606 LINE SMOOTH",
"369 606 OFFCURVE",
"382 589 OFFCURVE",
"382 546 CURVE SMOOTH",
"382 130 LINE SMOOTH",
"382 87 OFFCURVE",
"369 71 OFFCURVE",
"328 71 CURVE SMOOTH",
"210 71 LINE SMOOTH",
"169 71 OFFCURVE",
"156 87 OFFCURVE",
"156 130 CURVE SMOOTH",
"156 546 LINE SMOOTH"
);
},
{
closed = 1;
nodes = (
"453 678 LINE",
"85 678 LINE",
"85 0 LINE",
"453 0 LINE"
);
}
);
width = 538;
}
);
note = .notdef;
},
{
glyphname = exclam;
lastChange = "2016-07-31 02:30:00 +0000";
layers = (
{
layerId = "AE6579ED-DC47-4075-A6A3-4B1A21099458";
paths = (
{
closed = 1;
nodes = (
"76 56 OFFCURVE",
"69 44 OFFCURVE",
"69 29 CURVE SMOOTH",
"69 0 OFFCURVE",
"103 -22 OFFCURVE",
"131 -22 CURVE SMOOTH",
"159 -22 OFFCURVE",
"192 1 OFFCURVE",
"192 30 CURVE SMOOTH",
"192 59 OFFCURVE",
"157 80 OFFCURVE",
"130 80 CURVE SMOOTH",
"117 80 OFFCURVE",
"103 75 OFFCURVE",
"90 66 CURVE SMOOTH"
);
},
{
closed = 1;
nodes = (
"166 647 OFFCURVE",
"149 659 OFFCURVE",
"130 659 CURVE SMOOTH",
"111 659 OFFCURVE",
"94 647 OFFCURVE",
"94 616 CURVE SMOOTH",
"94 197 LINE SMOOTH",
"94 168 OFFCURVE",
"106 154 OFFCURVE",
"130 154 CURVE SMOOTH",
"154 154 OFFCURVE",
"166 168 OFFCURVE",
"166 197 CURVE SMOOTH",
"166 616 LINE SMOOTH"
);
}
);
width = 260;
}
);
note = exclam;
unicode = 0021;
},
{
glyphname = quotedbl;
lastChange = "2016-07-31 02:30:00 +0000";
layers = (
{
layerId = "AE6579ED-DC47-4075-A6A3-4B1A21099458";
paths = (
{
closed = 1;
nodes = (
"172 437 OFFCURVE",
"184 423 OFFCURVE",
"208 423 CURVE SMOOTH",
"232 423 OFFCURVE",
"244 437 OFFCURVE",
"244 466 CURVE SMOOTH",
"244 615 LINE SMOOTH",
"244 646 OFFCURVE",
"227 658 OFFCURVE",
"208 658 CURVE SMOOTH",
"189 658 OFFCURVE",
"172 646 OFFCURVE",
"172 615 CURVE SMOOTH",
"172 466 LINE SMOOTH"
);
},
{
closed = 1;
nodes = (
"71 437 OFFCURVE",
"83 423 OFFCURVE",
"106 423 CURVE SMOOTH",
"125 423 OFFCURVE",
"142 435 OFFCURVE",
"142 466 CURVE SMOOTH",
"142 615 LINE SMOOTH",
"142 644 OFFCURVE",
"130 658 OFFCURVE",
"107 658 CURVE SMOOTH",
"88 658 OFFCURVE",
"71 646 OFFCURVE",
"71 615 CURVE SMOOTH",
"71 466 LINE SMOOTH"
);
}
);
width = 314;
}
);
leftKerningGroup = quotedbl;
note = quotedbl;
rightKerningGroup = quotedbl;
unicode = 0022;
},
{
glyphname = numbersign;
lastChange = "2016-07-31 02:30:00 +0000";
layers = (
{
layerId = "AE6579ED-DC47-4075-A6A3-4B1A21099458";
paths = (
{
closed = 1;
nodes = (
"361 590 OFFCURVE",
"362 597 OFFCURVE",
"362 606 CURVE SMOOTH",
"362 625 OFFCURVE",
"347 640 OFFCURVE",
"326 640 CURVE SMOOTH",
"309 640 OFFCURVE",
"297 630 OFFCURVE",
"290 610 CURVE SMOOTH",
"231 446 LINE",
"116 446 LINE SMOOTH",
"85 446 OFFCURVE",
"74 430 OFFCURVE",
"74 411 CURVE SMOOTH",
"74 386 OFFCURVE",
"88 374 OFFCURVE",
"116 374 CURVE SMOOTH",
"205 374 LINE",
"164 262 LINE",
"86 262 LINE SMOOTH",
"55 262 OFFCURVE",
"43 245 OFFCURVE",
"43 226 CURVE SMOOTH",
"43 207 OFFCURVE",
"55 190 OFFCURVE",
"86 190 CURVE SMOOTH",
"138 190 LINE",
"86 51 LINE",
"84 43 OFFCURVE",
"83 35 OFFCURVE",
"83 27 CURVE SMOOTH",
"83 11 OFFCURVE",
"97 -4 OFFCURVE",
"122 -4 CURVE SMOOTH",
"135 -4 OFFCURVE",
"146 6 OFFCURVE",
"155 26 CURVE",
"214 190 LINE",
"317 190 LINE",
"264 52 LINE",
"262 44 OFFCURVE",
"261 36 OFFCURVE",
"261 28 CURVE SMOOTH",
"261 12 OFFCURVE",
"273 -4 OFFCURVE",
"300 -4 CURVE SMOOTH",
"313 -4 OFFCURVE",
"325 6 OFFCURVE",
"334 26 CURVE",
"393 190 LINE",
"504 190 LINE SMOOTH",
"533 190 OFFCURVE",
"547 202 OFFCURVE",
"547 226 CURVE SMOOTH",
"547 250 OFFCURVE",
"533 262 OFFCURVE",
"504 262 CURVE SMOOTH",
"419 262 LINE",
"460 374 LINE",
"535 374 LINE SMOOTH",
"566 374 OFFCURVE",
"578 391 OFFCURVE",
"578 410 CURVE SMOOTH",
"578 429 OFFCURVE",
"566 446 OFFCURVE",
"535 446 CURVE SMOOTH",
"486 446 LINE",
"538 584 LINE",
"540 592 OFFCURVE",
"541 600 OFFCURVE",
"541 607 CURVE SMOOTH",
"541 622 OFFCURVE",
"526 640 OFFCURVE",
"505 640 CURVE SMOOTH",
"488 640 OFFCURVE",
"476 630 OFFCURVE",
"468 610 CURVE",
"409 446 LINE",
"306 446 LINE",
"359 585 LINE SMOOTH"
);
},
{
closed = 1;
nodes = (
"342 262 LINE",
"240 262 LINE",
"281 374 LINE",
"383 374 LINE"
);
}
);
width = 622;
}
);
note = numbersign;
rightKerningGroup = numbersign;
unicode = 0023;
},
{
glyphname = dollar;
lastChange = "2016-07-31 02:30:00 +0000";
layers = (
{
layerId = "AE6579ED-DC47-4075-A6A3-4B1A21099458";
paths = (
{
closed = 1;
nodes = (
"284 32 LINE SMOOTH",
"284 6 OFFCURVE",
"295 -7 OFFCURVE",
"317 -7 CURVE SMOOTH",
"343 -7 OFFCURVE",
"356 7 OFFCURVE",
"356 34 CURVE SMOOTH",
"356 84 LINE",
"428 84 LINE SMOOTH",
"521 84 OFFCURVE",
"567 131 OFFCURVE",
"567 224 CURVE SMOOTH",
"567 317 OFFCURVE",
"522 363 OFFCURVE",
"432 363 CURVE SMOOTH",
"431 363 OFFCURVE",
"431 363 OFFCURVE",
"430 363 CURVE SMOOTH",
"356 363 LINE",
"356 485 LINE",
"450 485 LINE SMOOTH",
"486 485 OFFCURVE",
"495 478 OFFCURVE",
"495 439 CURVE SMOOTH",
"495 411 OFFCURVE",
"507 397 OFFCURVE",
"530 397 CURVE",
"531 398 OFFCURVE",
"531 398 OFFCURVE",
"531 398 CURVE",
"555 398 OFFCURVE",
"567 414 OFFCURVE",
"567 446 CURVE SMOOTH",
"567 510 OFFCURVE",
"544 557 OFFCURVE",
"457 557 CURVE SMOOTH",
"356 557 LINE",
"356 603 LINE SMOOTH",
"356 630 OFFCURVE",
"343 643 OFFCURVE",
"318 643 CURVE SMOOTH",
"295 643 OFFCURVE",
"284 629 OFFCURVE",
"284 602 CURVE SMOOTH",
"284 557 LINE",
"201 557 LINE SMOOTH",
"108 557 OFFCURVE",
"61 514 OFFCURVE",
"61 428 CURVE SMOOTH",
"61 349 OFFCURVE",
"100 291 OFFCURVE",
"201 291 CURVE SMOOTH",
"284 291 LINE",
"284 156 LINE",
"178 156 LINE SMOOTH",
"143 156 OFFCURVE",
"133 164 OFFCURVE",
"133 205 CURVE SMOOTH",
"133 232 OFFCURVE",
"121 246 OFFCURVE",
"97 246 CURVE SMOOTH",
"73 246 OFFCURVE",
"61 232 OFFCURVE",
"61 203 CURVE SMOOTH",
"61 131 OFFCURVE",
"84 84 OFFCURVE",
"171 84 CURVE SMOOTH",
"284 84 LINE"
);
},
{
closed = 1;
nodes = (
"474 291 OFFCURVE",
"495 259 OFFCURVE",
"495 216 CURVE SMOOTH",
"495 173 OFFCURVE",
"482 156 OFFCURVE",
"446 156 CURVE SMOOTH",
"356 156 LINE",
"356 291 LINE",
"446 291 LINE SMOOTH"
);
},
{
closed = 1;
nodes = (
"154 363 OFFCURVE",
"133 389 OFFCURVE",
"133 432 CURVE SMOOTH",
"133 475 OFFCURVE",
"147 485 OFFCURVE",
"182 485 CURVE SMOOTH",
"284 485 LINE",
"284 363 LINE",
"182 363 LINE SMOOTH"
);
}
);
width = 628;
}
);
note = dollar;
rightKerningGroup = numbersign;
unicode = 0024;
},
{
glyphname = percent;
lastChange = "2016-07-31 02:30:00 +0000";
layers = (
{
layerId = "AE6579ED-DC47-4075-A6A3-4B1A21099458";
paths = (
{
closed = 1;
nodes = (
"415 201 OFFCURVE",
"420 203 OFFCURVE",
"425 203 CURVE SMOOTH",
"438 203 OFFCURVE",
"445 196 OFFCURVE",
"445 183 CURVE SMOOTH",
"445 172 OFFCURVE",
"436 163 OFFCURVE",
"425 163 CURVE SMOOTH",
"414 163 OFFCURVE",
"405 172 OFFCURVE",
"405 183 CURVE SMOOTH",
"405 188 OFFCURVE",
"407 193 OFFCURVE",
"411 197 CURVE SMOOTH"
);
},
{
closed = 1;
nodes = (
"374 100 OFFCURVE",
"397 91 OFFCURVE",
"424 91 CURVE SMOOTH",
"476 91 OFFCURVE",
"517 132 OFFCURVE",
"517 183 CURVE SMOOTH",
"517 234 OFFCURVE",
"476 275 OFFCURVE",
"424 275 CURVE SMOOTH",
"371 275 OFFCURVE",
"322 234 OFFCURVE",
"322 183 CURVE SMOOTH",
"322 158 OFFCURVE",
"332 136 OFFCURVE",
"353 118 CURVE SMOOTH"
);
},
{
closed = 1;
nodes = (
"180 476 OFFCURVE",
"192 469 OFFCURVE",
"192 460 CURVE SMOOTH",
"192 451 OFFCURVE",
"180 441 OFFCURVE",
"172 441 CURVE SMOOTH",
"163 441 OFFCURVE",
"152 451 OFFCURVE",
"152 460 CURVE SMOOTH",
"152 469 OFFCURVE",
"162 476 OFFCURVE",
"171 476 CURVE SMOOTH"
);
},
{
closed = 1;
nodes = (
"226 369 OFFCURVE",
"274 411 OFFCURVE",
"274 460 CURVE SMOOTH",
"274 509 OFFCURVE",
"226 548 OFFCURVE",
"173 548 CURVE SMOOTH",
"120 548 OFFCURVE",
"79 509 OFFCURVE",
"79 460 CURVE SMOOTH",
"79 411 OFFCURVE",
"120 369 OFFCURVE",
"173 369 CURVE SMOOTH"
);
},
{
closed = 1;
nodes = (
"72 157 OFFCURVE",
"67 147 OFFCURVE",
"67 137 CURVE SMOOTH",
"67 116 OFFCURVE",
"85 101 OFFCURVE",
"104 101 CURVE SMOOTH",
"113 101 OFFCURVE",
"123 106 OFFCURVE",
"133 115 CURVE SMOOTH",
"514 462 LINE",
"524 472 OFFCURVE",
"529 482 OFFCURVE",
"529 493 CURVE SMOOTH",
"529 513 OFFCURVE",
"510 528 OFFCURVE",
"493 528 CURVE SMOOTH",
"484 528 OFFCURVE",
"475 523 OFFCURVE",
"464 514 CURVE",
"83 168 LINE"
);
}
);
width = 597;
}
);
note = percent;
rightKerningGroup = numbersign;
unicode = 0025;
},
{
glyphname = ampersand;
lastChange = "2016-07-31 02:30:00 +0000";
layers = (
{
layerId = "AE6579ED-DC47-4075-A6A3-4B1A21099458";
paths = (
{
closed = 1;
nodes = (
"327 61 OFFCURVE",
"295 48 OFFCURVE",
"260 48 CURVE SMOOTH",
"237 48 OFFCURVE",
"216 51 OFFCURVE",
"196 58 CURVE SMOOTH",
"155 71 OFFCURVE",
"113 115 OFFCURVE",
"113 182 CURVE SMOOTH",
"113 238 OFFCURVE",
"131 279 OFFCURVE",
"167 305 CURVE",
"357 86 LINE"
);
},
{
closed = 1;
nodes = (
"68 316 OFFCURVE",
"41 257 OFFCURVE",
"41 182 CURVE SMOOTH",
"41 110 OFFCURVE",
"73 52 OFFCURVE",
"118 21 CURVE SMOOTH",
"163 -9 OFFCURVE",
"210 -24 OFFCURVE",
"260 -24 CURVE SMOOTH",
"312 -24 OFFCURVE",
"360 -6 OFFCURVE",
"403 31 CURVE",
"432 -2 LINE SMOOTH",
"444 -15 OFFCURVE",
"455 -22 OFFCURVE",
"465 -22 CURVE SMOOTH",
"485 -22 OFFCURVE",
"502 -12 OFFCURVE",
"502 11 CURVE SMOOTH",
"502 22 OFFCURVE",
"499 31 OFFCURVE",
"493 38 CURVE SMOOTH",
"451 84 LINE",
"480 127 OFFCURVE",
"494 174 OFFCURVE",
"494 227 CURVE SMOOTH",
"494 258 OFFCURVE",
"483 273 OFFCURVE",
"460 273 CURVE SMOOTH",
"435 273 OFFCURVE",
"423 257 OFFCURVE",
"423 226 CURVE SMOOTH",
"423 194 OFFCURVE",
"416 166 OFFCURVE",
"402 142 CURVE",
"176 403 LINE SMOOTH",
"152 430 OFFCURVE",
"140 455 OFFCURVE",
"140 476 CURVE SMOOTH",
"140 545 OFFCURVE",
"195 590 OFFCURVE",
"254 590 CURVE SMOOTH",
"286 590 OFFCURVE",
"310 566 OFFCURVE",
"322 542 CURVE SMOOTH",
"334 517 OFFCURVE",
"352 493 OFFCURVE",
"373 493 CURVE SMOOTH",
"393 493 OFFCURVE",
"408 509 OFFCURVE",
"408 528 CURVE SMOOTH",
"408 537 OFFCURVE",
"402 552 OFFCURVE",
"391 573 CURVE",
"368 613 OFFCURVE",
"313 662 OFFCURVE",
"254 662 CURVE SMOOTH",
"162 662 OFFCURVE",
"66 584 OFFCURVE",
"66 476 CURVE SMOOTH",
"66 437 OFFCURVE",
"84 398 OFFCURVE",
"121 359 CURVE"
);
}
);
width = 534;
}
);
leftKerningGroup = ampersand;
note = ampersand;
rightKerningGroup = ampersand;
unicode = 0026;
},
{
glyphname = quotesingle;
lastChange = "2016-07-31 02:30:00 +0000";
layers = (
{
layerId = "AE6579ED-DC47-4075-A6A3-4B1A21099458";
paths = (
{
closed = 1;
nodes = (
"71 437 OFFCURVE",
"83 423 OFFCURVE",
"106 423 CURVE SMOOTH",
"125 423 OFFCURVE",
"142 435 OFFCURVE",
"142 466 CURVE SMOOTH",
"142 615 LINE SMOOTH",
"142 644 OFFCURVE",
"130 658 OFFCURVE",
"107 658 CURVE SMOOTH",
"88 658 OFFCURVE",
"71 646 OFFCURVE",
"71 615 CURVE SMOOTH",
"71 466 LINE SMOOTH"
);
}
);
width = 212;
}
);
leftKerningGroup = quotedbl;
note = quotesingle;
rightKerningGroup = quotedbl;
unicode = 0027;
},
{
glyphname = parenleft;
lastChange = "2016-07-31 02:30:00 +0000";
layers = (
{
layerId = "AE6579ED-DC47-4075-A6A3-4B1A21099458";
paths = (
{
closed = 1;
nodes = (
"219 15 OFFCURVE",
"215 15 OFFCURVE",
"212 15 CURVE SMOOTH",
"191 15 OFFCURVE",
"177 17 OFFCURVE",
"170 20 CURVE SMOOTH",
"163 23 OFFCURVE",
"158 26 OFFCURVE",
"156 30 CURVE SMOOTH",
"149 43 OFFCURVE",
"145 78 OFFCURVE",
"145 133 CURVE SMOOTH",
"145 503 LINE SMOOTH",
"145 536 OFFCURVE",
"145 559 OFFCURVE",
"146 572 CURVE SMOOTH",
"147 585 OFFCURVE",
"150 597 OFFCURVE",
"157 606 CURVE",
"170 624 OFFCURVE",
"180 621 OFFCURVE",
"223 621 CURVE",
"223 693 LINE",
"219 693 OFFCURVE",
"215 693 OFFCURVE",
"212 693 CURVE SMOOTH",
"185 693 OFFCURVE",
"163 691 OFFCURVE",
"146 686 CURVE SMOOTH",
"119 678 OFFCURVE",
"108 663 OFFCURVE",
"93 636 CURVE SMOOTH",
"80 611 OFFCURVE",
"73 566 OFFCURVE",
"73 503 CURVE SMOOTH",
"73 133 LINE SMOOTH",
"73 102 OFFCURVE",
"75 73 OFFCURVE",
"79 45 CURVE SMOOTH",
"86 -12 OFFCURVE",
"107 -57 OFFCURVE",
"223 -57 CURVE",
"223 15 LINE"
);
}
);
width = 271;
}
);
note = parenleft;
rightKerningGroup = parenleft;
unicode = 0028;
},
{
glyphname = parenright;
lastChange = "2016-07-31 02:30:00 +0000";
layers = (
{
layerId = "AE6579ED-DC47-4075-A6A3-4B1A21099458";
paths = (
{
closed = 1;
nodes = (
"52 -57 OFFCURVE",
"56 -57 OFFCURVE",
"59 -57 CURVE SMOOTH",
"87 -57 OFFCURVE",
"109 -55 OFFCURVE",
"126 -50 CURVE SMOOTH",
"153 -42 OFFCURVE",
"163 -27 OFFCURVE",
"178 0 CURVE SMOOTH",
"191 25 OFFCURVE",
"198 70 OFFCURVE",
"198 133 CURVE SMOOTH",
"198 503 LINE SMOOTH",
"198 534 OFFCURVE",
"196 563 OFFCURVE",
"192 592 CURVE SMOOTH",
"184 648 OFFCURVE",
"163 693 OFFCURVE",
"48 693 CURVE",
"48 621 LINE",
"69 621 OFFCURVE",
"84 621 OFFCURVE",
"92 620 CURVE",
"108 619 OFFCURVE",
"124 599 OFFCURVE",
"125 572 CURVE",
"126 559 OFFCURVE",
"126 536 OFFCURVE",
"126 503 CURVE SMOOTH",
"126 133 LINE SMOOTH",
"126 111 OFFCURVE",
"126 91 OFFCURVE",
"125 74 CURVE SMOOTH",
"124 38 OFFCURVE",
"126 15 OFFCURVE",
"55 15 CURVE SMOOTH",
"52 15 OFFCURVE",
"50 15 OFFCURVE",
"48 15 CURVE",
"48 -57 LINE"
);
}
);
width = 271;
}
);
leftKerningGroup = parenright;
note = parenright;
rightKerningGroup = numbersign;
unicode = 0029;
},
{
glyphname = asterisk;
lastChange = "2016-07-31 02:30:00 +0000";
layers = (
{
layerId = "AE6579ED-DC47-4075-A6A3-4B1A21099458";
paths = (
{
closed = 1;
nodes = (
"248 425 OFFCURVE",
"254 422 OFFCURVE",
"260 419 CURVE",
"265 416 OFFCURVE",
"270 413 OFFCURVE",
"273 412 CURVE",
"276 410 OFFCURVE",
"280 408 OFFCURVE",
"284 406 CURVE",
"291 402 OFFCURVE",
"294 401 OFFCURVE",
"299 399 CURVE",
"301 398 OFFCURVE",
"303 397 OFFCURVE",
"304 396 CURVE",
"307 395 OFFCURVE",
"309 394 OFFCURVE",
"312 394 CURVE SMOOTH",
"313 394 OFFCURVE",
"315 394 OFFCURVE",
"316 394 CURVE SMOOTH",
"339 394 OFFCURVE",
"351 417 OFFCURVE",
"351 429 CURVE SMOOTH",
"351 442 OFFCURVE",
"343 453 OFFCURVE",
"328 463 CURVE",
"280 492 LINE",
"328 519 LINE",
"343 529 OFFCURVE",
"351 539 OFFCURVE",
"351 550 CURVE SMOOTH",
"351 571 OFFCURVE",
"336 588 OFFCURVE",
"316 588 CURVE",
"311 587 OFFCURVE",
"286 576 OFFCURVE",
"243 554 CURVE",
"243 608 LINE SMOOTH",
"243 637 OFFCURVE",
"231 651 OFFCURVE",
"207 651 CURVE SMOOTH",
"183 651 OFFCURVE",
"171 637 OFFCURVE",
"171 608 CURVE SMOOTH",
"171 554 LINE",
"166 557 OFFCURVE",
"160 560 OFFCURVE",
"155 563 CURVE",
"149 566 OFFCURVE",
"144 569 OFFCURVE",
"141 571 CURVE",
"138 572 OFFCURVE",
"134 574 OFFCURVE",
"131 576 CURVE",
"123 580 OFFCURVE",
"120 582 OFFCURVE",
"116 584 CURVE",
"113 585 OFFCURVE",
"111 586 OFFCURVE",
"109 587 CURVE SMOOTH",
"107 588 OFFCURVE",
"105 588 OFFCURVE",
"102 588 CURVE SMOOTH",
"93 588 LINE SMOOTH",
"84 588 OFFCURVE",
"64 574 OFFCURVE",
"64 553 CURVE SMOOTH",
"64 538 OFFCURVE",
"72 527 OFFCURVE",
"87 519 CURVE SMOOTH",
"135 492 LINE",
"86 463 LINE SMOOTH",
"71 454 OFFCURVE",
"64 444 OFFCURVE",
"64 433 CURVE SMOOTH",
"64 410 OFFCURVE",
"79 394 OFFCURVE",
"98 394 CURVE",
"103 395 OFFCURVE",
"128 406 OFFCURVE",
"171 428 CURVE",
"171 374 LINE SMOOTH",
"171 343 OFFCURVE",
"188 331 OFFCURVE",
"207 331 CURVE SMOOTH",
"226 331 OFFCURVE",
"243 343 OFFCURVE",
"243 374 CURVE SMOOTH",
"243 428 LINE"
);
}
);
width = 415;
}
);
leftKerningGroup = asterisk;
note = asterisk;
rightKerningGroup = asterisk;
unicode = 002A;
},
{
glyphname = plus;
lastChange = "2016-07-31 02:30:00 +0000";
layers = (
{
layerId = "AE6579ED-DC47-4075-A6A3-4B1A21099458";
paths = (
{
closed = 1;
nodes = (
"229 -8 OFFCURVE",
"241 -22 OFFCURVE",
"265 -22 CURVE SMOOTH",
"289 -22 OFFCURVE",
"301 -8 OFFCURVE",
"301 20 CURVE SMOOTH",
"301 194 LINE",
"453 194 LINE SMOOTH",
"478 194 OFFCURVE",
"497 208 OFFCURVE",
"497 229 CURVE SMOOTH",
"497 254 OFFCURVE",
"482 267 OFFCURVE",
"453 267 CURVE SMOOTH",
"301 267 LINE",
"301 440 LINE SMOOTH",
"301 469 OFFCURVE",
"289 483 OFFCURVE",
"265 483 CURVE SMOOTH",
"241 483 OFFCURVE",
"229 469 OFFCURVE",
"229 440 CURVE SMOOTH",
"229 267 LINE",
"75 267 LINE SMOOTH",
"46 267 OFFCURVE",
"34 248 OFFCURVE",
"34 231 CURVE SMOOTH",
"34 206 OFFCURVE",
"48 194 OFFCURVE",
"75 194 CURVE SMOOTH",
"229 194 LINE",
"229 20 LINE SMOOTH"
);
}
);
width = 531;
}
);
note = plus;
rightKerningGroup = numbersign;
unicode = 002B;
},
{
glyphname = comma;
lastChange = "2016-07-31 02:30:00 +0000";
layers = (
{
layerId = "AE6579ED-DC47-4075-A6A3-4B1A21099458";
paths = (
{
closed = 1;
nodes = (
"158 27 OFFCURVE",
"160 36 OFFCURVE",
"160 44 CURVE SMOOTH",
"160 59 OFFCURVE",
"140 76 OFFCURVE",
"109 76 CURVE SMOOTH",
"92 76 OFFCURVE",
"80 66 OFFCURVE",
"74 45 CURVE SMOOTH",
"50 -42 LINE",
"48 -54 OFFCURVE",
"47 -60 OFFCURVE",
"47 -60 CURVE",
"47 -83 OFFCURVE",
"58 -95 OFFCURVE",
"79 -95 CURVE SMOOTH",
"93 -95 OFFCURVE",
"104 -85 OFFCURVE",
"113 -65 CURVE SMOOTH",
"153 18 LINE"
);
}
);
width = 226;
}
);
leftKerningGroup = comma;
note = comma;
rightKerningGroup = comma;
unicode = 002C;
},
{
glyphname = hyphen;
lastChange = "2016-07-31 02:30:00 +0000";
layers = (
{
layerId = "AE6579ED-DC47-4075-A6A3-4B1A21099458";
paths = (
{
closed = 1;
nodes = (
"85 267 OFFCURVE",
"73 248 OFFCURVE",
"73 231 CURVE SMOOTH",
"73 206 OFFCURVE",
"87 194 OFFCURVE",
"114 194 CURVE SMOOTH",
"359 194 LINE SMOOTH",
"384 194 OFFCURVE",
"403 208 OFFCURVE",
"403 229 CURVE SMOOTH",
"403 254 OFFCURVE",
"388 267 OFFCURVE",
"359 267 CURVE SMOOTH",
"114 267 LINE SMOOTH"
);
}
);
width = 476;
}
);
leftKerningGroup = hyphen;
note = hyphen;
rightKerningGroup = hyphen;
unicode = 002D;
},
{
glyphname = period;
lastChange = "2016-07-31 02:30:00 +0000";
layers = (
{
layerId = "AE6579ED-DC47-4075-A6A3-4B1A21099458";
paths = (
{
closed = 1;
nodes = (
"186 58 OFFCURVE",
"152 80 OFFCURVE",
"125 80 CURVE SMOOTH",
"98 80 OFFCURVE",
"64 58 OFFCURVE",
"64 29 CURVE SMOOTH",
"64 0 OFFCURVE",
"96 -22 OFFCURVE",
"124 -22 CURVE SMOOTH",
"152 -22 OFFCURVE",
"186 0 OFFCURVE",
"186 29 CURVE SMOOTH"
);
}
);
width = 250;
}
);
leftKerningGroup = comma;
note = period;
rightKerningGroup = comma;
unicode = 002E;
},
{
glyphname = slash;
lastChange = "2016-07-31 02:30:00 +0000";
layers = (
{
layerId = "AE6579ED-DC47-4075-A6A3-4B1A21099458";
paths = (
{
closed = 1;
nodes = (
"331 606 OFFCURVE",
"334 619 OFFCURVE",
"334 629 CURVE SMOOTH",
"334 649 OFFCURVE",
"313 660 OFFCURVE",
"297 660 CURVE SMOOTH",
"282 660 OFFCURVE",
"271 650 OFFCURVE",
"262 631 CURVE",
"52 53 LINE SMOOTH",
"45 34 OFFCURVE",
"42 22 OFFCURVE",
"42 16 CURVE SMOOTH",
"42 8 LINE SMOOTH",
"42 -13 OFFCURVE",
"62 -23 OFFCURVE",
"77 -23 CURVE SMOOTH",
"93 -23 OFFCURVE",
"105 -13 OFFCURVE",
"113 6 CURVE",
"325 590 LINE SMOOTH"
);
}
);
width = 375;
}
);
leftKerningGroup = slash;
note = slash;
rightKerningGroup = slash;
unicode = 002F;
},
{
glyphname = zero;
lastChange = "2016-07-31 02:30:00 +0000";
layers = (
{
layerId = "AE6579ED-DC47-4075-A6A3-4B1A21099458";
paths = (
{
closed = 1;
nodes = (
"116 527 OFFCURVE",
"163 568 OFFCURVE",
"227 568 CURVE SMOOTH",
"365 568 LINE SMOOTH",
"429 568 OFFCURVE",
"476 527 OFFCURVE",
"476 491 CURVE SMOOTH",
"476 144 LINE SMOOTH",
"476 108 OFFCURVE",
"429 67 OFFCURVE",
"365 67 CURVE SMOOTH",
"227 67 LINE SMOOTH",
"163 67 OFFCURVE",
"116 108 OFFCURVE",
"116 144 CURVE SMOOTH",
"116 491 LINE SMOOTH"
);
},
{
closed = 1;
nodes = (
"548 574 OFFCURVE",
"467 641 OFFCURVE",
"354 641 CURVE SMOOTH",
"238 641 LINE SMOOTH",
"125 641 OFFCURVE",
"44 574 OFFCURVE",
"44 478 CURVE SMOOTH",
"44 158 LINE SMOOTH",
"44 62 OFFCURVE",
"125 -5 OFFCURVE",
"238 -5 CURVE SMOOTH",
"354 -5 LINE SMOOTH",
"467 -5 OFFCURVE",
"548 62 OFFCURVE",
"548 158 CURVE SMOOTH",
"548 478 LINE SMOOTH"
);
}
);
width = 592;
}
);
leftKerningGroup = zero;
note = zero;
rightKerningGroup = zero;
unicode = 0030;
},
{
glyphname = one;
lastChange = "2016-07-31 02:30:00 +0000";
layers = (
{
layerId = "AE6579ED-DC47-4075-A6A3-4B1A21099458";
paths = (
{
closed = 1;
nodes = (
"269 6 OFFCURVE",
"281 -7 OFFCURVE",
"305 -7 CURVE SMOOTH",
"329 -7 OFFCURVE",
"341 6 OFFCURVE",
"341 33 CURVE SMOOTH",
"341 647 LINE SMOOTH",
"341 672 OFFCURVE",
"321 685 OFFCURVE",
"302 685 CURVE SMOOTH",
"293 685 OFFCURVE",
"282 680 OFFCURVE",
"270 670 CURVE",
"209 610 LINE",
"197 599 OFFCURVE",
"191 589 OFFCURVE",
"191 580 CURVE SMOOTH",
"191 561 OFFCURVE",
"202 546 OFFCURVE",
"226 546 CURVE SMOOTH",
"238 546 OFFCURVE",
"250 551 OFFCURVE",
"261 562 CURVE",
"269 569 LINE",
"269 33 LINE SMOOTH"
);
}
);
width = 592;
}
);
leftKerningGroup = one;
note = one;
rightKerningGroup = numbersign;
unicode = 0031;
},
{
glyphname = two;
lastChange = "2016-07-31 02:30:00 +0000";
layers = (
{
layerId = "AE6579ED-DC47-4075-A6A3-4B1A21099458";
paths = (
{
closed = 1;
nodes = (
"548 601 OFFCURVE",
"475 641 OFFCURVE",
"314 641 CURVE SMOOTH",
"154 641 LINE SMOOTH",
"78 641 OFFCURVE",
"45 607 OFFCURVE",
"45 519 CURVE SMOOTH",
"45 489 OFFCURVE",
"57 474 OFFCURVE",
"81 474 CURVE SMOOTH",
"105 474 OFFCURVE",
"117 489 OFFCURVE",
"117 519 CURVE SMOOTH",
"117 559 OFFCURVE",
"126 569 OFFCURVE",
"161 569 CURVE SMOOTH",
"314 569 LINE SMOOTH",
"442 569 OFFCURVE",
"476 554 OFFCURVE",
"476 454 CURVE SMOOTH",
"476 403 OFFCURVE",
"408 361 OFFCURVE",
"324 325 CURVE SMOOTH",
"281 306 OFFCURVE",
"239 286 OFFCURVE",
"197 264 CURVE SMOOTH",
"113 220 OFFCURVE",
"45 145 OFFCURVE",
"45 52 CURVE SMOOTH",
"45 -5 LINE",
"503 -5 LINE SMOOTH",
"533 -5 OFFCURVE",
"548 7 OFFCURVE",
"548 31 CURVE SMOOTH",
"548 55 OFFCURVE",
"533 67 OFFCURVE",
"503 67 CURVE SMOOTH",
"117 67 LINE",
"120 102 OFFCURVE",
"138 135 OFFCURVE",
"169 164 CURVE SMOOTH",
"231 222 OFFCURVE",
"320 257 OFFCURVE",
"402 297 CURVE SMOOTH",
"484 336 OFFCURVE",
"548 389 OFFCURVE",
"548 456 CURVE SMOOTH"
);
}
);
width = 592;
}
);
note = two;
rightKerningGroup = numbersign;
unicode = 0032;
},
{
glyphname = three;
lastChange = "2016-07-31 02:30:00 +0000";
layers = (
{
layerId = "AE6579ED-DC47-4075-A6A3-4B1A21099458";
paths = (
{
closed = 1;
nodes = (
"446 569 OFFCURVE",
"477 534 OFFCURVE",
"477 470 CURVE SMOOTH",
"477 406 OFFCURVE",
"376 362 OFFCURVE",
"297 362 CURVE SMOOTH",
"258 362 OFFCURVE",
"238 350 OFFCURVE",
"238 326 CURVE SMOOTH",
"238 302 OFFCURVE",
"257 290 OFFCURVE",
"294 289 CURVE SMOOTH",
"369 289 OFFCURVE",
"477 232 OFFCURVE",
"477 168 CURVE SMOOTH",
"477 104 OFFCURVE",
"446 67 OFFCURVE",
"342 67 CURVE SMOOTH",
"250 67 LINE SMOOTH",
"181 67 OFFCURVE",
"116 92 OFFCURVE",
"116 119 CURVE SMOOTH",
"116 148 OFFCURVE",
"104 162 OFFCURVE",
"80 162 CURVE SMOOTH",
"56 162 OFFCURVE",
"44 146 OFFCURVE",
"44 114 CURVE SMOOTH",
"44 50 OFFCURVE",
"122 -5 OFFCURVE",
"243 -5 CURVE SMOOTH",
"329 -5 LINE SMOOTH",
"489 -5 OFFCURVE",
"548 49 OFFCURVE",
"548 189 CURVE SMOOTH",
"548 234 OFFCURVE",
"488 298 OFFCURVE",
"435 326 CURVE",
"490 353 OFFCURVE",
"548 403 OFFCURVE",
"548 447 CURVE SMOOTH",
"548 587 OFFCURVE",
"489 641 OFFCURVE",
"329 641 CURVE SMOOTH",
"243 641 LINE SMOOTH",
"122 641 OFFCURVE",
"44 586 OFFCURVE",
"44 522 CURVE SMOOTH",
"44 490 OFFCURVE",
"56 474 OFFCURVE",
"80 474 CURVE SMOOTH",
"104 474 OFFCURVE",
"116 488 OFFCURVE",
"116 517 CURVE SMOOTH",
"116 544 OFFCURVE",
"182 569 OFFCURVE",
"250 569 CURVE SMOOTH",
"342 569 LINE SMOOTH"
);
}
);
width = 592;
}
);
note = three;
rightKerningGroup = three;
unicode = 0033;
},
{
glyphname = four;
lastChange = "2016-07-31 02:30:00 +0000";
layers = (
{
layerId = "AE6579ED-DC47-4075-A6A3-4B1A21099458";
paths = (
{
closed = 1;
nodes = (
"536 160 OFFCURVE",
"550 172 OFFCURVE",
"550 196 CURVE SMOOTH",
"550 220 OFFCURVE",
"536 232 OFFCURVE",
"508 232 CURVE SMOOTH",
"462 232 LINE",
"462 641 LINE",
"378 641 LINE",
"42 235 LINE",
"42 160 LINE",
"386 160 LINE",
"386 32 LINE SMOOTH",
"386 7 OFFCURVE",
"403 -7 OFFCURVE",
"426 -7 CURVE SMOOTH",
"450 -7 OFFCURVE",
"462 6 OFFCURVE",
"462 32 CURVE SMOOTH",
"462 160 LINE",
"508 160 LINE SMOOTH"
);
},
{
closed = 1;
nodes = (
"386 550 LINE",
"386 232 LINE",
"124 232 LINE"
);
}
);
width = 592;
}
);
leftKerningGroup = four;
note = four;
rightKerningGroup = four;
unicode = 0034;
},
{
glyphname = five;
lastChange = "2016-07-31 02:30:00 +0000";
layers = (
{
layerId = "AE6579ED-DC47-4075-A6A3-4B1A21099458";
paths = (
{
closed = 1;
nodes = (
"49 52 OFFCURVE",
"195 -9 OFFCURVE",
"291 -9 CURVE SMOOTH",
"442 -9 OFFCURVE",
"543 85 OFFCURVE",
"543 226 CURVE SMOOTH",
"543 367 OFFCURVE",
"434 449 OFFCURVE",
"310 449 CURVE SMOOTH",
"132 449 LINE",
"138 523 LINE SMOOTH",
"142 559 OFFCURVE",
"154 569 OFFCURVE",
"182 569 CURVE SMOOTH",
"459 569 LINE SMOOTH",
"490 569 OFFCURVE",
"501 585 OFFCURVE",
"501 604 CURVE SMOOTH",
"501 629 OFFCURVE",
"487 641 OFFCURVE",
"459 641 CURVE SMOOTH",
"190 641 LINE SMOOTH",
"106 641 OFFCURVE",
"71 607 OFFCURVE",
"64 508 CURVE SMOOTH",
"55 377 LINE",
"319 377 LINE SMOOTH",
"392 377 OFFCURVE",
"471 333 OFFCURVE",
"471 230 CURVE SMOOTH",
"471 126 OFFCURVE",
"411 63 OFFCURVE",
"291 63 CURVE SMOOTH",
"222 63 OFFCURVE",
"156 96 OFFCURVE",
"119 122 CURVE SMOOTH",
"100 135 OFFCURVE",
"88 141 OFFCURVE",
"81 141 CURVE SMOOTH",
"68 141 OFFCURVE",
"49 125 OFFCURVE",
"49 105 CURVE SMOOTH"
);
}
);
width = 592;
}
);
note = five;
rightKerningGroup = five;
unicode = 0035;
},
{
glyphname = six;
lastChange = "2016-07-31 02:30:00 +0000";
layers = (
{
layerId = "AE6579ED-DC47-4075-A6A3-4B1A21099458";
paths = (
{
closed = 1;
nodes = (
"445 -9 OFFCURVE",
"548 83 OFFCURVE",
"548 215 CURVE SMOOTH",
"548 346 OFFCURVE",
"445 438 OFFCURVE",
"296 438 CURVE SMOOTH",
"239 438 OFFCURVE",
"190 426 OFFCURVE",
"149 401 CURVE",
"185 486 OFFCURVE",
"250 546 OFFCURVE",
"317 575 CURVE",
"337 585 OFFCURVE",
"347 597 OFFCURVE",
"347 611 CURVE SMOOTH",
"347 633 OFFCURVE",
"333 644 OFFCURVE",
"304 644 CURVE SMOOTH",
"293 644 OFFCURVE",
"278 639 OFFCURVE",
"259 629 CURVE SMOOTH",
"220 608 OFFCURVE",
"166 559 OFFCURVE",
"122 495 CURVE SMOOTH",
"78 431 OFFCURVE",
"44 329 OFFCURVE",
"44 207 CURVE SMOOTH",
"44 85 OFFCURVE",
"147 -9 OFFCURVE",
"296 -9 CURVE SMOOTH"
);
},
{
closed = 1;
nodes = (
"194 352 OFFCURVE",
"238 366 OFFCURVE",
"296 366 CURVE SMOOTH",
"412 366 OFFCURVE",
"476 307 OFFCURVE",
"476 214 CURVE SMOOTH",
"476 121 OFFCURVE",
"411 63 OFFCURVE",
"296 63 CURVE SMOOTH",
"181 63 OFFCURVE",
"116 121 OFFCURVE",
"116 214 CURVE SMOOTH",
"116 261 OFFCURVE",
"132 298 OFFCURVE",
"163 325 CURVE SMOOTH"
);
}
);
width = 592;
}
);
leftKerningGroup = six;
note = six;
rightKerningGroup = six;
unicode = 0036;
},
{
glyphname = seven;
lastChange = "2016-07-31 02:30:00 +0000";
layers = (
{
layerId = "AE6579ED-DC47-4075-A6A3-4B1A21099458";
paths = (
{
closed = 1;
nodes = (
"285 -10 OFFCURVE",
"298 1 OFFCURVE",
"307 22 CURVE SMOOTH",
"535 590 LINE SMOOTH",
"538 597 OFFCURVE",
"539 604 OFFCURVE",
"539 613 CURVE SMOOTH",
"539 635 OFFCURVE",
"527 646 OFFCURVE",
"503 646 CURVE SMOOTH",
"163 646 LINE SMOOTH",
"87 646 OFFCURVE",
"53 611 OFFCURVE",
"53 524 CURVE SMOOTH",
"53 494 OFFCURVE",
"65 479 OFFCURVE",
"89 479 CURVE SMOOTH",
"113 479 OFFCURVE",
"125 494 OFFCURVE",
"125 524 CURVE SMOOTH",
"125 563 OFFCURVE",
"135 574 OFFCURVE",
"171 574 CURVE SMOOTH",
"453 574 LINE",
"232 47 LINE",
"227 38 OFFCURVE",
"225 29 OFFCURVE",
"225 20 CURVE SMOOTH",
"225 1 OFFCURVE",
"248 -10 OFFCURVE",
"268 -10 CURVE SMOOTH"
);
}
);
width = 592;
}
);
leftKerningGroup = seven;
note = seven;
rightKerningGroup = seven;
unicode = 0037;
},
{
glyphname = eight;
lastChange = "2016-07-31 02:30:00 +0000";
layers = (
{
layerId = "AE6579ED-DC47-4075-A6A3-4B1A21099458";
paths = (
{
closed = 1;
nodes = (
"443 292 OFFCURVE",
"476 278 OFFCURVE",
"476 180 CURVE SMOOTH",
"476 82 OFFCURVE",
"443 67 OFFCURVE",
"314 67 CURVE SMOOTH",
"279 67 LINE SMOOTH",
"148 67 OFFCURVE",
"116 82 OFFCURVE",
"116 180 CURVE SMOOTH",
"116 278 OFFCURVE",
"150 292 OFFCURVE",
"279 292 CURVE SMOOTH",
"314 292 LINE SMOOTH"
);
},
{
closed = 1;
nodes = (
"527 53 OFFCURVE",
"548 102 OFFCURVE",
"548 173 CURVE SMOOTH",
"548 244 OFFCURVE",
"530 295 OFFCURVE",
"493 326 CURVE",
"530 351 OFFCURVE",
"548 396 OFFCURVE",
"548 460 CURVE SMOOTH",
"548 587 OFFCURVE",
"515 640 OFFCURVE",
"314 641 CURVE SMOOTH",
"279 641 LINE SMOOTH",
"247 640 OFFCURVE",
"221 639 OFFCURVE",
"201 638 CURVE",
"90 627 OFFCURVE",
"44 583 OFFCURVE",
"44 468 CURVE SMOOTH",
"44 400 OFFCURVE",
"63 353 OFFCURVE",
"100 326 CURVE",
"63 296 OFFCURVE",
"44 246 OFFCURVE",
"44 175 CURVE SMOOTH",
"44 34 OFFCURVE",
"116 -5 OFFCURVE",
"279 -5 CURVE SMOOTH",
"314 -5 LINE SMOOTH",
"394 -5 OFFCURVE",
"443 1 OFFCURVE",
"486 28 CURVE SMOOTH"
);
},
{
closed = 1;
nodes = (
"461 386 OFFCURVE",
"444 379 OFFCURVE",
"427 371 CURVE",
"418 366 OFFCURVE",
"381 364 OFFCURVE",
"314 364 CURVE SMOOTH",
"279 364 LINE SMOOTH",
"243 364 OFFCURVE",
"214 365 OFFCURVE",
"193 367 CURVE SMOOTH",
"179 368 OFFCURVE",
"169 370 OFFCURVE",
"163 373 CURVE",
"150 378 OFFCURVE",
"131 387 OFFCURVE",
"126 402 CURVE SMOOTH",
"121 417 OFFCURVE",
"116 437 OFFCURVE",
"116 466 CURVE SMOOTH",
"116 495 OFFCURVE",
"121 516 OFFCURVE",
"126 532 CURVE SMOOTH",
"131 547 OFFCURVE",
"150 555 OFFCURVE",
"167 563 CURVE SMOOTH",
"175 567 OFFCURVE",
"212 569 OFFCURVE",
"277 569 CURVE SMOOTH",
"314 569 LINE SMOOTH",
"358 569 OFFCURVE",
"390 568 OFFCURVE",
"411 565 CURVE SMOOTH",
"442 561 OFFCURVE",
"449 554 OFFCURVE",
"462 538 CURVE",
"474 522 OFFCURVE",
"476 500 OFFCURVE",
"476 468 CURVE SMOOTH",
"476 436 OFFCURVE",
"471 417 OFFCURVE",
"466 402 CURVE SMOOTH"
);
}
);
width = 592;
}
);
leftKerningGroup = eight;
note = eight;
rightKerningGroup = eight;
unicode = 0038;
},
{
glyphname = nine;
lastChange = "2016-07-31 02:30:00 +0000";
layers = (
{
layerId = "AE6579ED-DC47-4075-A6A3-4B1A21099458";
paths = (
{
closed = 1;
nodes = (
"44 350 OFFCURVE",
"134 292 OFFCURVE",
"314 292 CURVE SMOOTH",
"375 292 OFFCURVE",
"423 300 OFFCURVE",
"457 315 CURVE",
"433 227 OFFCURVE",
"379 155 OFFCURVE",
"321 116 CURVE SMOOTH",
"263 77 OFFCURVE",
"203 57 OFFCURVE",
"166 57 CURVE SMOOTH",
"129 57 OFFCURVE",
"119 40 OFFCURVE",
"119 21 CURVE SMOOTH",
"119 -4 OFFCURVE",
"133 -16 OFFCURVE",
"160 -16 CURVE SMOOTH",
"259 -16 OFFCURVE",
"356 33 OFFCURVE",
"428 116 CURVE SMOOTH",
"500 199 OFFCURVE",
"548 326 OFFCURVE",
"548 466 CURVE SMOOTH",
"548 583 OFFCURVE",
"470 641 OFFCURVE",
"314 641 CURVE SMOOTH",
"311 641 OFFCURVE",
"308 641 OFFCURVE",
"305 641 CURVE SMOOTH",
"275 641 OFFCURVE",
"243 638 OFFCURVE",
"208 632 CURVE SMOOTH",
"125 619 OFFCURVE",
"44 570 OFFCURVE",
"44 466 CURVE SMOOTH"
);
},
{
closed = 1;
nodes = (
"433 569 OFFCURVE",
"476 533 OFFCURVE",
"476 466 CURVE SMOOTH",
"476 399 OFFCURVE",
"435 364 OFFCURVE",
"314 364 CURVE SMOOTH",
"291 364 OFFCURVE",
"272 365 OFFCURVE",
"256 366 CURVE SMOOTH",
"163 371 OFFCURVE",
"116 405 OFFCURVE",
"116 466 CURVE SMOOTH",
"116 535 OFFCURVE",
"182 569 OFFCURVE",
"314 569 CURVE SMOOTH"
);
}
);
width = 592;
}
);
leftKerningGroup = nine;
note = nine;
rightKerningGroup = nine;
unicode = 0039;
},
{
glyphname = colon;
lastChange = "2016-07-31 02:30:00 +0000";
layers = (
{
layerId = "AE6579ED-DC47-4075-A6A3-4B1A21099458";
paths = (
{
closed = 1;
nodes = (
"195 109 OFFCURVE",
"161 131 OFFCURVE",
"134 131 CURVE SMOOTH",
"107 131 OFFCURVE",
"73 109 OFFCURVE",
"73 80 CURVE SMOOTH",
"73 51 OFFCURVE",
"105 29 OFFCURVE",
"133 29 CURVE SMOOTH",
"161 29 OFFCURVE",
"195 51 OFFCURVE",
"195 80 CURVE SMOOTH"
);
},
{
closed = 1;
nodes = (
"195 462 OFFCURVE",
"161 484 OFFCURVE",
"134 484 CURVE SMOOTH",
"107 484 OFFCURVE",
"73 462 OFFCURVE",
"73 433 CURVE SMOOTH",
"73 404 OFFCURVE",
"105 382 OFFCURVE",
"133 382 CURVE SMOOTH",
"161 382 OFFCURVE",
"195 404 OFFCURVE",
"195 433 CURVE SMOOTH"
);
}
);
width = 268;
}
);
leftKerningGroup = colon;
note = colon;
rightKerningGroup = numbersign;
unicode = 003A;
},
{
glyphname = semicolon;
lastChange = "2016-07-31 02:30:00 +0000";
layers = (
{
layerId = "AE6579ED-DC47-4075-A6A3-4B1A21099458";
paths = (
{
closed = 1;
nodes = (
"191 78 OFFCURVE",
"193 87 OFFCURVE",
"193 95 CURVE SMOOTH",
"193 110 OFFCURVE",
"173 127 OFFCURVE",
"142 127 CURVE SMOOTH",
"125 127 OFFCURVE",
"113 117 OFFCURVE",
"107 96 CURVE SMOOTH",
"83 9 LINE",
"81 -3 OFFCURVE",
"80 -9 OFFCURVE",
"80 -9 CURVE",
"80 -32 OFFCURVE",
"91 -44 OFFCURVE",
"112 -44 CURVE SMOOTH",
"126 -44 OFFCURVE",
"137 -34 OFFCURVE",
"146 -14 CURVE SMOOTH",
"186 69 LINE"
);
},
{
closed = 1;
nodes = (
"195 462 OFFCURVE",
"161 484 OFFCURVE",
"134 484 CURVE SMOOTH",
"107 484 OFFCURVE",
"73 462 OFFCURVE",
"73 433 CURVE SMOOTH",
"73 404 OFFCURVE",
"105 382 OFFCURVE",
"133 382 CURVE SMOOTH",
"161 382 OFFCURVE",
"195 404 OFFCURVE",
"195 433 CURVE SMOOTH"
);
}
);
width = 271;
}
);
leftKerningGroup = semicolon;
note = semicolon;
rightKerningGroup = numbersign;
unicode = 003B;
},
{
glyphname = less;
lastChange = "2016-07-31 02:30:00 +0000";
layers = (
{
layerId = "AE6579ED-DC47-4075-A6A3-4B1A21099458";
paths = (
{
closed = 1;
nodes = (
"428 82 OFFCURVE",
"436 79 OFFCURVE",
"445 79 CURVE SMOOTH",
"462 79 OFFCURVE",
"480 95 OFFCURVE",
"480 116 CURVE SMOOTH",
"480 128 OFFCURVE",
"472 139 OFFCURVE",
"455 149 CURVE SMOOTH",
"140 333 LINE",
"455 515 LINE",
"466 520 OFFCURVE",
"480 535 OFFCURVE",
"480 553 CURVE SMOOTH",
"480 571 OFFCURVE",
"465 584 OFFCURVE",
"446 584 CURVE SMOOTH",
"437 584 OFFCURVE",
"428 581 OFFCURVE",
"420 576 CURVE",
"55 366 LINE SMOOTH",
"40 357 OFFCURVE",
"33 346 OFFCURVE",
"33 333 CURVE SMOOTH",
"33 319 OFFCURVE",
"40 307 OFFCURVE",
"55 298 CURVE SMOOTH",
"419 88 LINE"
);
}
);
width = 548;
}
);
note = less;
rightKerningGroup = numbersign;
unicode = 003C;
},
{
glyphname = equal;
lastChange = "2016-07-31 02:30:00 +0000";
layers = (
{
layerId = "AE6579ED-DC47-4075-A6A3-4B1A21099458";
paths = (
{
closed = 1;
nodes = (
"91 420 OFFCURVE",
"79 401 OFFCURVE",
"79 384 CURVE SMOOTH",
"79 359 OFFCURVE",
"93 347 OFFCURVE",
"120 347 CURVE SMOOTH",
"365 347 LINE SMOOTH",
"390 347 OFFCURVE",
"409 361 OFFCURVE",
"409 382 CURVE SMOOTH",
"409 407 OFFCURVE",
"394 420 OFFCURVE",
"365 420 CURVE SMOOTH",
"120 420 LINE SMOOTH"
);
},
{
closed = 1;
nodes = (
"91 317 OFFCURVE",
"79 298 OFFCURVE",
"79 281 CURVE SMOOTH",
"79 256 OFFCURVE",
"93 244 OFFCURVE",
"120 244 CURVE SMOOTH",
"365 244 LINE SMOOTH",
"390 244 OFFCURVE",
"409 258 OFFCURVE",
"409 279 CURVE SMOOTH",
"409 304 OFFCURVE",
"394 317 OFFCURVE",
"365 317 CURVE SMOOTH",
"120 317 LINE SMOOTH"
);
}
);
width = 488;
}
);
note = equal;
rightKerningGroup = numbersign;
unicode = 003D;
},
{
glyphname = greater;
lastChange = "2016-07-31 02:30:00 +0000";
layers = (
{
layerId = "AE6579ED-DC47-4075-A6A3-4B1A21099458";
paths = (
{
closed = 1;
nodes = (
"508 307 OFFCURVE",
"515 319 OFFCURVE",
"515 333 CURVE SMOOTH",
"515 346 OFFCURVE",
"508 357 OFFCURVE",
"493 366 CURVE SMOOTH",
"128 576 LINE",
"120 581 OFFCURVE",
"111 584 OFFCURVE",
"102 584 CURVE SMOOTH",
"83 584 OFFCURVE",
"68 571 OFFCURVE",
"68 553 CURVE SMOOTH",
"68 535 OFFCURVE",
"82 520 OFFCURVE",
"93 515 CURVE",
"408 333 LINE",
"93 149 LINE SMOOTH",
"76 139 OFFCURVE",
"68 128 OFFCURVE",
"68 117 CURVE SMOOTH",
"68 94 OFFCURVE",
"86 79 OFFCURVE",
"103 79 CURVE SMOOTH",
"112 79 OFFCURVE",
"120 82 OFFCURVE",
"129 88 CURVE",
"493 298 LINE SMOOTH"
);
}
);
width = 548;
}
);
note = greater;
rightKerningGroup = numbersign;
unicode = 003E;
},
{
glyphname = question;
lastChange = "2016-07-31 02:30:00 +0000";
layers = (
{
layerId = "AE6579ED-DC47-4075-A6A3-4B1A21099458";
paths = (
{
closed = 1;
nodes = (
"321 58 OFFCURVE",
"287 80 OFFCURVE",
"260 80 CURVE SMOOTH",
"233 80 OFFCURVE",
"199 58 OFFCURVE",
"199 29 CURVE SMOOTH",
"199 0 OFFCURVE",
"231 -22 OFFCURVE",
"259 -22 CURVE SMOOTH",
"287 -22 OFFCURVE",
"321 0 OFFCURVE",
"321 29 CURVE SMOOTH"
);
},
{
closed = 1;
nodes = (
"224 163 OFFCURVE",
"243 151 OFFCURVE",
"261 151 CURVE SMOOTH",
"279 151 OFFCURVE",
"296 163 OFFCURVE",
"296 194 CURVE SMOOTH",
"296 291 LINE",
"378 314 LINE SMOOTH",
"477 342 OFFCURVE",
"513 391 OFFCURVE",
"513 483 CURVE SMOOTH",
"513 528 OFFCURVE",
"501 568 OFFCURVE",
"476 602 CURVE SMOOTH",
"451 637 OFFCURVE",
"401 659 OFFCURVE",
"337 659 CURVE SMOOTH",
"261 659 LINE SMOOTH",
"109 659 OFFCURVE",
"37 620 OFFCURVE",
"37 471 CURVE SMOOTH",
"37 440 OFFCURVE",
"56 428 OFFCURVE",
"74 428 CURVE SMOOTH",
"92 428 OFFCURVE",
"110 440 OFFCURVE",
"110 471 CURVE SMOOTH",
"110 572 OFFCURVE",
"141 587 OFFCURVE",
"261 587 CURVE SMOOTH",
"354 587 LINE SMOOTH",
"417 587 OFFCURVE",
"441 534 OFFCURVE",
"441 485 CURVE SMOOTH",
"441 436 OFFCURVE",
"418 399 OFFCURVE",
"389 391 CURVE SMOOTH",
"224 346 LINE",
"224 194 LINE SMOOTH"
);
}
);
width = 553;
}
);
leftKerningGroup = question;
note = question;
rightKerningGroup = numbersign;
unicode = 003F;
},
{
glyphname = at;
lastChange = "2016-07-31 02:30:00 +0000";
layers = (
{
layerId = "AE6579ED-DC47-4075-A6A3-4B1A21099458";
paths = (
{
closed = 1;
nodes = (
"69 82 OFFCURVE",
"156 -15 OFFCURVE",
"292 -15 CURVE SMOOTH",
"433 -15 LINE SMOOTH",
"520 -15 OFFCURVE",
"544 35 OFFCURVE",
"544 102 CURVE SMOOTH",
"544 135 OFFCURVE",
"532 152 OFFCURVE",
"508 152 CURVE SMOOTH",
"484 152 OFFCURVE",
"472 138 OFFCURVE",
"472 109 CURVE SMOOTH",
"472 69 OFFCURVE",
"462 57 OFFCURVE",
"426 57 CURVE SMOOTH",
"292 57 LINE SMOOTH",
"191 57 OFFCURVE",
"141 124 OFFCURVE",
"141 241 CURVE SMOOTH",
"141 395 LINE SMOOTH",
"141 512 OFFCURVE",
"191 579 OFFCURVE",
"292 579 CURVE SMOOTH",
"321 579 LINE SMOOTH",
"421 579 OFFCURVE",
"472 507 OFFCURVE",
"472 406 CURVE SMOOTH",
"472 355 OFFCURVE",
"470 321 OFFCURVE",
"466 303 CURVE",
"461 285 OFFCURVE",
"453 273 OFFCURVE",
"441 267 CURVE",
"445 282 OFFCURVE",
"447 303 OFFCURVE",
"447 332 CURVE SMOOTH",
"447 441 OFFCURVE",
"415 488 OFFCURVE",
"311 488 CURVE SMOOTH",
"206 488 OFFCURVE",
"174 442 OFFCURVE",
"174 332 CURVE SMOOTH",
"174 222 OFFCURVE",
"206 175 OFFCURVE",
"310 175 CURVE SMOOTH",
"391 175 OFFCURVE",
"451 188 OFFCURVE",
"488 215 CURVE SMOOTH",
"504 226 OFFCURVE",
"516 243 OFFCURVE",
"525 264 CURVE SMOOTH",
"542 306 OFFCURVE",
"544 335 OFFCURVE",
"544 395 CURVE SMOOTH",
"544 554 OFFCURVE",
"457 651 OFFCURVE",
"321 651 CURVE SMOOTH",
"292 651 LINE SMOOTH",
"156 651 OFFCURVE",
"69 554 OFFCURVE",
"69 395 CURVE SMOOTH",
"69 241 LINE SMOOTH"
);
},
{
closed = 1;
nodes = (
"246 404 OFFCURVE",
"254 416 OFFCURVE",
"311 416 CURVE SMOOTH",
"367 416 OFFCURVE",
"375 403 OFFCURVE",
"375 332 CURVE SMOOTH",
"375 260 OFFCURVE",
"367 247 OFFCURVE",
"311 247 CURVE SMOOTH",
"254 247 OFFCURVE",
"246 260 OFFCURVE",
"246 332 CURVE SMOOTH"
);
}
);
width = 612;
}
);
note = at;
rightKerningGroup = numbersign;
unicode = 0040;
},
{
glyphname = A;
lastChange = "2016-07-31 02:30:00 +0000";
layers = (
{
layerId = "AE6579ED-DC47-4075-A6A3-4B1A21099458";
paths = (
{
closed = 1;
nodes = (
"27 37 LINE",
"25 31 OFFCURVE",
"24 23 OFFCURVE",
"24 14 CURVE SMOOTH",
"24 -5 OFFCURVE",
"45 -16 OFFCURVE",
"60 -16 CURVE SMOOTH",
"77 -16 OFFCURVE",
"89 -7 OFFCURVE",
"97 12 CURVE SMOOTH",
"166 189 LINE",
"444 189 LINE",
"513 12 LINE SMOOTH",
"520 -7 OFFCURVE",
"533 -16 OFFCURVE",
"550 -16 CURVE SMOOTH",
"565 -16 OFFCURVE",
"586 -5 OFFCURVE",
"586 14 CURVE SMOOTH",
"586 23 OFFCURVE",
"585 31 OFFCURVE",
"583 37 CURVE",
"346 636 LINE",
"264 636 LINE"
);
},
{
closed = 1;
nodes = (
"415 261 LINE",
"195 261 LINE",
"304 532 LINE"
);
}
);
width = 610;
}
);
leftKerningGroup = A;
note = A;
rightKerningGroup = A;
unicode = 0041;
},
{
glyphname = B;
lastChange = "2016-07-31 02:30:00 +0000";
layers = (
{
layerId = "AE6579ED-DC47-4075-A6A3-4B1A21099458";
paths = (
{
closed = 1;
nodes = (
"483 312 OFFCURVE",
"516 297 OFFCURVE",
"516 200 CURVE SMOOTH",
"516 184 LINE SMOOTH",
"516 87 OFFCURVE",
"483 72 OFFCURVE",
"336 72 CURVE SMOOTH",
"156 72 LINE",
"156 312 LINE",
"354 312 LINE SMOOTH"
);
},
{
closed = 1;
nodes = (
"84 15 OFFCURVE",
"95 0 OFFCURVE",
"118 0 CURVE SMOOTH",
"336 0 LINE SMOOTH",
"515 0 OFFCURVE",
"588 39 OFFCURVE",
"588 184 CURVE SMOOTH",
"588 203 LINE SMOOTH",
"588 284 OFFCURVE",
"561 339 OFFCURVE",
"506 366 CURVE",
"533 391 OFFCURVE",
"546 427 OFFCURVE",
"546 475 CURVE SMOOTH",
"546 598 OFFCURVE",
"469 636 OFFCURVE",
"306 636 CURVE SMOOTH",
"118 636 LINE SMOOTH",
"95 636 OFFCURVE",
"84 621 OFFCURVE",
"84 592 CURVE SMOOTH",
"84 44 LINE SMOOTH"
);
},
{
closed = 1;
nodes = (
"156 559 LINE",
"306 559 LINE SMOOTH",
"435 559 OFFCURVE",
"474 544 OFFCURVE",
"474 472 CURVE SMOOTH",
"474 400 OFFCURVE",
"435 384 OFFCURVE",
"306 384 CURVE SMOOTH",
"156 384 LINE"
);
}
);
width = 644;
}
);
leftKerningGroup = B;
note = B;
rightKerningGroup = B;
unicode = 0042;
},
{
glyphname = C;
lastChange = "2016-07-31 02:30:00 +0000";
layers = (
{
layerId = "AE6579ED-DC47-4075-A6A3-4B1A21099458";
paths = (
{
closed = 1;
nodes = (
"552 0 OFFCURVE",
"575 49 OFFCURVE",
"575 116 CURVE SMOOTH",
"575 149 OFFCURVE",
"563 166 OFFCURVE",
"539 167 CURVE",
"520 167 OFFCURVE",
"503 155 OFFCURVE",
"503 120 CURVE SMOOTH",
"503 85 OFFCURVE",
"494 72 OFFCURVE",
"458 72 CURVE SMOOTH",
"324 72 LINE SMOOTH",
"176 72 OFFCURVE",
"143 86 OFFCURVE",
"143 186 CURVE SMOOTH",
"143 450 LINE SMOOTH",
"143 549 OFFCURVE",
"177 564 OFFCURVE",
"306 564 CURVE SMOOTH",
"458 564 LINE SMOOTH",
"494 564 OFFCURVE",
"503 551 OFFCURVE",
"503 516 CURVE SMOOTH",
"503 481 OFFCURVE",
"520 469 OFFCURVE",
"539 469 CURVE SMOOTH",
"563 469 OFFCURVE",
"575 486 OFFCURVE",
"575 519 CURVE SMOOTH",
"575 586 OFFCURVE",
"552 636 OFFCURVE",
"465 636 CURVE SMOOTH",
"306 636 LINE SMOOTH",
"145 636 OFFCURVE",
"71 597 OFFCURVE",
"71 452 CURVE SMOOTH",
"71 184 LINE SMOOTH",
"71 39 OFFCURVE",
"144 0 OFFCURVE",
"324 0 CURVE SMOOTH",
"465 0 LINE SMOOTH"
);
}
);
width = 631;
}
);
leftKerningGroup = C;
note = C;
rightKerningGroup = C;
unicode = 0043;
},
{
glyphname = D;
lastChange = "2016-07-31 02:30:00 +0000";
layers = (
{
layerId = "AE6579ED-DC47-4075-A6A3-4B1A21099458";
paths = (
{
closed = 1;
nodes = (
"588 596 OFFCURVE",
"515 636 OFFCURVE",
"354 636 CURVE SMOOTH",
"118 636 LINE SMOOTH",
"95 636 OFFCURVE",
"84 621 OFFCURVE",
"84 592 CURVE SMOOTH",
"84 44 LINE SMOOTH",
"84 15 OFFCURVE",
"95 0 OFFCURVE",
"118 0 CURVE SMOOTH",
"336 0 LINE SMOOTH",
"515 0 OFFCURVE",
"588 39 OFFCURVE",
"588 184 CURVE SMOOTH",
"588 452 LINE SMOOTH"
);
},
{
closed = 1;
nodes = (
"516 86 OFFCURVE",
"484 72 OFFCURVE",
"336 72 CURVE SMOOTH",
"156 72 LINE",
"156 564 LINE",
"354 564 LINE SMOOTH",
"483 564 OFFCURVE",
"516 549 OFFCURVE",
"516 450 CURVE SMOOTH",
"516 186 LINE SMOOTH"
);
}
);
width = 659;
}
);
leftKerningGroup = B;
note = D;
rightKerningGroup = D;
unicode = 0044;
},
{
glyphname = E;
lastChange = "2016-07-31 02:30:00 +0000";
layers = (
{
layerId = "AE6579ED-DC47-4075-A6A3-4B1A21099458";
paths = (
{
closed = 1;
nodes = (
"454 322 OFFCURVE",
"471 333 OFFCURVE",
"471 356 CURVE SMOOTH",
"471 381 OFFCURVE",
"454 394 OFFCURVE",
"421 394 CURVE SMOOTH",
"156 394 LINE",
"156 564 LINE",
"544 564 LINE SMOOTH",
"573 564 OFFCURVE",
"588 575 OFFCURVE",
"588 598 CURVE SMOOTH",
"588 623 OFFCURVE",
"573 636 OFFCURVE",
"544 636 CURVE SMOOTH",
"118 636 LINE SMOOTH",
"95 636 OFFCURVE",
"84 621 OFFCURVE",
"84 592 CURVE SMOOTH",
"84 44 LINE SMOOTH",
"84 15 OFFCURVE",
"95 0 OFFCURVE",
"118 0 CURVE SMOOTH",
"544 0 LINE SMOOTH",
"573 0 OFFCURVE",
"588 11 OFFCURVE",
"588 34 CURVE SMOOTH",
"588 59 OFFCURVE",
"573 72 OFFCURVE",
"544 72 CURVE SMOOTH",
"156 72 LINE",
"156 322 LINE",
"421 322 LINE SMOOTH"
);
}
);
width = 636;
}
);
leftKerningGroup = B;
note = E;
rightKerningGroup = E;
unicode = 0045;
},
{
glyphname = F;
lastChange = "2016-07-31 02:30:00 +0000";
layers = (
{
layerId = "AE6579ED-DC47-4075-A6A3-4B1A21099458";
paths = (
{
closed = 1;
nodes = (
"421 322 LINE SMOOTH",
"454 322 OFFCURVE",
"471 333 OFFCURVE",
"471 356 CURVE SMOOTH",
"471 381 OFFCURVE",
"454 394 OFFCURVE",
"421 394 CURVE SMOOTH",
"156 394 LINE",
"156 564 LINE",
"544 564 LINE SMOOTH",
"573 564 OFFCURVE",
"588 575 OFFCURVE",
"588 598 CURVE SMOOTH",
"588 623 OFFCURVE",
"573 636 OFFCURVE",
"544 636 CURVE SMOOTH",
"118 636 LINE SMOOTH",
"95 636 OFFCURVE",
"84 621 OFFCURVE",
"84 592 CURVE SMOOTH",
"84 36 LINE SMOOTH",
"84 7 OFFCURVE",
"96 -7 OFFCURVE",
"120 -7 CURVE SMOOTH",
"144 -7 OFFCURVE",
"156 7 OFFCURVE",
"156 35 CURVE SMOOTH",
"156 322 LINE"
);
}
);
width = 615;
}
);
leftKerningGroup = B;
note = F;
rightKerningGroup = F;
unicode = 0046;
},
{
glyphname = G;
lastChange = "2016-07-31 02:30:00 +0000";
layers = (
{
layerId = "AE6579ED-DC47-4075-A6A3-4B1A21099458";
paths = (
{
closed = 1;
nodes = (
"503 81 OFFCURVE",
"494 72 OFFCURVE",
"458 72 CURVE SMOOTH",
"306 72 LINE SMOOTH",
"175 72 OFFCURVE",
"143 87 OFFCURVE",
"143 184 CURVE SMOOTH",
"143 452 LINE SMOOTH",
"143 549 OFFCURVE",
"177 564 OFFCURVE",
"324 564 CURVE SMOOTH",
"458 564 LINE SMOOTH",
"494 564 OFFCURVE",
"503 553 OFFCURVE",
"503 513 CURVE SMOOTH",
"503 484 OFFCURVE",
"515 469 OFFCURVE",
"538 469 CURVE",
"539 470 LINE",
"563 470 OFFCURVE",
"575 487 OFFCURVE",
"575 520 CURVE SMOOTH",
"575 587 OFFCURVE",
"552 636 OFFCURVE",
"465 636 CURVE SMOOTH",
"324 636 LINE SMOOTH",
"144 636 OFFCURVE",
"71 600 OFFCURVE",
"71 455 CURVE SMOOTH",
"71 181 LINE SMOOTH",
"71 38 OFFCURVE",
"143 0 OFFCURVE",
"306 0 CURVE SMOOTH",
"465 0 LINE SMOOTH",
"552 0 OFFCURVE",
"575 46 OFFCURVE",
"575 115 CURVE SMOOTH",
"575 308 LINE",
"376 308 LINE SMOOTH",
"343 308 OFFCURVE",
"326 296 OFFCURVE",
"326 272 CURVE SMOOTH",
"326 248 OFFCURVE",
"343 236 OFFCURVE",
"376 236 CURVE SMOOTH",
"503 236 LINE",
"503 120 LINE SMOOTH"
);
}
);
width = 645;
}
);
leftKerningGroup = C;
note = G;
rightKerningGroup = G;
unicode = 0047;
},
{
glyphname = H;
lastChange = "2016-07-31 02:30:00 +0000";
layers = (
{
layerId = "AE6579ED-DC47-4075-A6A3-4B1A21099458";
paths = (
{
closed = 1;
nodes = (
"516 307 LINE",
"516 35 LINE SMOOTH",
"516 7 OFFCURVE",
"528 -7 OFFCURVE",
"552 -7 CURVE SMOOTH",
"576 -7 OFFCURVE",
"588 7 OFFCURVE",
"588 35 CURVE SMOOTH",
"588 600 LINE SMOOTH",
"588 629 OFFCURVE",
"576 643 OFFCURVE",
"552 643 CURVE SMOOTH",
"528 643 OFFCURVE",
"516 629 OFFCURVE",
"516 600 CURVE SMOOTH",
"516 379 LINE",
"156 379 LINE",
"156 600 LINE SMOOTH",
"156 629 OFFCURVE",
"143 643 OFFCURVE",
"118 643 CURVE SMOOTH",
"95 643 OFFCURVE",
"84 629 OFFCURVE",
"84 600 CURVE SMOOTH",
"84 35 LINE SMOOTH",
"84 7 OFFCURVE",
"96 -7 OFFCURVE",
"120 -7 CURVE SMOOTH",
"144 -7 OFFCURVE",
"156 7 OFFCURVE",
"156 35 CURVE SMOOTH",
"156 307 LINE"
);
}
);
width = 672;
}
);
leftKerningGroup = B;
note = H;
rightKerningGroup = H;
unicode = 0048;
},
{
glyphname = I;
lastChange = "2016-07-31 02:30:00 +0000";
layers = (
{
layerId = "AE6579ED-DC47-4075-A6A3-4B1A21099458";
paths = (
{
closed = 1;
nodes = (
"156 629 OFFCURVE",
"144 643 OFFCURVE",
"120 643 CURVE SMOOTH",
"96 643 OFFCURVE",
"84 629 OFFCURVE",
"84 602 CURVE SMOOTH",
"84 33 LINE SMOOTH",
"84 6 OFFCURVE",
"96 -7 OFFCURVE",
"120 -7 CURVE SMOOTH",
"144 -7 OFFCURVE",
"156 6 OFFCURVE",
"156 33 CURVE SMOOTH",
"156 602 LINE SMOOTH"
);
}
);
width = 240;
}
);
leftKerningGroup = B;
note = I;
rightKerningGroup = H;
unicode = 0049;
},
{
glyphname = J;
lastChange = "2016-07-31 02:30:00 +0000";
layers = (
{
layerId = "AE6579ED-DC47-4075-A6A3-4B1A21099458";
paths = (
{
closed = 1;
nodes = (
"106 207 OFFCURVE",
"92 225 OFFCURVE",
"71 225 CURVE SMOOTH",
"46 225 OFFCURVE",
"33 211 OFFCURVE",
"33 182 CURVE SMOOTH",
"33 103 OFFCURVE",
"54 51 OFFCURVE",
"96 26 CURVE SMOOTH",
"140 -1 OFFCURVE",
"189 -8 OFFCURVE",
"272 -8 CURVE SMOOTH",
"437 -8 OFFCURVE",
"510 30 OFFCURVE",
"510 173 CURVE SMOOTH",
"510 602 LINE SMOOTH",
"510 629 OFFCURVE",
"498 643 OFFCURVE",
"474 643 CURVE SMOOTH",
"455 643 OFFCURVE",
"438 631 OFFCURVE",
"438 603 CURVE SMOOTH",
"438 176 LINE SMOOTH",
"438 80 OFFCURVE",
"404 64 OFFCURVE",
"272 64 CURVE SMOOTH",
"139 64 OFFCURVE",
"106 79 OFFCURVE",
"106 182 CURVE SMOOTH"
);
}
);
width = 591;
}
);
leftKerningGroup = J;
note = J;
rightKerningGroup = J;
unicode = 004A;
},
{
glyphname = K;
lastChange = "2016-07-31 02:30:00 +0000";
layers = (
{
layerId = "AE6579ED-DC47-4075-A6A3-4B1A21099458";
paths = (
{
closed = 1;
nodes = (
"475 581 LINE",
"483 590 OFFCURVE",
"487 600 OFFCURVE",
"487 610 CURVE SMOOTH",
"487 629 OFFCURVE",
"470 643 OFFCURVE",
"451 643 CURVE SMOOTH",
"441 643 OFFCURVE",
"430 637 OFFCURVE",
"419 624 CURVE",
"156 346 LINE",
"156 600 LINE SMOOTH",
"156 631 OFFCURVE",
"139 643 OFFCURVE",
"120 643 CURVE SMOOTH",
"96 643 OFFCURVE",
"84 629 OFFCURVE",
"84 602 CURVE SMOOTH",
"84 33 LINE SMOOTH",
"84 6 OFFCURVE",
"96 -7 OFFCURVE",
"120 -7 CURVE SMOOTH",
"144 -7 OFFCURVE",
"156 7 OFFCURVE",
"156 35 CURVE SMOOTH",
"156 264 LINE",
"199 316 LINE",
"485 12 LINE",
"496 -1 OFFCURVE",
"506 -7 OFFCURVE",
"516 -7 CURVE SMOOTH",
"535 -7 OFFCURVE",
"554 9 OFFCURVE",
"554 27 CURVE SMOOTH",
"554 36 OFFCURVE",
"550 45 OFFCURVE",
"541 55 CURVE",
"251 354 LINE"
);
}
);
width = 560;
}
);
leftKerningGroup = B;
note = K;
rightKerningGroup = K;
unicode = 004B;
},
{
glyphname = L;
lastChange = "2016-07-31 02:30:00 +0000";
layers = (
{
layerId = "AE6579ED-DC47-4075-A6A3-4B1A21099458";
paths = (
{
closed = 1;
nodes = (
"518 0 OFFCURVE",
"532 12 OFFCURVE",
"532 36 CURVE SMOOTH",
"532 60 OFFCURVE",
"518 72 OFFCURVE",
"489 72 CURVE SMOOTH",
"156 72 LINE",
"156 603 LINE SMOOTH",
"156 631 OFFCURVE",
"139 643 OFFCURVE",
"120 643 CURVE SMOOTH",
"101 643 OFFCURVE",
"84 631 OFFCURVE",
"84 603 CURVE SMOOTH",
"84 43 LINE SMOOTH",
"84 14 OFFCURVE",
"95 0 OFFCURVE",
"118 0 CURVE SMOOTH",
"489 0 LINE SMOOTH"
);
}
);
width = 554;
}
);
leftKerningGroup = B;
note = L;
rightKerningGroup = L;
unicode = 004C;
},
{
glyphname = M;
lastChange = "2016-07-31 02:30:00 +0000";
layers = (
{
layerId = "AE6579ED-DC47-4075-A6A3-4B1A21099458";
paths = (
{
closed = 1;
nodes = (
"537 38 LINE SMOOTH",
"537 8 OFFCURVE",
"549 -7 OFFCURVE",
"573 -7 CURVE SMOOTH",
"597 -7 OFFCURVE",
"609 7 OFFCURVE",
"609 35 CURVE SMOOTH",
"609 600 LINE SMOOTH",
"609 629 OFFCURVE",
"597 643 OFFCURVE",
"574 643 CURVE SMOOTH",
"560 643 OFFCURVE",
"548 635 OFFCURVE",
"537 620 CURVE SMOOTH",
"346 354 LINE",
"156 620 LINE SMOOTH",
"145 635 OFFCURVE",
"133 643 OFFCURVE",
"118 643 CURVE SMOOTH",
"95 643 OFFCURVE",
"84 629 OFFCURVE",
"84 600 CURVE SMOOTH",
"84 35 LINE SMOOTH",
"84 7 OFFCURVE",
"96 -7 OFFCURVE",
"120 -7 CURVE SMOOTH",
"144 -7 OFFCURVE",
"156 8 OFFCURVE",
"156 38 CURVE SMOOTH",
"156 523 LINE",
"319 291 LINE",
"327 283 OFFCURVE",
"336 279 OFFCURVE",
"347 279 CURVE SMOOTH",
"357 279 OFFCURVE",
"366 283 OFFCURVE",
"374 291 CURVE",
"537 523 LINE"
);
}
);
width = 693;
}
);
leftKerningGroup = B;
note = M;
rightKerningGroup = H;
unicode = 004D;
},
{
glyphname = N;
lastChange = "2016-07-31 02:30:00 +0000";
layers = (
{
layerId = "AE6579ED-DC47-4075-A6A3-4B1A21099458";
paths = (
{
closed = 1;
nodes = (
"576 -7 OFFCURVE",
"588 7 OFFCURVE",
"588 35 CURVE SMOOTH",
"588 600 LINE SMOOTH",
"588 629 OFFCURVE",
"576 643 OFFCURVE",
"552 643 CURVE SMOOTH",
"528 643 OFFCURVE",
"516 628 OFFCURVE",
"516 597 CURVE SMOOTH",
"516 118 LINE",
"156 620 LINE SMOOTH",
"145 635 OFFCURVE",
"133 643 OFFCURVE",
"118 643 CURVE SMOOTH",
"95 643 OFFCURVE",
"84 629 OFFCURVE",
"84 600 CURVE SMOOTH",
"84 35 LINE SMOOTH",
"84 7 OFFCURVE",
"96 -7 OFFCURVE",
"120 -7 CURVE SMOOTH",
"144 -7 OFFCURVE",
"156 6 OFFCURVE",
"156 32 CURVE SMOOTH",
"156 517 LINE",
"525 0 LINE",
"528 -5 OFFCURVE",
"538 -7 OFFCURVE",
"553 -7 CURVE SMOOTH"
);
}
);
width = 672;
}
);
leftKerningGroup = B;
note = N;
rightKerningGroup = H;
unicode = 004E;
},
{
glyphname = O;
lastChange = "2016-07-31 02:30:00 +0000";
layers = (
{
layerId = "AE6579ED-DC47-4075-A6A3-4B1A21099458";
paths = (
{
closed = 1;
nodes = (
"568 554 OFFCURVE",
"467 645 OFFCURVE",
"316 645 CURVE SMOOTH",
"164 645 OFFCURVE",
"64 555 OFFCURVE",
"64 406 CURVE SMOOTH",
"64 230 LINE SMOOTH",
"64 81 OFFCURVE",
"164 -9 OFFCURVE",
"316 -9 CURVE SMOOTH",
"467 -9 OFFCURVE",
"568 82 OFFCURVE",
"568 230 CURVE SMOOTH",
"568 406 LINE SMOOTH"
);
},
{
closed = 1;
nodes = (
"481 499 OFFCURVE",
"496 457 OFFCURVE",
"496 403 CURVE SMOOTH",
"496 233 LINE SMOOTH",
"496 124 OFFCURVE",
"433 63 OFFCURVE",
"316 63 CURVE SMOOTH",
"199 63 OFFCURVE",
"136 124 OFFCURVE",
"136 233 CURVE SMOOTH",
"136 403 LINE SMOOTH",
"136 511 OFFCURVE",
"197 573 OFFCURVE",
"316 573 CURVE SMOOTH",
"375 573 OFFCURVE",
"420 558 OFFCURVE",
"451 529 CURVE SMOOTH"
);
}
);
width = 632;
}
);
leftKerningGroup = O;
note = O;
rightKerningGroup = O;
unicode = 004F;
},
{
glyphname = P;
lastChange = "2016-07-31 02:30:00 +0000";
layers = (
{
layerId = "AE6579ED-DC47-4075-A6A3-4B1A21099458";
paths = (
{
closed = 1;
nodes = (
"357 322 LINE SMOOTH",
"477 322 OFFCURVE",
"546 377 OFFCURVE",
"546 489 CURVE SMOOTH",
"546 601 OFFCURVE",
"469 641 OFFCURVE",
"309 641 CURVE SMOOTH",
"118 641 LINE SMOOTH",
"95 641 OFFCURVE",
"84 626 OFFCURVE",
"84 597 CURVE SMOOTH",
"84 33 LINE SMOOTH",
"84 6 OFFCURVE",
"96 -7 OFFCURVE",
"120 -7 CURVE SMOOTH",
"144 -7 OFFCURVE",
"156 6 OFFCURVE",
"156 33 CURVE SMOOTH",
"156 322 LINE"
);
},
{
closed = 1;
nodes = (
"156 569 LINE",
"309 569 LINE SMOOTH",
"437 569 OFFCURVE",
"474 554 OFFCURVE",
"474 482 CURVE SMOOTH",
"474 446 OFFCURVE",
"463 423 OFFCURVE",
"442 412 CURVE",
"421 400 OFFCURVE",
"376 394 OFFCURVE",
"309 394 CURVE SMOOTH",
"156 394 LINE"
);
}
);
width = 580;
}
);
leftKerningGroup = B;
note = P;
rightKerningGroup = P;
unicode = 0050;
},
{
glyphname = Q;
lastChange = "2016-07-31 02:30:00 +0000";
layers = (
{
layerId = "AE6579ED-DC47-4075-A6A3-4B1A21099458";
paths = (
{
closed = 1;
nodes = (
"481 499 OFFCURVE",
"496 457 OFFCURVE",
"496 403 CURVE SMOOTH",
"496 233 LINE SMOOTH",
"496 192 OFFCURVE",
"487 158 OFFCURVE",
"470 130 CURVE",
"424 172 LINE SMOOTH",
"412 183 OFFCURVE",
"400 189 OFFCURVE",
"388 189 CURVE SMOOTH",
"364 189 OFFCURVE",
"349 172 OFFCURVE",
"349 151 CURVE SMOOTH",
"349 140 OFFCURVE",
"355 131 OFFCURVE",
"367 124 CURVE",
"416 83 LINE",
"389 70 OFFCURVE",
"356 63 OFFCURVE",
"316 63 CURVE SMOOTH",
"199 63 OFFCURVE",
"136 124 OFFCURVE",
"136 233 CURVE SMOOTH",
"136 403 LINE SMOOTH",
"136 511 OFFCURVE",
"197 573 OFFCURVE",
"316 573 CURVE SMOOTH",
"375 573 OFFCURVE",
"420 558 OFFCURVE",
"451 529 CURVE SMOOTH"
);
},
{
closed = 1;
nodes = (
"377 -9 OFFCURVE",
"429 3 OFFCURVE",
"470 28 CURVE",
"499 -1 LINE",
"507 -8 OFFCURVE",
"517 -12 OFFCURVE",
"528 -12 CURVE SMOOTH",
"551 -12 OFFCURVE",
"565 5 OFFCURVE",
"565 24 CURVE SMOOTH",
"565 33 OFFCURVE",
"560 43 OFFCURVE",
"551 53 CURVE",
"523 79 LINE",
"553 118 OFFCURVE",
"568 169 OFFCURVE",
"568 230 CURVE SMOOTH",
"568 406 LINE SMOOTH",
"568 554 OFFCURVE",
"468 645 OFFCURVE",
"316 645 CURVE SMOOTH",
"164 645 OFFCURVE",
"64 555 OFFCURVE",
"64 406 CURVE SMOOTH",
"64 230 LINE SMOOTH",
"64 81 OFFCURVE",
"164 -9 OFFCURVE",
"316 -9 CURVE SMOOTH"
);
}
);
width = 632;
}
);
leftKerningGroup = O;
note = Q;
rightKerningGroup = O;
unicode = 0051;
},
{
glyphname = R;
lastChange = "2016-07-31 02:30:00 +0000";
layers = (
{
layerId = "AE6579ED-DC47-4075-A6A3-4B1A21099458";
paths = (
{
closed = 1;
nodes = (
"510 357 OFFCURVE",
"546 406 OFFCURVE",
"546 485 CURVE SMOOTH",
"546 608 OFFCURVE",
"469 646 OFFCURVE",
"306 646 CURVE SMOOTH",
"118 646 LINE SMOOTH",
"95 646 OFFCURVE",
"84 631 OFFCURVE",
"84 602 CURVE SMOOTH",
"84 33 LINE SMOOTH",
"84 6 OFFCURVE",
"96 -7 OFFCURVE",
"120 -7 CURVE SMOOTH",
"144 -7 OFFCURVE",
"156 6 OFFCURVE",
"156 33 CURVE SMOOTH",
"156 322 LINE",
"342 322 LINE",
"399 282 OFFCURVE",
"450 167 OFFCURVE",
"468 100 CURVE SMOOTH",
"477 67 OFFCURVE",
"482 45 OFFCURVE",
"483 34 CURVE SMOOTH",
"485 13 OFFCURVE",
"495 -7 OFFCURVE",
"516 -7 CURVE",
"537 -8 OFFCURVE",
"554 11 OFFCURVE",
"554 30 CURVE SMOOTH",
"554 39 OFFCURVE",
"550 62 OFFCURVE",
"541 98 CURVE SMOOTH",
"523 169 OFFCURVE",
"479 285 OFFCURVE",
"438 336 CURVE"
);
},
{
closed = 1;
nodes = (
"434 569 OFFCURVE",
"474 554 OFFCURVE",
"474 482 CURVE SMOOTH",
"474 410 OFFCURVE",
"437 394 OFFCURVE",
"306 394 CURVE SMOOTH",
"156 394 LINE",
"156 569 LINE",
"306 569 LINE SMOOTH"
);
}
);
width = 609;
}
);
leftKerningGroup = B;
note = R;
rightKerningGroup = R;
unicode = 0052;
},
{
glyphname = S;
lastChange = "2016-07-31 02:30:00 +0000";
layers = (
{
layerId = "AE6579ED-DC47-4075-A6A3-4B1A21099458";
paths = (
{
closed = 1;
nodes = (
"493 572 OFFCURVE",
"524 559 OFFCURVE",
"524 456 CURVE SMOOTH",
"524 431 OFFCURVE",
"539 413 OFFCURVE",
"559 413 CURVE SMOOTH",
"579 413 OFFCURVE",
"597 425 OFFCURVE",
"597 456 CURVE SMOOTH",
"597 534 OFFCURVE",
"575 585 OFFCURVE",
"531 610 CURVE SMOOTH",
"484 637 OFFCURVE",
"433 644 OFFCURVE",
"344 644 CURVE SMOOTH",
"268 644 LINE SMOOTH",
"109 644 OFFCURVE",
"61 563 OFFCURVE",
"61 478 CURVE SMOOTH",
"61 385 OFFCURVE",
"100 336 OFFCURVE",
"200 316 CURVE SMOOTH",
"473 265 LINE SMOOTH",
"494 261 OFFCURVE",
"525 222 OFFCURVE",
"525 168 CURVE SMOOTH",
"525 114 OFFCURVE",
"499 64 OFFCURVE",
"430 64 CURVE SMOOTH",
"312 64 LINE SMOOTH",
"167 64 OFFCURVE",
"134 79 OFFCURVE",
"134 182 CURVE SMOOTH",
"134 207 OFFCURVE",
"120 225 OFFCURVE",
"99 225 CURVE SMOOTH",
"74 225 OFFCURVE",
"61 211 OFFCURVE",
"61 182 CURVE SMOOTH",
"61 30 OFFCURVE",
"136 -8 OFFCURVE",
"312 -8 CURVE SMOOTH",
"408 -8 LINE SMOOTH",
"543 -8 OFFCURVE",
"597 68 OFFCURVE",
"597 158 CURVE SMOOTH",
"597 248 OFFCURVE",
"556 319 OFFCURVE",
"460 336 CURVE SMOOTH",
"185 385 LINE SMOOTH",
"158 390 OFFCURVE",
"133 430 OFFCURVE",
"133 476 CURVE SMOOTH",
"133 522 OFFCURVE",
"161 572 OFFCURVE",
"238 572 CURVE SMOOTH",
"344 572 LINE SMOOTH"
);
}
);
width = 658;
}
);
leftKerningGroup = S;
note = S;
rightKerningGroup = S;
unicode = 0053;
},
{
glyphname = T;
lastChange = "2016-07-31 02:30:00 +0000";
layers = (
{
layerId = "AE6579ED-DC47-4075-A6A3-4B1A21099458";
paths = (
{
closed = 1;
nodes = (
"38 636 OFFCURVE",
"26 619 OFFCURVE",
"26 600 CURVE SMOOTH",
"26 581 OFFCURVE",
"38 564 OFFCURVE",
"69 564 CURVE SMOOTH",
"219 564 LINE",
"219 33 LINE SMOOTH",
"219 4 OFFCURVE",
"238 -7 OFFCURVE",
"259 -7 CURVE SMOOTH",
"280 -7 OFFCURVE",
"302 5 OFFCURVE",
"302 33 CURVE SMOOTH",
"302 564 LINE",
"450 564 LINE SMOOTH",
"479 564 OFFCURVE",
"493 576 OFFCURVE",
"493 600 CURVE SMOOTH",
"493 624 OFFCURVE",
"479 636 OFFCURVE",
"450 636 CURVE SMOOTH",
"69 636 LINE SMOOTH"
);
}
);
width = 520;
}
);
leftKerningGroup = T;
note = T;
rightKerningGroup = T;
unicode = 0054;
},
{
glyphname = U;
lastChange = "2016-07-31 02:30:00 +0000";
layers = (
{
layerId = "AE6579ED-DC47-4075-A6A3-4B1A21099458";
paths = (
{
closed = 1;
nodes = (
"509 124 OFFCURVE",
"446 63 OFFCURVE",
"329 63 CURVE SMOOTH",
"212 63 OFFCURVE",
"149 124 OFFCURVE",
"149 233 CURVE SMOOTH",
"149 603 LINE SMOOTH",
"149 631 OFFCURVE",
"132 643 OFFCURVE",
"113 643 CURVE SMOOTH",
"89 643 OFFCURVE",
"77 629 OFFCURVE",
"77 602 CURVE SMOOTH",
"77 230 LINE SMOOTH",
"77 81 OFFCURVE",
"176 -9 OFFCURVE",
"328 -9 CURVE SMOOTH",
"480 -9 OFFCURVE",
"581 82 OFFCURVE",
"581 230 CURVE SMOOTH",
"581 602 LINE SMOOTH",
"581 629 OFFCURVE",
"569 643 OFFCURVE",
"545 643 CURVE SMOOTH",
"521 643 OFFCURVE",
"509 630 OFFCURVE",
"509 603 CURVE SMOOTH",
"509 233 LINE SMOOTH"
);
}
);
width = 658;
}
);
leftKerningGroup = U;
note = U;
rightKerningGroup = U;
unicode = 0055;
},
{
glyphname = V;
lastChange = "2016-07-31 02:30:00 +0000";
layers = (
{
layerId = "AE6579ED-DC47-4075-A6A3-4B1A21099458";
paths = (
{
closed = 1;
nodes = (
"97 624 LINE SMOOTH",
"90 643 OFFCURVE",
"77 652 OFFCURVE",
"60 652 CURVE SMOOTH",
"45 652 OFFCURVE",
"24 641 OFFCURVE",
"24 622 CURVE SMOOTH",
"24 613 OFFCURVE",
"25 605 OFFCURVE",
"27 599 CURVE",
"264 0 LINE",
"346 0 LINE",
"583 599 LINE",
"585 605 OFFCURVE",
"586 613 OFFCURVE",
"586 622 CURVE SMOOTH",
"586 641 OFFCURVE",
"565 652 OFFCURVE",
"550 652 CURVE SMOOTH",
"533 652 OFFCURVE",
"521 643 OFFCURVE",
"513 624 CURVE SMOOTH",
"306 104 LINE"
);
}
);
width = 610;
}
);
leftKerningGroup = V;
note = V;
rightKerningGroup = V;
unicode = 0056;
},
{
glyphname = W;
lastChange = "2016-07-31 02:30:00 +0000";
layers = (
{
layerId = "AE6579ED-DC47-4075-A6A3-4B1A21099458";
paths = (
{
closed = 1;
nodes = (
"512 641 OFFCURVE",
"498 652 OFFCURVE",
"478 652 CURVE SMOOTH",
"458 652 OFFCURVE",
"444 641 OFFCURVE",
"436 620 CURVE",
"263 96 LINE",
"99 625 LINE SMOOTH",
"93 644 OFFCURVE",
"79 653 OFFCURVE",
"58 653 CURVE SMOOTH",
"37 653 OFFCURVE",
"27 643 OFFCURVE",
"27 624 CURVE SMOOTH",
"27 619 OFFCURVE",
"28 612 OFFCURVE",
"31 604 CURVE",
"226 0 LINE",
"299 0 LINE",
"477 531 LINE",
"656 0 LINE",
"730 0 LINE",
"924 600 LINE",
"927 608 OFFCURVE",
"928 614 OFFCURVE",
"928 618 CURVE SMOOTH",
"928 639 OFFCURVE",
"917 649 OFFCURVE",
"896 649 CURVE SMOOTH",
"875 649 OFFCURVE",
"861 640 OFFCURVE",
"856 621 CURVE",
"694 96 LINE",
"520 619 LINE SMOOTH"
);
}
);
width = 955;
}
);
leftKerningGroup = W;
note = W;
rightKerningGroup = W;
unicode = 0057;
},
{
glyphname = X;
lastChange = "2016-07-31 02:30:00 +0000";
layers = (
{
layerId = "AE6579ED-DC47-4075-A6A3-4B1A21099458";
paths = (
{
closed = 1;
nodes = (
"108 621 LINE",
"99 636 OFFCURVE",
"88 644 OFFCURVE",
"76 644 CURVE SMOOTH",
"75 644 OFFCURVE",
"74 644 OFFCURVE",
"74 644 CURVE SMOOTH",
"53 644 OFFCURVE",
"39 627 OFFCURVE",
"39 611 CURVE SMOOTH",
"39 600 OFFCURVE",
"42 590 OFFCURVE",
"49 582 CURVE",
"254 317 LINE",
"49 53 LINE SMOOTH",
"42 44 OFFCURVE",
"39 35 OFFCURVE",
"39 26 CURVE SMOOTH",
"39 6 OFFCURVE",
"56 -7 OFFCURVE",
"77 -7 CURVE SMOOTH",
"88 -7 OFFCURVE",
"98 0 OFFCURVE",
"108 13 CURVE SMOOTH",
"302 270 LINE",
"497 13 LINE",
"508 0 OFFCURVE",
"518 -7 OFFCURVE",
"528 -7 CURVE SMOOTH",
"548 -7 OFFCURVE",
"566 5 OFFCURVE",
"566 26 CURVE SMOOTH",
"566 36 OFFCURVE",
"563 45 OFFCURVE",
"556 53 CURVE",
"351 317 LINE",
"556 582 LINE SMOOTH",
"563 591 OFFCURVE",
"566 600 OFFCURVE",
"566 611 CURVE SMOOTH",
"566 631 OFFCURVE",
"547 643 OFFCURVE",
"528 643 CURVE SMOOTH",
"518 643 OFFCURVE",
"508 636 OFFCURVE",
"497 621 CURVE SMOOTH",
"302 365 LINE"
);
}
);
width = 605;
}
);
leftKerningGroup = X;
note = X;
rightKerningGroup = X;
unicode = 0058;
},
{
glyphname = Y;
lastChange = "2016-07-31 02:30:00 +0000";
layers = (
{
layerId = "AE6579ED-DC47-4075-A6A3-4B1A21099458";
paths = (
{
closed = 1;
nodes = (
"244 6 OFFCURVE",
"257 -7 OFFCURVE",
"282 -7 CURVE SMOOTH",
"307 -7 OFFCURVE",
"320 6 OFFCURVE",
"320 32 CURVE SMOOTH",
"320 306 LINE",
"534 583 LINE",
"541 594 OFFCURVE",
"544 604 OFFCURVE",
"544 612 CURVE SMOOTH",
"544 628 OFFCURVE",
"526 643 OFFCURVE",
"507 643 CURVE SMOOTH",
"498 643 OFFCURVE",
"487 636 OFFCURVE",
"475 621 CURVE SMOOTH",
"281 365 LINE",
"86 621 LINE SMOOTH",
"75 636 OFFCURVE",
"65 643 OFFCURVE",
"55 643 CURVE SMOOTH",
"35 643 OFFCURVE",
"18 628 OFFCURVE",
"18 612 CURVE SMOOTH",
"18 604 OFFCURVE",
"21 594 OFFCURVE",
"28 583 CURVE",
"243 306 LINE",
"243 32 LINE"
);
}
);
width = 563;
}
);
leftKerningGroup = Y;
note = Y;
rightKerningGroup = Y;
unicode = 0059;
},
{
glyphname = Z;
lastChange = "2016-07-31 02:30:00 +0000";
layers = (
{
layerId = "AE6579ED-DC47-4075-A6A3-4B1A21099458";
paths = (
{
closed = 1;
nodes = (
"538 0 OFFCURVE",
"553 12 OFFCURVE",
"553 36 CURVE SMOOTH",
"553 60 OFFCURVE",
"538 72 OFFCURVE",
"508 72 CURVE SMOOTH",
"144 72 LINE",
"553 569 LINE",
"553 636 LINE",
"95 636 LINE SMOOTH",
"64 636 OFFCURVE",
"49 624 OFFCURVE",
"49 600 CURVE SMOOTH",
"49 576 OFFCURVE",
"64 564 OFFCURVE",
"95 564 CURVE SMOOTH",
"461 564 LINE",
"50 64 LINE",
"50 0 LINE",
"508 0 LINE SMOOTH"
);
}
);
width = 602;
}
);
leftKerningGroup = Z;
note = Z;
rightKerningGroup = Z;
unicode = 005A;
},
{
glyphname = bracketleft;
lastChange = "2016-07-31 02:30:00 +0000";
layers = (
{
layerId = "AE6579ED-DC47-4075-A6A3-4B1A21099458";
paths = (
{
closed = 1;
nodes = (
"231 621 LINE",
"231 693 LINE",
"81 693 LINE",
"81 -57 LINE",
"231 -57 LINE",
"231 15 LINE",
"153 15 LINE",
"153 621 LINE"
);
}
);
width = 279;
}
);
note = bracketleft;
rightKerningGroup = bracketleft;
unicode = 005B;
},
{
glyphname = backslash;
lastChange = "2016-07-31 02:30:00 +0000";
layers = (
{
layerId = "AE6579ED-DC47-4075-A6A3-4B1A21099458";
paths = (
{
closed = 1;
nodes = (
"270 -13 OFFCURVE",
"282 -23 OFFCURVE",
"298 -23 CURVE SMOOTH",
"313 -23 OFFCURVE",
"334 -13 OFFCURVE",
"334 8 CURVE SMOOTH",
"334 19 OFFCURVE",
"330 34 OFFCURVE",
"323 53 CURVE SMOOTH",
"113 631 LINE",
"104 650 OFFCURVE",
"93 660 OFFCURVE",
"78 660 CURVE SMOOTH",
"62 660 OFFCURVE",
"41 649 OFFCURVE",
"41 628 CURVE SMOOTH",
"41 617 OFFCURVE",
"44 605 OFFCURVE",
"50 590 CURVE SMOOTH",
"262 6 LINE"
);
}
);
width = 375;
}
);
leftKerningGroup = backslash;
note = backslash;
rightKerningGroup = backslash;
unicode = 005C;
},
{
glyphname = bracketright;
lastChange = "2016-07-31 02:30:00 +0000";
layers = (
{
layerId = "AE6579ED-DC47-4075-A6A3-4B1A21099458";
paths = (
{
closed = 1;
nodes = (
"48 -57 LINE",
"198 -57 LINE",
"198 693 LINE",
"48 693 LINE",
"48 621 LINE",
"126 621 LINE",
"126 15 LINE",
"48 15 LINE"
);
}
);
width = 279;
}
);
leftKerningGroup = bracketright;
note = bracketright;
rightKerningGroup = numbersign;
unicode = 005D;
},
{
glyphname = asciicircum;
lastChange = "2016-07-31 02:30:00 +0000";
layers = (
{
layerId = "AE6579ED-DC47-4075-A6A3-4B1A21099458";
paths = (
{
closed = 1;
nodes = (
"120 350 OFFCURVE",
"133 359 OFFCURVE",
"141 377 CURVE SMOOTH",
"222 557 LINE",
"301 377 LINE",
"311 359 OFFCURVE",
"323 350 OFFCURVE",
"336 350 CURVE SMOOTH",
"363 350 OFFCURVE",
"373 364 OFFCURVE",
"373 380 CURVE SMOOTH",
"373 388 OFFCURVE",
"372 394 OFFCURVE",
"371 399 CURVE",
"258 651 LINE",
"186 651 LINE",
"72 399 LINE",
"71 395 OFFCURVE",
"70 389 OFFCURVE",
"70 381 CURVE SMOOTH",
"70 365 OFFCURVE",
"86 350 OFFCURVE",
"103 350 CURVE SMOOTH"
);
}
);
width = 443;
}
);
note = asciicircum;
rightKerningGroup = numbersign;
unicode = 005E;
},
{
glyphname = underscore;
lastChange = "2016-07-31 02:30:00 +0000";
layers = (
{
layerId = "AE6579ED-DC47-4075-A6A3-4B1A21099458";
paths = (
{
closed = 1;
nodes = (
"-1 15 OFFCURVE",
"-15 3 OFFCURVE",
"-15 -21 CURVE SMOOTH",
"-15 -45 OFFCURVE",
"-1 -57 OFFCURVE",
"28 -57 CURVE SMOOTH",
"447 -57 LINE SMOOTH",
"476 -57 OFFCURVE",
"490 -45 OFFCURVE",
"490 -21 CURVE SMOOTH",
"490 3 OFFCURVE",
"476 15 OFFCURVE",
"447 15 CURVE SMOOTH",
"28 15 LINE SMOOTH"
);
}
);
width = 475;
}
);
note = underscore;
rightKerningGroup = numbersign;
unicode = 005F;
},
{
glyphname = grave;
lastChange = "2016-07-31 02:30:00 +0000";
layers = (
{
layerId = "AE6579ED-DC47-4075-A6A3-4B1A21099458";
paths = (
{
closed = 1;
nodes = (
"76 687 OFFCURVE",
"65 693 OFFCURVE",
"55 693 CURVE SMOOTH",
"35 693 OFFCURVE",
"19 678 OFFCURVE",
"19 657 CURVE SMOOTH",
"19 646 OFFCURVE",
"23 637 OFFCURVE",
"30 629 CURVE SMOOTH",
"126 514 LINE",
"138 501 OFFCURVE",
"149 495 OFFCURVE",
"158 495 CURVE SMOOTH",
"177 495 OFFCURVE",
"194 511 OFFCURVE",
"194 530 CURVE SMOOTH",
"194 539 OFFCURVE",
"190 549 OFFCURVE",
"183 559 CURVE",
"87 674 LINE SMOOTH"
);
}
);
width = 212;
}
);
note = grave;
rightKerningGroup = numbersign;
unicode = 0060;
},
{
glyphname = a;
lastChange = "2016-07-31 02:30:00 +0000";
layers = (
{
layerId = "AE6579ED-DC47-4075-A6A3-4B1A21099458";
paths = (
{
closed = 1;
nodes = (
"138 305 OFFCURVE",
"61 265 OFFCURVE",
"61 129 CURVE SMOOTH",
"61 50 OFFCURVE",
"110 0 OFFCURVE",
"178 0 CURVE SMOOTH",
"271 0 LINE SMOOTH",
"351 0 OFFCURVE",
"411 17 OFFCURVE",
"451 50 CURVE",
"451 38 LINE SMOOTH",
"451 8 OFFCURVE",
"463 -7 OFFCURVE",
"487 -7 CURVE SMOOTH",
"511 -7 OFFCURVE",
"523 7 OFFCURVE",
"523 35 CURVE SMOOTH",
"523 331 LINE SMOOTH",
"523 424 OFFCURVE",
"498 461 OFFCURVE",
"413 461 CURVE SMOOTH",
"258 461 LINE SMOOTH",
"130 461 OFFCURVE",
"61 434 OFFCURVE",
"61 350 CURVE SMOOTH",
"61 320 OFFCURVE",
"73 305 OFFCURVE",
"97 305 CURVE SMOOTH",
"121 305 OFFCURVE",
"133 320 OFFCURVE",
"133 350 CURVE SMOOTH",
"133 365 OFFCURVE",
"142 375 OFFCURVE",
"160 381 CURVE",
"178 386 OFFCURVE",
"213 389 OFFCURVE",
"265 389 CURVE SMOOTH",
"406 389 LINE SMOOTH",
"442 389 OFFCURVE",
"451 380 OFFCURVE",
"451 347 CURVE SMOOTH",
"451 305 LINE",
"314 305 LINE SMOOTH"
);
},
{
closed = 1;
nodes = (
"451 232 OFFCURVE",
"451 230 OFFCURVE",
"451 229 CURVE SMOOTH",
"451 153 OFFCURVE",
"430 72 OFFCURVE",
"271 72 CURVE SMOOTH",
"178 72 LINE SMOOTH",
"158 72 OFFCURVE",
"133 96 OFFCURVE",
"133 124 CURVE SMOOTH",
"133 220 OFFCURVE",
"165 233 OFFCURVE",
"314 233 CURVE SMOOTH",
"451 233 LINE"
);
}
);
width = 594;
}
);
leftKerningGroup = a;
note = a;
rightKerningGroup = a;
unicode = 0061;
},
{
glyphname = b;
lastChange = "2016-07-31 02:30:00 +0000";
layers = (
{
layerId = "AE6579ED-DC47-4075-A6A3-4B1A21099458";
paths = (
{
closed = 1;
nodes = (
"147 628 OFFCURVE",
"134 643 OFFCURVE",
"109 643 CURVE SMOOTH",
"86 643 OFFCURVE",
"75 628 OFFCURVE",
"75 597 CURVE SMOOTH",
"75 35 LINE SMOOTH",
"75 7 OFFCURVE",
"87 -7 OFFCURVE",
"111 -7 CURVE SMOOTH",
"135 -7 OFFCURVE",
"147 8 OFFCURVE",
"147 38 CURVE SMOOTH",
"147 50 LINE",
"188 17 OFFCURVE",
"249 0 OFFCURVE",
"328 0 CURVE SMOOTH",
"357 0 LINE SMOOTH",
"536 0 OFFCURVE",
"609 38 OFFCURVE",
"609 178 CURVE SMOOTH",
"609 283 LINE SMOOTH",
"609 423 OFFCURVE",
"536 461 OFFCURVE",
"357 461 CURVE SMOOTH",
"328 461 LINE SMOOTH",
"249 461 OFFCURVE",
"188 444 OFFCURVE",
"147 411 CURVE",
"147 597 LINE SMOOTH"
);
},
{
closed = 1;
nodes = (
"505 389 OFFCURVE",
"537 376 OFFCURVE",
"537 280 CURVE SMOOTH",
"537 181 LINE SMOOTH",
"537 85 OFFCURVE",
"505 72 OFFCURVE",
"357 72 CURVE SMOOTH",
"328 72 LINE SMOOTH",
"193 72 OFFCURVE",
"147 133 OFFCURVE",
"147 228 CURVE SMOOTH",
"147 232 LINE SMOOTH",
"147 328 OFFCURVE",
"192 389 OFFCURVE",
"328 389 CURVE SMOOTH",
"357 389 LINE SMOOTH"
);
}
);
width = 670;
}
);
leftKerningGroup = b;
note = b;
rightKerningGroup = b;
unicode = 0062;
},
{
glyphname = c;
lastChange = "2016-07-31 02:30:00 +0000";
layers = (
{
layerId = "AE6579ED-DC47-4075-A6A3-4B1A21099458";
paths = (
{
closed = 1;
nodes = (
"542 0 OFFCURVE",
"565 49 OFFCURVE",
"565 116 CURVE SMOOTH",
"565 149 OFFCURVE",
"553 166 OFFCURVE",
"529 167 CURVE",
"510 167 OFFCURVE",
"493 155 OFFCURVE",
"493 120 CURVE SMOOTH",
"493 85 OFFCURVE",
"484 72 OFFCURVE",
"448 72 CURVE SMOOTH",
"314 72 LINE SMOOTH",
"165 72 OFFCURVE",
"133 85 OFFCURVE",
"133 181 CURVE SMOOTH",
"133 280 LINE SMOOTH",
"133 376 OFFCURVE",
"165 389 OFFCURVE",
"314 389 CURVE SMOOTH",
"448 389 LINE SMOOTH",
"484 389 OFFCURVE",
"493 375 OFFCURVE",
"493 340 CURVE SMOOTH",
"493 305 OFFCURVE",
"510 294 OFFCURVE",
"529 294 CURVE SMOOTH",
"553 294 OFFCURVE",
"565 311 OFFCURVE",
"565 344 CURVE SMOOTH",
"565 411 OFFCURVE",
"542 461 OFFCURVE",
"455 461 CURVE SMOOTH",
"314 461 LINE SMOOTH",
"134 461 OFFCURVE",
"61 423 OFFCURVE",
"61 283 CURVE SMOOTH",
"61 178 LINE SMOOTH",
"61 38 OFFCURVE",
"134 0 OFFCURVE",
"314 0 CURVE SMOOTH",
"455 0 LINE SMOOTH"
);
}
);
width = 624;
}
);
leftKerningGroup = c;
note = c;
rightKerningGroup = c;
unicode = 0063;
},
{
glyphname = d;
lastChange = "2016-07-31 02:30:00 +0000";
layers = (
{
layerId = "AE6579ED-DC47-4075-A6A3-4B1A21099458";
paths = (
{
closed = 1;
nodes = (
"133 376 OFFCURVE",
"165 389 OFFCURVE",
"305 389 CURVE SMOOTH",
"523 389 LINE",
"523 229 LINE SMOOTH",
"523 133 OFFCURVE",
"478 72 OFFCURVE",
"342 72 CURVE SMOOTH",
"313 72 LINE SMOOTH",
"165 72 OFFCURVE",
"133 85 OFFCURVE",
"133 181 CURVE SMOOTH",
"133 280 LINE SMOOTH"
);
},
{
closed = 1;
nodes = (
"61 38 OFFCURVE",
"134 0 OFFCURVE",
"313 0 CURVE SMOOTH",
"342 0 LINE SMOOTH",
"421 0 OFFCURVE",
"482 17 OFFCURVE",
"523 50 CURVE",
"523 38 LINE SMOOTH",
"523 8 OFFCURVE",
"535 -7 OFFCURVE",
"559 -7 CURVE SMOOTH",
"583 -7 OFFCURVE",
"595 7 OFFCURVE",
"595 35 CURVE SMOOTH",
"595 598 LINE SMOOTH",
"595 628 OFFCURVE",
"584 643 OFFCURVE",
"561 643 CURVE SMOOTH",
"536 643 OFFCURVE",
"523 628 OFFCURVE",
"523 598 CURVE SMOOTH",
"523 461 LINE",
"305 461 LINE SMOOTH",
"134 461 OFFCURVE",
"61 423 OFFCURVE",
"61 283 CURVE SMOOTH",
"61 178 LINE SMOOTH"
);
}
);
width = 670;
}
);
leftKerningGroup = c;
note = d;
rightKerningGroup = d;
unicode = 0064;
},
{
glyphname = e;
lastChange = "2016-07-31 02:30:00 +0000";
layers = (
{
layerId = "AE6579ED-DC47-4075-A6A3-4B1A21099458";
paths = (
{
closed = 1;
nodes = (
"595 423 OFFCURVE",
"522 461 OFFCURVE",
"343 461 CURVE SMOOTH",
"314 461 LINE SMOOTH",
"134 461 OFFCURVE",
"61 423 OFFCURVE",
"61 283 CURVE SMOOTH",
"61 178 LINE SMOOTH",
"61 38 OFFCURVE",
"134 0 OFFCURVE",
"314 0 CURVE SMOOTH",
"475 0 LINE SMOOTH",
"562 0 OFFCURVE",
"585 49 OFFCURVE",
"585 116 CURVE SMOOTH",
"585 149 OFFCURVE",
"573 166 OFFCURVE",
"549 167 CURVE",
"530 167 OFFCURVE",
"513 155 OFFCURVE",
"513 120 CURVE SMOOTH",
"513 85 OFFCURVE",
"504 72 OFFCURVE",
"468 72 CURVE SMOOTH",
"314 72 LINE SMOOTH",
"165 72 OFFCURVE",
"133 85 OFFCURVE",
"133 181 CURVE SMOOTH",
"133 235 LINE",
"595 235 LINE",
"595 283 LINE SMOOTH"
);
},
{
closed = 1;
nodes = (
"412 389 OFFCURVE",
"459 384 OFFCURVE",
"483 375 CURVE",
"507 365 OFFCURVE",
"520 342 OFFCURVE",
"523 307 CURVE",
"133 307 LINE",
"135 342 OFFCURVE",
"148 364 OFFCURVE",
"171 374 CURVE SMOOTH",
"194 384 OFFCURVE",
"242 389 OFFCURVE",
"314 389 CURVE SMOOTH",
"343 389 LINE SMOOTH"
);
}
);
width = 651;
}
);
leftKerningGroup = c;
note = e;
rightKerningGroup = e;
unicode = 0065;
},
{
glyphname = f;
lastChange = "2016-07-31 02:30:00 +0000";
layers = (
{
layerId = "AE6579ED-DC47-4075-A6A3-4B1A21099458";
paths = (
{
closed = 1;
nodes = (
"334 564 OFFCURVE",
"349 575 OFFCURVE",
"349 598 CURVE SMOOTH",
"349 623 OFFCURVE",
"334 636 OFFCURVE",
"303 636 CURVE SMOOTH",
"158 636 OFFCURVE",
"85 599 OFFCURVE",
"80 460 CURVE",
"59 457 OFFCURVE",
"49 447 OFFCURVE",
"49 428 CURVE SMOOTH",
"49 409 OFFCURVE",
"59 398 OFFCURVE",
"80 394 CURVE",
"80 36 LINE SMOOTH",
"80 7 OFFCURVE",
"91 -7 OFFCURVE",
"114 -7 CURVE SMOOTH",
"139 -7 OFFCURVE",
"152 7 OFFCURVE",
"152 36 CURVE SMOOTH",
"152 389 LINE",
"280 389 LINE SMOOTH",
"311 389 OFFCURVE",
"326 400 OFFCURVE",
"326 423 CURVE SMOOTH",
"326 448 OFFCURVE",
"311 461 OFFCURVE",
"280 461 CURVE SMOOTH",
"152 461 LINE",
"155 550 OFFCURVE",
"190 564 OFFCURVE",
"303 564 CURVE SMOOTH"
);
}
);
width = 345;
}
);
leftKerningGroup = f;
note = f;
rightKerningGroup = f;
unicode = 0066;
},
{
glyphname = g;
lastChange = "2016-07-31 02:30:00 +0000";
layers = (
{
layerId = "AE6579ED-DC47-4075-A6A3-4B1A21099458";
paths = (
{
closed = 1;
nodes = (
"595 454 OFFCURVE",
"583 468 OFFCURVE",
"559 468 CURVE SMOOTH",
"535 468 OFFCURVE",
"523 453 OFFCURVE",
"523 423 CURVE SMOOTH",
"523 411 LINE",
"482 444 OFFCURVE",
"421 461 OFFCURVE",
"342 461 CURVE SMOOTH",
"313 461 LINE SMOOTH",
"134 461 OFFCURVE",
"61 423 OFFCURVE",
"61 283 CURVE SMOOTH",
"61 178 LINE SMOOTH",
"61 38 OFFCURVE",
"135 0 OFFCURVE",
"311 0 CURVE SMOOTH",
"523 0 LINE",
"523 -93 LINE SMOOTH",
"523 -126 OFFCURVE",
"518 -133 OFFCURVE",
"487 -133 CURVE SMOOTH",
"178 -133 LINE SMOOTH",
"142 -133 OFFCURVE",
"133 -121 OFFCURVE",
"133 -81 CURVE SMOOTH",
"133 -52 OFFCURVE",
"121 -38 OFFCURVE",
"97 -38 CURVE SMOOTH",
"73 -38 OFFCURVE",
"61 -55 OFFCURVE",
"61 -88 CURVE SMOOTH",
"61 -155 OFFCURVE",
"84 -205 OFFCURVE",
"171 -205 CURVE SMOOTH",
"494 -205 LINE SMOOTH",
"571 -205 OFFCURVE",
"595 -169 OFFCURVE",
"595 -77 CURVE SMOOTH",
"595 426 LINE SMOOTH"
);
},
{
closed = 1;
nodes = (
"166 72 OFFCURVE",
"133 85 OFFCURVE",
"133 181 CURVE SMOOTH",
"133 280 LINE SMOOTH",
"133 376 OFFCURVE",
"165 389 OFFCURVE",
"313 389 CURVE SMOOTH",
"342 389 LINE SMOOTH",
"477 389 OFFCURVE",
"523 328 OFFCURVE",
"523 233 CURVE SMOOTH",
"523 72 LINE",
"311 72 LINE SMOOTH"
);
}
);
width = 670;
}
);
leftKerningGroup = c;
note = g;
rightKerningGroup = g;
unicode = 0067;
},
{
glyphname = h;
lastChange = "2016-07-31 02:30:00 +0000";
layers = (
{
layerId = "AE6579ED-DC47-4075-A6A3-4B1A21099458";
paths = (
{
closed = 1;
nodes = (
"505 389 OFFCURVE",
"537 376 OFFCURVE",
"537 280 CURVE SMOOTH",
"537 35 LINE SMOOTH",
"537 7 OFFCURVE",
"549 -7 OFFCURVE",
"573 -7 CURVE SMOOTH",
"597 -7 OFFCURVE",
"609 7 OFFCURVE",
"609 35 CURVE SMOOTH",
"609 283 LINE SMOOTH",
"609 423 OFFCURVE",
"536 461 OFFCURVE",
"357 461 CURVE SMOOTH",
"328 461 LINE SMOOTH",
"249 461 OFFCURVE",
"188 444 OFFCURVE",
"147 411 CURVE",
"147 597 LINE SMOOTH",
"147 628 OFFCURVE",
"134 643 OFFCURVE",
"109 643 CURVE SMOOTH",
"86 643 OFFCURVE",
"75 628 OFFCURVE",
"75 597 CURVE SMOOTH",
"75 35 LINE SMOOTH",
"75 7 OFFCURVE",
"87 -7 OFFCURVE",
"111 -7 CURVE SMOOTH",
"135 -7 OFFCURVE",
"147 7 OFFCURVE",
"147 35 CURVE SMOOTH",
"147 229 LINE SMOOTH",
"147 326 OFFCURVE",
"193 389 OFFCURVE",
"328 389 CURVE SMOOTH",
"357 389 LINE SMOOTH"
);
}
);
width = 679;
}
);
leftKerningGroup = h;
note = h;
rightKerningGroup = h;
unicode = 0068;
},
{
glyphname = i;
lastChange = "2016-07-31 02:30:00 +0000";
layers = (
{
layerId = "AE6579ED-DC47-4075-A6A3-4B1A21099458";
paths = (
{
closed = 1;
nodes = (
"73 -11 OFFCURVE",
"89 -22 OFFCURVE",
"108 -22 CURVE SMOOTH",
"133 -22 OFFCURVE",
"145 -8 OFFCURVE",
"145 20 CURVE SMOOTH",
"145 440 LINE SMOOTH",
"145 471 OFFCURVE",
"128 483 OFFCURVE",
"109 483 CURVE SMOOTH",
"90 483 OFFCURVE",
"73 471 OFFCURVE",
"73 440 CURVE SMOOTH",
"73 20 LINE SMOOTH"
);
},
{
closed = 1;
nodes = (
"163 574 OFFCURVE",
"170 586 OFFCURVE",
"170 601 CURVE SMOOTH",
"170 630 OFFCURVE",
"136 652 OFFCURVE",
"108 652 CURVE SMOOTH",
"80 652 OFFCURVE",
"48 630 OFFCURVE",
"48 601 CURVE SMOOTH",
"48 572 OFFCURVE",
"82 550 OFFCURVE",
"109 550 CURVE SMOOTH",
"122 550 OFFCURVE",
"136 555 OFFCURVE",
"150 565 CURVE SMOOTH"
);
}
);
width = 218;
}
);
leftKerningGroup = i;
note = i;
rightKerningGroup = numbersign;
unicode = 0069;
},
{
glyphname = j;
lastChange = "2016-07-31 02:30:00 +0000";
layers = (
{
layerId = "AE6579ED-DC47-4075-A6A3-4B1A21099458";
paths = (
{
closed = 1;
nodes = (
"165 574 OFFCURVE",
"172 586 OFFCURVE",
"172 601 CURVE SMOOTH",
"172 630 OFFCURVE",
"138 652 OFFCURVE",
"110 652 CURVE SMOOTH",
"82 652 OFFCURVE",
"50 630 OFFCURVE",
"50 601 CURVE SMOOTH",
"50 572 OFFCURVE",
"84 550 OFFCURVE",
"111 550 CURVE SMOOTH",
"124 550 OFFCURVE",
"138 555 OFFCURVE",
"152 565 CURVE SMOOTH"
);
},
{
closed = 1;
nodes = (
"147 453 OFFCURVE",
"135 468 OFFCURVE",
"111 468 CURVE SMOOTH",
"87 468 OFFCURVE",
"75 453 OFFCURVE",
"75 422 CURVE SMOOTH",
"75 0 LINE SMOOTH",
"75 -89 OFFCURVE",
"44 -103 OFFCURVE",
"-76 -103 CURVE SMOOTH",
"-107 -103 OFFCURVE",
"-122 -115 OFFCURVE",
"-122 -139 CURVE SMOOTH",
"-122 -163 OFFCURVE",
"-107 -175 OFFCURVE",
"-76 -175 CURVE SMOOTH",
"76 -175 OFFCURVE",
"147 -140 OFFCURVE",
"147 0 CURVE SMOOTH",
"147 422 LINE SMOOTH"
);
}
);
width = 222;
}
);
leftKerningGroup = i;
note = j;
rightKerningGroup = numbersign;
unicode = 006A;
},
{
glyphname = k;
lastChange = "2016-07-31 02:30:00 +0000";
layers = (
{
layerId = "AE6579ED-DC47-4075-A6A3-4B1A21099458";
paths = (
{
closed = 1;
nodes = (
"394 403 LINE",
"405 411 OFFCURVE",
"410 420 OFFCURVE",
"410 431 CURVE SMOOTH",
"410 451 OFFCURVE",
"393 466 OFFCURVE",
"374 466 CURVE SMOOTH",
"364 466 OFFCURVE",
"354 461 OFFCURVE",
"343 452 CURVE SMOOTH",
"147 282 LINE",
"147 600 LINE SMOOTH",
"147 631 OFFCURVE",
"130 643 OFFCURVE",
"111 643 CURVE SMOOTH",
"92 643 OFFCURVE",
"75 631 OFFCURVE",
"75 600 CURVE SMOOTH",
"75 32 LINE SMOOTH",
"75 6 OFFCURVE",
"87 -7 OFFCURVE",
"111 -7 CURVE SMOOTH",
"135 -7 OFFCURVE",
"147 7 OFFCURVE",
"147 35 CURVE SMOOTH",
"147 212 LINE",
"166 231 LINE",
"417 8 LINE",
"428 -1 OFFCURVE",
"438 -6 OFFCURVE",
"448 -6 CURVE SMOOTH",
"467 -6 OFFCURVE",
"482 10 OFFCURVE",
"482 31 CURVE SMOOTH",
"482 42 OFFCURVE",
"477 50 OFFCURVE",
"468 57 CURVE SMOOTH",
"219 263 LINE"
);
}
);
width = 496;
}
);
leftKerningGroup = h;
note = k;
rightKerningGroup = k;
unicode = 006B;
},
{
glyphname = l;
lastChange = "2016-07-31 02:30:00 +0000";
layers = (
{
layerId = "AE6579ED-DC47-4075-A6A3-4B1A21099458";
paths = (
{
closed = 1;
nodes = (
"238 0 OFFCURVE",
"253 12 OFFCURVE",
"253 36 CURVE SMOOTH",
"253 60 OFFCURVE",
"238 72 OFFCURVE",
"208 72 CURVE SMOOTH",
"172 72 OFFCURVE",
"163 82 OFFCURVE",
"163 118 CURVE SMOOTH",
"163 598 LINE SMOOTH",
"163 628 OFFCURVE",
"151 643 OFFCURVE",
"127 643 CURVE SMOOTH",
"103 643 OFFCURVE",
"91 628 OFFCURVE",
"91 598 CURVE SMOOTH",
"91 133 LINE SMOOTH",
"91 38 OFFCURVE",
"117 0 OFFCURVE",
"201 0 CURVE SMOOTH",
"208 0 LINE SMOOTH"
);
}
);
width = 294;
}
);
leftKerningGroup = l;
note = l;
rightKerningGroup = l;
unicode = 006C;
},
{
glyphname = m;
lastChange = "2016-07-31 02:30:00 +0000";
layers = (
{
layerId = "AE6579ED-DC47-4075-A6A3-4B1A21099458";
paths = (
{
closed = 1;
nodes = (
"399 7 OFFCURVE",
"411 -7 OFFCURVE",
"436 -7 CURVE SMOOTH",
"461 -7 OFFCURVE",
"473 7 OFFCURVE",
"473 35 CURVE SMOOTH",
"473 229 LINE SMOOTH",
"474 336 OFFCURVE",
"519 389 OFFCURVE",
"610 389 CURVE SMOOTH",
"701 389 OFFCURVE",
"727 376 OFFCURVE",
"727 280 CURVE SMOOTH",
"727 35 LINE SMOOTH",
"727 7 OFFCURVE",
"739 -7 OFFCURVE",
"763 -7 CURVE SMOOTH",
"787 -7 OFFCURVE",
"799 7 OFFCURVE",
"799 35 CURVE SMOOTH",
"799 283 LINE SMOOTH",
"799 422 OFFCURVE",
"733 461 OFFCURVE",
"604 461 CURVE SMOOTH",
"539 461 OFFCURVE",
"488 437 OFFCURVE",
"450 390 CURVE",
"419 445 OFFCURVE",
"361 461 OFFCURVE",
"265 461 CURVE SMOOTH",
"217 461 OFFCURVE",
"177 445 OFFCURVE",
"146 414 CURVE",
"146 422 LINE SMOOTH",
"146 453 OFFCURVE",
"133 468 OFFCURVE",
"108 468 CURVE SMOOTH",
"85 468 OFFCURVE",
"74 454 OFFCURVE",
"74 425 CURVE SMOOTH",
"74 35 LINE SMOOTH",
"74 7 OFFCURVE",
"86 -7 OFFCURVE",
"110 -7 CURVE SMOOTH",
"134 -7 OFFCURVE",
"146 7 OFFCURVE",
"146 35 CURVE SMOOTH",
"146 229 LINE SMOOTH",
"146 334 OFFCURVE",
"187 389 OFFCURVE",
"279 389 CURVE SMOOTH",
"371 389 OFFCURVE",
"399 375 OFFCURVE",
"399 280 CURVE SMOOTH",
"399 35 LINE SMOOTH"
);
}
);
width = 869;
}
);
leftKerningGroup = m;
note = m;
rightKerningGroup = h;
unicode = 006D;
},
{
glyphname = n;
lastChange = "2016-07-31 02:30:00 +0000";
layers = (
{
layerId = "AE6579ED-DC47-4075-A6A3-4B1A21099458";
paths = (
{
closed = 1;
nodes = (
"504 389 OFFCURVE",
"536 376 OFFCURVE",
"536 280 CURVE SMOOTH",
"536 35 LINE SMOOTH",
"536 7 OFFCURVE",
"548 -7 OFFCURVE",
"572 -7 CURVE SMOOTH",
"596 -7 OFFCURVE",
"608 7 OFFCURVE",
"608 35 CURVE SMOOTH",
"608 283 LINE SMOOTH",
"608 423 OFFCURVE",
"535 461 OFFCURVE",
"356 461 CURVE SMOOTH",
"327 461 LINE SMOOTH",
"248 461 OFFCURVE",
"187 444 OFFCURVE",
"146 411 CURVE",
"146 422 LINE SMOOTH",
"146 453 OFFCURVE",
"133 468 OFFCURVE",
"108 468 CURVE SMOOTH",
"85 468 OFFCURVE",
"74 454 OFFCURVE",
"74 425 CURVE SMOOTH",
"74 35 LINE SMOOTH",
"74 7 OFFCURVE",
"86 -7 OFFCURVE",
"110 -7 CURVE SMOOTH",
"134 -7 OFFCURVE",
"146 7 OFFCURVE",
"146 35 CURVE SMOOTH",
"146 229 LINE SMOOTH",
"146 326 OFFCURVE",
"192 389 OFFCURVE",
"327 389 CURVE SMOOTH",
"356 389 LINE SMOOTH"
);
}
);
width = 678;
}
);
leftKerningGroup = m;
note = n;
rightKerningGroup = h;
unicode = 006E;
},
{
glyphname = o;
lastChange = "2016-07-31 02:30:00 +0000";
layers = (
{
layerId = "AE6579ED-DC47-4075-A6A3-4B1A21099458";
paths = (
{
closed = 1;
nodes = (
"522 0 OFFCURVE",
"595 38 OFFCURVE",
"595 178 CURVE SMOOTH",
"595 283 LINE SMOOTH",
"595 423 OFFCURVE",
"522 461 OFFCURVE",
"343 461 CURVE SMOOTH",
"314 461 LINE SMOOTH",
"134 461 OFFCURVE",
"61 423 OFFCURVE",
"61 283 CURVE SMOOTH",
"61 178 LINE SMOOTH",
"61 38 OFFCURVE",
"134 0 OFFCURVE",
"314 0 CURVE SMOOTH",
"343 0 LINE SMOOTH"
);
},
{
closed = 1;
nodes = (
"165 72 OFFCURVE",
"133 85 OFFCURVE",
"133 181 CURVE SMOOTH",
"133 280 LINE SMOOTH",
"133 376 OFFCURVE",
"165 389 OFFCURVE",
"314 389 CURVE SMOOTH",
"343 389 LINE SMOOTH",
"491 389 OFFCURVE",
"523 376 OFFCURVE",
"523 280 CURVE SMOOTH",
"523 181 LINE SMOOTH",
"523 85 OFFCURVE",
"491 72 OFFCURVE",
"343 72 CURVE SMOOTH",
"314 72 LINE SMOOTH"
);
}
);
width = 656;
}
);
leftKerningGroup = c;
note = o;
rightKerningGroup = b;
unicode = 006F;
},
{
glyphname = p;
lastChange = "2016-07-31 02:30:00 +0000";
layers = (
{
layerId = "AE6579ED-DC47-4075-A6A3-4B1A21099458";
paths = (
{
closed = 1;
nodes = (
"537 85 OFFCURVE",
"505 72 OFFCURVE",
"360 72 CURVE SMOOTH",
"147 72 LINE",
"147 232 LINE SMOOTH",
"147 328 OFFCURVE",
"192 389 OFFCURVE",
"328 389 CURVE SMOOTH",
"357 389 LINE SMOOTH",
"505 389 OFFCURVE",
"537 376 OFFCURVE",
"537 280 CURVE SMOOTH",
"537 181 LINE SMOOTH"
);
},
{
closed = 1;
nodes = (
"609 423 OFFCURVE",
"536 461 OFFCURVE",
"357 461 CURVE SMOOTH",
"328 461 LINE SMOOTH",
"249 461 OFFCURVE",
"188 444 OFFCURVE",
"147 411 CURVE",
"147 423 LINE SMOOTH",
"147 453 OFFCURVE",
"135 468 OFFCURVE",
"111 468 CURVE SMOOTH",
"87 468 OFFCURVE",
"75 454 OFFCURVE",
"75 426 CURVE SMOOTH",
"75 -137 LINE SMOOTH",
"75 -167 OFFCURVE",
"86 -182 OFFCURVE",
"109 -182 CURVE SMOOTH",
"134 -182 OFFCURVE",
"147 -167 OFFCURVE",
"147 -137 CURVE SMOOTH",
"147 0 LINE",
"360 0 LINE SMOOTH",
"536 0 OFFCURVE",
"609 38 OFFCURVE",
"609 178 CURVE SMOOTH",
"609 283 LINE SMOOTH"
);
}
);
width = 670;
}
);
leftKerningGroup = m;
note = p;
rightKerningGroup = b;
unicode = 0070;
},
{
glyphname = q;
lastChange = "2016-07-31 02:30:00 +0000";
layers = (
{
layerId = "AE6579ED-DC47-4075-A6A3-4B1A21099458";
paths = (
{
closed = 1;
nodes = (
"133 376 OFFCURVE",
"165 389 OFFCURVE",
"314 389 CURVE SMOOTH",
"343 389 LINE SMOOTH",
"463 389 OFFCURVE",
"523 337 OFFCURVE",
"523 232 CURVE SMOOTH",
"523 72 LINE",
"311 72 LINE SMOOTH",
"166 72 OFFCURVE",
"133 85 OFFCURVE",
"133 181 CURVE SMOOTH",
"133 280 LINE SMOOTH"
);
},
{
closed = 1;
nodes = (
"61 38 OFFCURVE",
"135 0 OFFCURVE",
"311 0 CURVE SMOOTH",
"523 0 LINE",
"523 -137 LINE SMOOTH",
"523 -170 OFFCURVE",
"542 -182 OFFCURVE",
"561 -182 CURVE SMOOTH",
"584 -182 OFFCURVE",
"595 -167 OFFCURVE",
"595 -137 CURVE SMOOTH",
"595 426 LINE SMOOTH",
"595 454 OFFCURVE",
"583 468 OFFCURVE",
"559 468 CURVE SMOOTH",
"535 468 OFFCURVE",
"523 453 OFFCURVE",
"523 423 CURVE SMOOTH",
"523 411 LINE",
"483 444 OFFCURVE",
"423 461 OFFCURVE",
"343 461 CURVE SMOOTH",
"314 461 LINE SMOOTH",
"134 461 OFFCURVE",
"61 423 OFFCURVE",
"61 283 CURVE SMOOTH",
"61 178 LINE SMOOTH"
);
}
);
width = 670;
}
);
leftKerningGroup = c;
note = q;
rightKerningGroup = g;
unicode = 0071;
},
{
glyphname = r;
lastChange = "2016-07-31 02:30:00 +0000";
layers = (
{
layerId = "AE6579ED-DC47-4075-A6A3-4B1A21099458";
paths = (
{
closed = 1;
nodes = (
"373 389 OFFCURVE",
"388 401 OFFCURVE",
"388 425 CURVE SMOOTH",
"388 449 OFFCURVE",
"373 461 OFFCURVE",
"343 461 CURVE SMOOTH",
"297 461 LINE SMOOTH",
"236 461 OFFCURVE",
"186 444 OFFCURVE",
"146 411 CURVE",
"146 422 LINE SMOOTH",
"146 453 OFFCURVE",
"133 468 OFFCURVE",
"108 468 CURVE SMOOTH",
"85 468 OFFCURVE",
"74 454 OFFCURVE",
"74 425 CURVE SMOOTH",
"74 35 LINE SMOOTH",
"74 7 OFFCURVE",
"86 -7 OFFCURVE",
"110 -7 CURVE SMOOTH",
"134 -7 OFFCURVE",
"146 7 OFFCURVE",
"146 35 CURVE SMOOTH",
"146 229 LINE SMOOTH",
"146 333 OFFCURVE",
"198 389 OFFCURVE",
"297 389 CURVE SMOOTH",
"343 389 LINE SMOOTH"
);
}
);
width = 406;
}
);
leftKerningGroup = m;
note = r;
rightKerningGroup = r;
unicode = 0072;
},
{
glyphname = s;
lastChange = "2016-07-31 02:30:00 +0000";
layers = (
{
layerId = "AE6579ED-DC47-4075-A6A3-4B1A21099458";
paths = (
{
closed = 1;
nodes = (
"522 0 OFFCURVE",
"566 47 OFFCURVE",
"566 130 CURVE SMOOTH",
"566 213 OFFCURVE",
"527 272 OFFCURVE",
"428 272 CURVE SMOOTH",
"181 272 LINE SMOOTH",
"153 272 OFFCURVE",
"132 294 OFFCURVE",
"132 334 CURVE SMOOTH",
"132 371 OFFCURVE",
"148 389 OFFCURVE",
"181 389 CURVE SMOOTH",
"447 389 LINE SMOOTH",
"483 389 OFFCURVE",
"492 375 OFFCURVE",
"492 340 CURVE SMOOTH",
"492 305 OFFCURVE",
"509 294 OFFCURVE",
"528 294 CURVE SMOOTH",
"552 294 OFFCURVE",
"564 311 OFFCURVE",
"564 344 CURVE SMOOTH",
"564 411 OFFCURVE",
"541 461 OFFCURVE",
"454 461 CURVE SMOOTH",
"229 461 LINE SMOOTH",
"102 461 OFFCURVE",
"60 416 OFFCURVE",
"60 335 CURVE SMOOTH",
"60 254 OFFCURVE",
"103 200 OFFCURVE",
"199 200 CURVE SMOOTH",
"445 200 LINE SMOOTH",
"474 200 OFFCURVE",
"494 171 OFFCURVE",
"494 132 CURVE SMOOTH",
"494 92 OFFCURVE",
"478 72 OFFCURVE",
"445 72 CURVE SMOOTH",
"177 72 LINE SMOOTH",
"141 72 OFFCURVE",
"132 84 OFFCURVE",
"132 124 CURVE SMOOTH",
"132 153 OFFCURVE",
"120 167 OFFCURVE",
"97 167 CURVE",
"96 166 OFFCURVE",
"96 166 OFFCURVE",
"96 166 CURVE SMOOTH",
"72 166 OFFCURVE",
"60 149 OFFCURVE",
"60 116 CURVE SMOOTH",
"60 49 OFFCURVE",
"83 0 OFFCURVE",
"170 0 CURVE SMOOTH",
"398 0 LINE SMOOTH"
);
}
);
width = 625;
}
);
leftKerningGroup = s;
note = s;
rightKerningGroup = s;
unicode = 0073;
},
{
glyphname = t;
lastChange = "2016-07-31 02:30:00 +0000";
layers = (
{
layerId = "AE6579ED-DC47-4075-A6A3-4B1A21099458";
paths = (
{
closed = 1;
nodes = (
"280 389 LINE SMOOTH",
"311 389 OFFCURVE",
"326 400 OFFCURVE",
"326 423 CURVE SMOOTH",
"326 448 OFFCURVE",
"311 461 OFFCURVE",
"280 461 CURVE SMOOTH",
"152 461 LINE",
"152 555 LINE SMOOTH",
"152 586 OFFCURVE",
"139 601 OFFCURVE",
"114 601 CURVE SMOOTH",
"91 601 OFFCURVE",
"80 586 OFFCURVE",
"80 555 CURVE SMOOTH",
"80 460 LINE",
"59 457 OFFCURVE",
"49 446 OFFCURVE",
"49 427 CURVE SMOOTH",
"49 408 OFFCURVE",
"59 397 OFFCURVE",
"80 394 CURVE",
"80 178 LINE SMOOTH",
"80 41 OFFCURVE",
"152 0 OFFCURVE",
"303 0 CURVE SMOOTH",
"333 0 OFFCURVE",
"348 13 OFFCURVE",
"348 38 CURVE SMOOTH",
"348 61 OFFCURVE",
"333 72 OFFCURVE",
"303 72 CURVE SMOOTH",
"184 72 OFFCURVE",
"152 86 OFFCURVE",
"152 181 CURVE SMOOTH",
"152 389 LINE"
);
}
);
width = 373;
}
);
leftKerningGroup = t;
note = t;
rightKerningGroup = t;
unicode = 0074;
},
{
glyphname = u;
lastChange = "2016-07-31 02:30:00 +0000";
layers = (
{
layerId = "AE6579ED-DC47-4075-A6A3-4B1A21099458";
paths = (
{
closed = 1;
nodes = (
"174 72 OFFCURVE",
"142 85 OFFCURVE",
"142 181 CURVE SMOOTH",
"142 426 LINE SMOOTH",
"142 454 OFFCURVE",
"130 468 OFFCURVE",
"106 468 CURVE SMOOTH",
"82 468 OFFCURVE",
"70 454 OFFCURVE",
"70 426 CURVE SMOOTH",
"70 178 LINE SMOOTH",
"70 38 OFFCURVE",
"143 0 OFFCURVE",
"322 0 CURVE SMOOTH",
"351 0 LINE SMOOTH",
"430 0 OFFCURVE",
"491 17 OFFCURVE",
"532 50 CURVE",
"532 39 LINE SMOOTH",
"532 8 OFFCURVE",
"545 -7 OFFCURVE",
"570 -7 CURVE SMOOTH",
"593 -7 OFFCURVE",
"604 7 OFFCURVE",
"604 36 CURVE SMOOTH",
"604 426 LINE SMOOTH",
"604 454 OFFCURVE",
"592 468 OFFCURVE",
"568 468 CURVE SMOOTH",
"544 468 OFFCURVE",
"532 454 OFFCURVE",
"532 426 CURVE SMOOTH",
"532 232 LINE SMOOTH",
"532 137 OFFCURVE",
"488 72 OFFCURVE",
"351 72 CURVE SMOOTH",
"322 72 LINE SMOOTH"
);
}
);
width = 678;
}
);
leftKerningGroup = u;
note = u;
rightKerningGroup = g;
unicode = 0075;
},
{
glyphname = v;
lastChange = "2016-07-31 02:30:00 +0000";
layers = (
{
layerId = "AE6579ED-DC47-4075-A6A3-4B1A21099458";
paths = (
{
closed = 1;
nodes = (
"500 432 LINE",
"503 438 OFFCURVE",
"504 444 OFFCURVE",
"504 450 CURVE SMOOTH",
"504 472 OFFCURVE",
"493 483 OFFCURVE",
"470 483 CURVE SMOOTH",
"453 483 OFFCURVE",
"440 474 OFFCURVE",
"432 456 CURVE SMOOTH",
"264 76 LINE",
"102 455 LINE",
"93 474 OFFCURVE",
"80 483 OFFCURVE",
"64 483 CURVE SMOOTH",
"47 483 OFFCURVE",
"30 470 OFFCURVE",
"30 454 CURVE SMOOTH",
"30 446 OFFCURVE",
"31 439 OFFCURVE",
"34 432 CURVE SMOOTH",
"214 0 LINE",
"309 0 LINE"
);
}
);
width = 533;
}
);
leftKerningGroup = v;
note = v;
rightKerningGroup = v;
unicode = 0076;
},
{
glyphname = w;
lastChange = "2016-07-31 02:30:00 +0000";
layers = (
{
layerId = "AE6579ED-DC47-4075-A6A3-4B1A21099458";
paths = (
{
closed = 1;
nodes = (
"802 432 OFFCURVE",
"803 438 OFFCURVE",
"803 442 CURVE SMOOTH",
"803 463 OFFCURVE",
"792 473 OFFCURVE",
"769 473 CURVE SMOOTH",
"751 473 OFFCURVE",
"738 464 OFFCURVE",
"731 445 CURVE SMOOTH",
"596 68 LINE",
"458 440 LINE SMOOTH",
"451 458 OFFCURVE",
"438 467 OFFCURVE",
"418 467 CURVE SMOOTH",
"398 467 OFFCURVE",
"385 458 OFFCURVE",
"378 440 CURVE SMOOTH",
"234 68 LINE",
"104 445 LINE SMOOTH",
"97 464 OFFCURVE",
"84 473 OFFCURVE",
"66 473 CURVE SMOOTH",
"43 473 OFFCURVE",
"32 463 OFFCURVE",
"32 442 CURVE SMOOTH",
"32 438 OFFCURVE",
"33 432 OFFCURVE",
"36 424 CURVE SMOOTH",
"184 0 LINE",
"277 0 LINE",
"418 354 LINE",
"547 0 LINE",
"642 0 LINE",
"799 424 LINE SMOOTH"
);
}
);
width = 834;
}
);
leftKerningGroup = w;
note = w;
rightKerningGroup = w;
unicode = 0077;
},
{
glyphname = x;
lastChange = "2016-07-31 02:30:00 +0000";
layers = (
{
layerId = "AE6579ED-DC47-4075-A6A3-4B1A21099458";
paths = (
{
closed = 1;
nodes = (
"503 411 LINE SMOOTH",
"511 420 OFFCURVE",
"515 429 OFFCURVE",
"515 439 CURVE SMOOTH",
"515 459 OFFCURVE",
"499 472 OFFCURVE",
"477 472 CURVE SMOOTH",
"466 472 OFFCURVE",
"456 468 OFFCURVE",
"448 460 CURVE",
"280 275 LINE",
"111 460 LINE",
"103 468 OFFCURVE",
"93 472 OFFCURVE",
"82 472 CURVE SMOOTH",
"59 472 OFFCURVE",
"43 459 OFFCURVE",
"43 439 CURVE SMOOTH",
"43 429 OFFCURVE",
"47 420 OFFCURVE",
"55 411 CURVE SMOOTH",
"226 230 LINE",
"55 50 LINE SMOOTH",
"47 42 OFFCURVE",
"43 33 OFFCURVE",
"43 23 CURVE SMOOTH",
"43 2 OFFCURVE",
"61 -11 OFFCURVE",
"83 -11 CURVE SMOOTH",
"94 -11 OFFCURVE",
"103 -7 OFFCURVE",
"111 1 CURVE",
"280 186 LINE",
"448 1 LINE",
"456 -7 OFFCURVE",
"465 -11 OFFCURVE",
"476 -11 CURVE SMOOTH",
"497 -11 OFFCURVE",
"515 2 OFFCURVE",
"515 23 CURVE SMOOTH",
"515 33 OFFCURVE",
"511 42 OFFCURVE",
"503 50 CURVE SMOOTH",
"332 230 LINE"
);
}
);
width = 558;
}
);
leftKerningGroup = x;
note = x;
rightKerningGroup = x;
unicode = 0078;
},
{
glyphname = y;
lastChange = "2016-07-31 02:30:00 +0000";
layers = (
{
layerId = "AE6579ED-DC47-4075-A6A3-4B1A21099458";
paths = (
{
closed = 1;
nodes = (
"604 454 OFFCURVE",
"592 468 OFFCURVE",
"568 468 CURVE SMOOTH",
"544 468 OFFCURVE",
"532 454 OFFCURVE",
"532 426 CURVE SMOOTH",
"532 232 LINE SMOOTH",
"532 125 OFFCURVE",
"472 72 OFFCURVE",
"351 72 CURVE SMOOTH",
"322 72 LINE SMOOTH",
"174 72 OFFCURVE",
"142 85 OFFCURVE",
"142 181 CURVE SMOOTH",
"142 426 LINE SMOOTH",
"142 454 OFFCURVE",
"130 468 OFFCURVE",
"106 468 CURVE SMOOTH",
"82 468 OFFCURVE",
"70 454 OFFCURVE",
"70 426 CURVE SMOOTH",
"70 178 LINE SMOOTH",
"70 38 OFFCURVE",
"143 0 OFFCURVE",
"322 0 CURVE SMOOTH",
"351 0 LINE SMOOTH",
"430 0 OFFCURVE",
"491 17 OFFCURVE",
"532 50 CURVE",
"532 -93 LINE SMOOTH",
"532 -126 OFFCURVE",
"527 -133 OFFCURVE",
"496 -133 CURVE SMOOTH",
"187 -133 LINE SMOOTH",
"151 -133 OFFCURVE",
"142 -121 OFFCURVE",
"142 -81 CURVE SMOOTH",
"142 -52 OFFCURVE",
"130 -38 OFFCURVE",
"106 -38 CURVE SMOOTH",
"82 -38 OFFCURVE",
"70 -55 OFFCURVE",
"70 -88 CURVE SMOOTH",
"70 -155 OFFCURVE",
"93 -205 OFFCURVE",
"180 -205 CURVE SMOOTH",
"503 -205 LINE SMOOTH",
"580 -205 OFFCURVE",
"604 -169 OFFCURVE",
"604 -77 CURVE SMOOTH",
"604 426 LINE SMOOTH"
);
}
);
width = 679;
}
);
leftKerningGroup = u;
note = y;
rightKerningGroup = g;
unicode = 0079;
},
{
glyphname = z;
lastChange = "2016-07-31 02:30:00 +0000";
layers = (
{
layerId = "AE6579ED-DC47-4075-A6A3-4B1A21099458";
paths = (
{
closed = 1;
nodes = (
"521 461 LINE",
"170 461 LINE SMOOTH",
"85 461 OFFCURVE",
"60 422 OFFCURVE",
"60 322 CURVE SMOOTH",
"60 291 OFFCURVE",
"72 276 OFFCURVE",
"96 276 CURVE SMOOTH",
"120 276 OFFCURVE",
"132 290 OFFCURVE",
"132 319 CURVE SMOOTH",
"132 376 OFFCURVE",
"140 389 OFFCURVE",
"177 389 CURVE SMOOTH",
"422 389 LINE",
"60 74 LINE",
"60 0 LINE",
"432 0 LINE SMOOTH",
"516 0 OFFCURVE",
"542 40 OFFCURVE",
"542 139 CURVE SMOOTH",
"542 170 OFFCURVE",
"530 186 OFFCURVE",
"506 186 CURVE SMOOTH",
"505 186 LINE SMOOTH",
"482 186 OFFCURVE",
"470 172 OFFCURVE",
"470 144 CURVE SMOOTH",
"470 88 OFFCURVE",
"464 72 OFFCURVE",
"424 72 CURVE SMOOTH",
"162 72 LINE",
"521 384 LINE"
);
}
);
width = 594;
}
);
leftKerningGroup = z;
note = z;
rightKerningGroup = z;
unicode = 007A;
},
{
glyphname = braceleft;
lastChange = "2016-07-31 02:30:00 +0000";
layers = (
{
layerId = "AE6579ED-DC47-4075-A6A3-4B1A21099458";
paths = (
{
closed = 1;
nodes = (
"75 288 OFFCURVE",
"113 258 OFFCURVE",
"113 237 CURVE SMOOTH",
"113 226 OFFCURVE",
"108 206 OFFCURVE",
"99 175 CURVE SMOOTH",
"90 144 OFFCURVE",
"85 118 OFFCURVE",
"85 99 CURVE SMOOTH",
"85 79 OFFCURVE",
"87 57 OFFCURVE",
"92 32 CURVE",
"100 -18 OFFCURVE",
"124 -56 OFFCURVE",
"235 -57 CURVE",
"235 15 LINE",
"162 15 OFFCURVE",
"157 19 OFFCURVE",
"157 108 CURVE SMOOTH",
"157 114 OFFCURVE",
"162 132 OFFCURVE",
"171 163 CURVE SMOOTH",
"180 194 OFFCURVE",
"185 218 OFFCURVE",
"185 236 CURVE SMOOTH",
"185 264 OFFCURVE",
"164 291 OFFCURVE",
"123 317 CURVE",
"164 346 OFFCURVE",
"185 373 OFFCURVE",
"185 400 CURVE SMOOTH",
"185 418 OFFCURVE",
"180 443 OFFCURVE",
"171 474 CURVE SMOOTH",
"162 505 OFFCURVE",
"157 523 OFFCURVE",
"157 528 CURVE SMOOTH",
"157 617 OFFCURVE",
"162 621 OFFCURVE",
"235 621 CURVE",
"235 693 LINE",
"215 693 OFFCURVE",
"199 693 OFFCURVE",
"188 692 CURVE SMOOTH",
"164 690 OFFCURVE",
"129 678 OFFCURVE",
"114 655 CURVE SMOOTH",
"98 632 OFFCURVE",
"85 586 OFFCURVE",
"85 542 CURVE SMOOTH",
"85 519 OFFCURVE",
"90 493 OFFCURVE",
"99 462 CURVE SMOOTH",
"108 431 OFFCURVE",
"113 410 OFFCURVE",
"113 399 CURVE SMOOTH",
"113 378 OFFCURVE",
"73 344 OFFCURVE",
"40 327 CURVE",
"40 307 LINE"
);
}
);
width = 287;
}
);
note = braceleft;
rightKerningGroup = braceleft;
unicode = 007B;
},
{
glyphname = bar;
lastChange = "2016-07-31 02:30:00 +0000";
layers = (
{
layerId = "AE6579ED-DC47-4075-A6A3-4B1A21099458";
paths = (
{
closed = 1;
nodes = (
"153 629 OFFCURVE",
"141 643 OFFCURVE",
"117 643 CURVE SMOOTH",
"93 643 OFFCURVE",
"81 629 OFFCURVE",
"81 602 CURVE SMOOTH",
"81 33 LINE SMOOTH",
"81 6 OFFCURVE",
"93 -7 OFFCURVE",
"117 -7 CURVE SMOOTH",
"141 -7 OFFCURVE",
"153 6 OFFCURVE",
"153 33 CURVE SMOOTH",
"153 602 LINE SMOOTH"
);
}
);
width = 235;
}
);
note = bar;
rightKerningGroup = numbersign;
unicode = 007C;
},
{
glyphname = braceright;
lastChange = "2016-07-31 02:30:00 +0000";
layers = (
{
layerId = "AE6579ED-DC47-4075-A6A3-4B1A21099458";
paths = (
{
closed = 1;
nodes = (
"214 344 OFFCURVE",
"174 378 OFFCURVE",
"174 399 CURVE SMOOTH",
"174 410 OFFCURVE",
"179 431 OFFCURVE",
"188 462 CURVE SMOOTH",
"197 493 OFFCURVE",
"202 515 OFFCURVE",
"202 528 CURVE SMOOTH",
"202 585 OFFCURVE",
"193 627 OFFCURVE",
"174 655 CURVE SMOOTH",
"166 666 OFFCURVE",
"155 675 OFFCURVE",
"140 681 CURVE SMOOTH",
"110 693 OFFCURVE",
"92 693 OFFCURVE",
"52 693 CURVE",
"52 621 LINE",
"125 621 OFFCURVE",
"130 617 OFFCURVE",
"130 528 CURVE SMOOTH",
"130 523 OFFCURVE",
"125 505 OFFCURVE",
"116 474 CURVE SMOOTH",
"107 443 OFFCURVE",
"102 418 OFFCURVE",
"102 400 CURVE SMOOTH",
"102 373 OFFCURVE",
"123 346 OFFCURVE",
"164 317 CURVE",
"123 291 OFFCURVE",
"102 264 OFFCURVE",
"102 236 CURVE SMOOTH",
"102 218 OFFCURVE",
"107 194 OFFCURVE",
"116 163 CURVE SMOOTH",
"125 132 OFFCURVE",
"130 114 OFFCURVE",
"130 108 CURVE SMOOTH",
"130 19 OFFCURVE",
"125 15 OFFCURVE",
"52 15 CURVE",
"52 -57 LINE",
"83 -57 OFFCURVE",
"108 -55 OFFCURVE",
"127 -50 CURVE SMOOTH",
"154 -43 OFFCURVE",
"166 -30 OFFCURVE",
"181 -6 CURVE SMOOTH",
"196 17 OFFCURVE",
"202 59 OFFCURVE",
"202 99 CURVE SMOOTH",
"202 118 OFFCURVE",
"197 144 OFFCURVE",
"188 175 CURVE SMOOTH",
"179 206 OFFCURVE",
"174 226 OFFCURVE",
"174 237 CURVE SMOOTH",
"174 258 OFFCURVE",
"212 288 OFFCURVE",
"247 307 CURVE",
"247 327 LINE"
);
}
);
width = 287;
}
);
leftKerningGroup = braceright;
note = braceright;
rightKerningGroup = numbersign;
unicode = 007D;
},
{
glyphname = asciitilde;
lastChange = "2016-07-31 02:30:00 +0000";
layers = (
{
layerId = "AE6579ED-DC47-4075-A6A3-4B1A21099458";
paths = (
{
closed = 1;
nodes = (
"266 169 OFFCURVE",
"274 167 OFFCURVE",
"281 167 CURVE SMOOTH",
"288 167 OFFCURVE",
"297 171 OFFCURVE",
"307 178 CURVE",
"351 216 LINE",
"363 225 OFFCURVE",
"369 236 OFFCURVE",
"370 248 CURVE",
"370 272 OFFCURVE",
"351 284 OFFCURVE",
"332 284 CURVE SMOOTH",
"323 284 OFFCURVE",
"314 280 OFFCURVE",
"307 273 CURVE",
"277 247 LINE",
"275 245 OFFCURVE",
"273 244 OFFCURVE",
"272 244 CURVE SMOOTH",
"271 244 OFFCURVE",
"269 245 OFFCURVE",
"267 246 CURVE",
"180 279 LINE SMOOTH",
"172 282 OFFCURVE",
"164 284 OFFCURVE",
"156 284 CURVE SMOOTH",
"148 284 OFFCURVE",
"140 280 OFFCURVE",
"131 273 CURVE",
"86 235 LINE SMOOTH",
"74 225 OFFCURVE",
"68 214 OFFCURVE",
"68 203 CURVE SMOOTH",
"68 180 OFFCURVE",
"87 167 OFFCURVE",
"106 167 CURVE SMOOTH",
"115 167 OFFCURVE",
"124 171 OFFCURVE",
"131 178 CURVE",
"160 204 LINE",
"162 206 OFFCURVE",
"164 207 OFFCURVE",
"165 207 CURVE SMOOTH",
"166 207 OFFCURVE",
"168 206 OFFCURVE",
"171 205 CURVE",
"257 172 LINE"
);
}
);
width = 438;
}
);
note = asciitilde;
rightKerningGroup = numbersign;
unicode = 007E;
},
{
glyphname = exclamdown;
lastChange = "2016-07-31 02:30:00 +0000";
layers = (
{
layerId = "AE6579ED-DC47-4075-A6A3-4B1A21099458";
paths = (
{
closed = 1;
nodes = (
"88 -169 OFFCURVE",
"104 -180 OFFCURVE",
"123 -180 CURVE SMOOTH",
"148 -180 OFFCURVE",
"160 -166 OFFCURVE",
"160 -138 CURVE SMOOTH",
"160 282 LINE SMOOTH",
"160 313 OFFCURVE",
"143 325 OFFCURVE",
"124 325 CURVE SMOOTH",
"105 325 OFFCURVE",
"88 313 OFFCURVE",
"88 282 CURVE SMOOTH",
"88 -138 LINE SMOOTH"
);
},
{
closed = 1;
nodes = (
"178 423 OFFCURVE",
"185 435 OFFCURVE",
"185 450 CURVE SMOOTH",
"185 479 OFFCURVE",
"152 501 OFFCURVE",
"124 501 CURVE SMOOTH",
"96 501 OFFCURVE",
"62 479 OFFCURVE",
"62 450 CURVE SMOOTH",
"62 421 OFFCURVE",
"96 399 OFFCURVE",
"123 399 CURVE SMOOTH",
"136 399 OFFCURVE",
"150 404 OFFCURVE",
"164 414 CURVE"
);
}
);
width = 247;
}
);
note = exclamdown;
rightKerningGroup = exclamdown;
unicode = 00A1;
},
{
glyphname = cent;
lastChange = "2016-07-31 02:30:00 +0000";
layers = (
{
layerId = "AE6579ED-DC47-4075-A6A3-4B1A21099458";
paths = (
{
closed = 1;
nodes = (
"218 -11 OFFCURVE",
"234 -22 OFFCURVE",
"253 -22 CURVE SMOOTH",
"278 -22 OFFCURVE",
"290 -8 OFFCURVE",
"290 20 CURVE SMOOTH",
"290 108 LINE",
"330 108 LINE SMOOTH",
"417 108 OFFCURVE",
"441 158 OFFCURVE",
"441 225 CURVE SMOOTH",
"441 258 OFFCURVE",
"429 275 OFFCURVE",
"405 275 CURVE SMOOTH",
"381 275 OFFCURVE",
"369 260 OFFCURVE",
"369 231 CURVE SMOOTH",
"369 191 OFFCURVE",
"360 180 OFFCURVE",
"323 180 CURVE SMOOTH",
"290 180 LINE",
"290 458 LINE",
"325 458 LINE SMOOTH",
"360 458 OFFCURVE",
"369 448 OFFCURVE",
"369 407 CURVE SMOOTH",
"369 348 OFFCURVE",
"441 347 OFFCURVE",
"441 414 CURVE SMOOTH",
"441 481 OFFCURVE",
"419 530 OFFCURVE",
"332 530 CURVE SMOOTH",
"290 530 LINE",
"290 615 LINE SMOOTH",
"290 644 OFFCURVE",
"278 658 OFFCURVE",
"254 658 CURVE SMOOTH",
"230 658 OFFCURVE",
"218 644 OFFCURVE",
"218 615 CURVE SMOOTH",
"218 529 LINE",
"107 520 OFFCURVE",
"49 468 OFFCURVE",
"49 340 CURVE SMOOTH",
"49 298 LINE SMOOTH",
"49 169 OFFCURVE",
"105 117 OFFCURVE",
"218 108 CURVE",
"218 20 LINE SMOOTH"
);
},
{
closed = 1;
nodes = (
"145 188 OFFCURVE",
"121 211 OFFCURVE",
"121 298 CURVE SMOOTH",
"121 340 LINE SMOOTH",
"121 425 OFFCURVE",
"147 450 OFFCURVE",
"218 457 CURVE",
"218 181 LINE"
);
}
);
width = 498;
}
);
note = cent;
rightKerningGroup = numbersign;
unicode = 00A2;
},
{
glyphname = sterling;
lastChange = "2016-07-31 02:30:00 +0000";
layers = (
{
layerId = "AE6579ED-DC47-4075-A6A3-4B1A21099458";
paths = (
{
closed = 1;
nodes = (
"65 32 OFFCURVE",
"65 29 OFFCURVE",
"65 25 CURVE SMOOTH",
"65 -2 OFFCURVE",
"76 -15 OFFCURVE",
"97 -15 CURVE SMOOTH",
"420 -15 LINE SMOOTH",
"449 -15 OFFCURVE",
"463 -3 OFFCURVE",
"463 21 CURVE SMOOTH",
"463 45 OFFCURVE",
"449 57 OFFCURVE",
"420 57 CURVE SMOOTH",
"139 57 LINE",
"163 307 LINE",
"191 307 LINE SMOOTH",
"222 307 OFFCURVE",
"233 323 OFFCURVE",
"233 342 CURVE SMOOTH",
"233 361 OFFCURVE",
"222 379 OFFCURVE",
"191 379 CURVE SMOOTH",
"168 379 LINE",
"176 468 LINE SMOOTH",
"185 565 OFFCURVE",
"219 586 OFFCURVE",
"292 586 CURVE SMOOTH",
"365 586 OFFCURVE",
"389 573 OFFCURVE",
"389 501 CURVE SMOOTH",
"389 472 OFFCURVE",
"401 458 OFFCURVE",
"424 458 CURVE SMOOTH",
"443 458 OFFCURVE",
"461 470 OFFCURVE",
"461 501 CURVE SMOOTH",
"461 621 OFFCURVE",
"399 658 OFFCURVE",
"299 658 CURVE SMOOTH",
"198 658 OFFCURVE",
"117 625 OFFCURVE",
"104 468 CURVE SMOOTH",
"66 34 LINE"
);
}
);
width = 520;
}
);
note = sterling;
rightKerningGroup = numbersign;
unicode = 00A3;
},
{
glyphname = currency;
lastChange = "2016-07-31 02:30:00 +0000";
layers = (
{
layerId = "AE6579ED-DC47-4075-A6A3-4B1A21099458";
paths = (
{
closed = 1;
nodes = (
"312 325 OFFCURVE",
"355 282 OFFCURVE",
"355 231 CURVE SMOOTH",
"355 179 OFFCURVE",
"312 136 OFFCURVE",
"261 136 CURVE SMOOTH",
"209 136 OFFCURVE",
"166 179 OFFCURVE",
"166 231 CURVE SMOOTH",
"166 282 OFFCURVE",
"209 325 OFFCURVE",
"261 325 CURVE SMOOTH"
);
},
{
closed = 1;
nodes = (
"110 290 OFFCURVE",
"102 263 OFFCURVE",
"102 231 CURVE SMOOTH",
"102 198 OFFCURVE",
"110 171 OFFCURVE",
"126 148 CURVE",
"85 107 LINE",
"76 97 OFFCURVE",
"71 87 OFFCURVE",
"71 76 CURVE SMOOTH",
"71 55 OFFCURVE",
"87 41 OFFCURVE",
"107 41 CURVE SMOOTH",
"117 41 OFFCURVE",
"127 47 OFFCURVE",
"138 59 CURVE",
"177 97 LINE",
"203 80 OFFCURVE",
"231 72 OFFCURVE",
"261 72 CURVE SMOOTH",
"291 72 OFFCURVE",
"319 80 OFFCURVE",
"344 96 CURVE",
"382 59 LINE",
"393 47 OFFCURVE",
"404 41 OFFCURVE",
"414 41 CURVE SMOOTH",
"433 41 OFFCURVE",
"450 60 OFFCURVE",
"450 78 CURVE SMOOTH",
"450 87 OFFCURVE",
"445 97 OFFCURVE",
"434 108 CURVE SMOOTH",
"395 147 LINE",
"411 172 OFFCURVE",
"419 200 OFFCURVE",
"419 231 CURVE SMOOTH",
"419 261 OFFCURVE",
"411 289 OFFCURVE",
"395 314 CURVE",
"432 352 LINE",
"444 363 OFFCURVE",
"450 373 OFFCURVE",
"450 384 CURVE SMOOTH",
"450 405 OFFCURVE",
"432 419 OFFCURVE",
"413 419 CURVE SMOOTH",
"404 419 OFFCURVE",
"394 414 OFFCURVE",
"384 405 CURVE",
"344 365 LINE",
"319 381 OFFCURVE",
"291 389 OFFCURVE",
"261 389 CURVE SMOOTH",
"231 389 OFFCURVE",
"203 381 OFFCURVE",
"177 364 CURVE",
"136 405 LINE",
"125 414 OFFCURVE",
"116 419 OFFCURVE",
"107 419 CURVE SMOOTH",
"90 419 OFFCURVE",
"71 403 OFFCURVE",
"71 384 CURVE SMOOTH",
"71 375 OFFCURVE",
"76 365 OFFCURVE",
"85 354 CURVE",
"126 313 LINE"
);
}
);
width = 521;
}
);
note = currency;
rightKerningGroup = numbersign;
unicode = 00A4;
},
{
glyphname = yen;
lastChange = "2016-07-31 02:30:00 +0000";
layers = (
{
layerId = "AE6579ED-DC47-4075-A6A3-4B1A21099458";
paths = (
{
closed = 1;
nodes = (
"32 616 OFFCURVE",
"35 606 OFFCURVE",
"42 595 CURVE",
"245 304 LINE",
"245 287 LINE",
"155 287 LINE SMOOTH",
"127 287 OFFCURVE",
"113 275 OFFCURVE",
"113 252 CURVE SMOOTH",
"113 233 OFFCURVE",
"124 215 OFFCURVE",
"155 215 CURVE SMOOTH",
"245 215 LINE",
"245 198 LINE",
"155 198 LINE SMOOTH",
"127 198 OFFCURVE",
"113 186 OFFCURVE",
"113 162 CURVE SMOOTH",
"113 138 OFFCURVE",
"127 126 OFFCURVE",
"155 126 CURVE SMOOTH",
"245 126 LINE",
"245 20 LINE SMOOTH",
"245 -11 OFFCURVE",
"261 -22 OFFCURVE",
"280 -22 CURVE SMOOTH",
"304 -22 OFFCURVE",
"316 -8 OFFCURVE",
"316 20 CURVE SMOOTH",
"316 126 LINE",
"400 126 LINE SMOOTH",
"429 126 OFFCURVE",
"443 138 OFFCURVE",
"443 161 CURVE SMOOTH",
"443 180 OFFCURVE",
"431 198 OFFCURVE",
"400 198 CURVE SMOOTH",
"316 198 LINE",
"316 215 LINE",
"400 215 LINE SMOOTH",
"431 215 OFFCURVE",
"443 233 OFFCURVE",
"443 251 CURVE SMOOTH",
"443 269 OFFCURVE",
"431 287 OFFCURVE",
"400 287 CURVE SMOOTH",
"316 287 LINE",
"316 304 LINE",
"518 595 LINE SMOOTH",
"525 605 OFFCURVE",
"528 615 OFFCURVE",
"528 624 CURVE SMOOTH",
"528 643 OFFCURVE",
"510 658 OFFCURVE",
"489 658 CURVE SMOOTH",
"478 658 OFFCURVE",
"468 651 OFFCURVE",
"459 636 CURVE",
"280 381 LINE",
"100 636 LINE SMOOTH",
"89 651 OFFCURVE",
"79 658 OFFCURVE",
"69 658 CURVE SMOOTH",
"49 658 OFFCURVE",
"32 642 OFFCURVE",
"32 625 CURVE SMOOTH"
);
}
);
width = 560;
}
);
note = yen;
rightKerningGroup = numbersign;
unicode = 00A5;
},
{
glyphname = brokenbar;
lastChange = "2016-07-31 02:30:00 +0000";
layers = (
{
layerId = "AE6579ED-DC47-4075-A6A3-4B1A21099458";
paths = (
{
closed = 1;
nodes = (
"80 -10 OFFCURVE",
"97 -22 OFFCURVE",
"114 -22 CURVE SMOOTH",
"139 -22 OFFCURVE",
"151 -7 OFFCURVE",
"151 22 CURVE SMOOTH",
"151 235 LINE SMOOTH",
"151 260 OFFCURVE",
"138 278 OFFCURVE",
"118 278 CURVE SMOOTH",
"98 278 OFFCURVE",
"80 266 OFFCURVE",
"80 235 CURVE SMOOTH",
"80 22 LINE SMOOTH"
);
},
{
closed = 1;
nodes = (
"151 647 OFFCURVE",
"135 658 OFFCURVE",
"116 658 CURVE SMOOTH",
"92 658 OFFCURVE",
"80 644 OFFCURVE",
"80 616 CURVE SMOOTH",
"80 401 LINE SMOOTH",
"80 376 OFFCURVE",
"93 358 OFFCURVE",
"113 358 CURVE SMOOTH",
"133 358 OFFCURVE",
"151 370 OFFCURVE",
"151 401 CURVE SMOOTH",
"151 616 LINE SMOOTH"
);
}
);
width = 231;
}
);
note = brokenbar;
rightKerningGroup = numbersign;
unicode = 00A6;
},
{
glyphname = section;
lastChange = "2016-07-31 02:30:00 +0000";
layers = (
{
layerId = "AE6579ED-DC47-4075-A6A3-4B1A21099458";
paths = (
{
closed = 1;
nodes = (
"426 -15 OFFCURVE",
"464 23 OFFCURVE",
"464 99 CURVE SMOOTH",
"464 141 OFFCURVE",
"452 173 OFFCURVE",
"427 194 CURVE",
"452 212 OFFCURVE",
"464 244 OFFCURVE",
"464 289 CURVE SMOOTH",
"464 360 OFFCURVE",
"427 401 OFFCURVE",
"352 410 CURVE SMOOTH",
"177 435 LINE SMOOTH",
"156 438 OFFCURVE",
"146 458 OFFCURVE",
"146 495 CURVE SMOOTH",
"146 527 OFFCURVE",
"153 537 OFFCURVE",
"178 537 CURVE SMOOTH",
"362 537 LINE SMOOTH",
"390 537 OFFCURVE",
"392 534 OFFCURVE",
"392 509 CURVE SMOOTH",
"392 484 OFFCURVE",
"407 468 OFFCURVE",
"428 468 CURVE SMOOTH",
"452 468 OFFCURVE",
"464 482 OFFCURVE",
"464 511 CURVE SMOOTH",
"464 568 OFFCURVE",
"445 609 OFFCURVE",
"374 609 CURVE SMOOTH",
"189 609 LINE SMOOTH",
"112 609 OFFCURVE",
"74 571 OFFCURVE",
"74 495 CURVE SMOOTH",
"74 453 OFFCURVE",
"86 421 OFFCURVE",
"111 400 CURVE",
"86 381 OFFCURVE",
"74 349 OFFCURVE",
"74 306 CURVE SMOOTH",
"74 234 OFFCURVE",
"111 193 OFFCURVE",
"186 184 CURVE SMOOTH",
"361 159 LINE SMOOTH",
"382 156 OFFCURVE",
"392 136 OFFCURVE",
"392 99 CURVE SMOOTH",
"392 66 OFFCURVE",
"385 57 OFFCURVE",
"360 57 CURVE SMOOTH",
"176 57 LINE SMOOTH",
"148 57 OFFCURVE",
"146 60 OFFCURVE",
"146 85 CURVE SMOOTH",
"146 110 OFFCURVE",
"131 126 OFFCURVE",
"110 126 CURVE SMOOTH",
"89 126 OFFCURVE",
"74 110 OFFCURVE",
"74 86 CURVE SMOOTH",
"74 25 OFFCURVE",
"93 -15 OFFCURVE",
"165 -15 CURVE SMOOTH",
"349 -15 LINE SMOOTH"
);
},
{
closed = 1;
nodes = (
"306 358 OFFCURVE",
"392 337 OFFCURVE",
"392 289 CURVE SMOOTH",
"392 240 OFFCURVE",
"390 236 OFFCURVE",
"305 236 CURVE SMOOTH",
"220 236 OFFCURVE",
"146 262 OFFCURVE",
"146 308 CURVE SMOOTH",
"146 354 OFFCURVE",
"150 358 OFFCURVE",
"228 358 CURVE SMOOTH"
);
}
);
width = 539;
}
);
note = section;
rightKerningGroup = numbersign;
unicode = 00A7;
},
{
glyphname = dieresis;
lastChange = "2016-07-31 02:30:00 +0000";
layers = (
{
layerId = "AE6579ED-DC47-4075-A6A3-4B1A21099458";
paths = (
{
closed = 1;
nodes = (
"172 659 OFFCURVE",
"138 681 OFFCURVE",
"111 681 CURVE SMOOTH",
"84 681 OFFCURVE",
"50 659 OFFCURVE",
"50 630 CURVE SMOOTH",
"50 601 OFFCURVE",
"82 579 OFFCURVE",
"110 579 CURVE SMOOTH",
"138 579 OFFCURVE",
"172 601 OFFCURVE",
"172 630 CURVE SMOOTH"
);
},
{
closed = 1;
nodes = (
"342 659 OFFCURVE",
"308 681 OFFCURVE",
"281 681 CURVE SMOOTH",
"254 681 OFFCURVE",
"220 659 OFFCURVE",
"220 630 CURVE SMOOTH",
"220 601 OFFCURVE",
"252 579 OFFCURVE",
"280 579 CURVE SMOOTH",
"308 579 OFFCURVE",
"342 601 OFFCURVE",
"342 630 CURVE SMOOTH"
);
}
);
width = 392;
}
);
note = dieresis;
rightKerningGroup = numbersign;
unicode = 00A8;
},
{
glyphname = copyright;
lastChange = "2016-07-31 02:30:00 +0000";
layers = (
{
layerId = "AE6579ED-DC47-4075-A6A3-4B1A21099458";
paths = (
{
closed = 1;
nodes = (
"182 144 OFFCURVE",
"150 161 OFFCURVE",
"150 262 CURVE SMOOTH",
"150 373 LINE SMOOTH",
"150 474 OFFCURVE",
"182 491 OFFCURVE",
"301 491 CURVE SMOOTH",
"330 491 LINE SMOOTH",
"446 491 OFFCURVE",
"480 474 OFFCURVE",
"480 373 CURVE SMOOTH",
"480 262 LINE SMOOTH",
"480 161 OFFCURVE",
"446 144 OFFCURVE",
"330 144 CURVE SMOOTH",
"301 144 LINE SMOOTH"
);
},
{
closed = 1;
nodes = (
"78 113 OFFCURVE",
"150 72 OFFCURVE",
"301 72 CURVE SMOOTH",
"330 72 LINE SMOOTH",
"479 72 OFFCURVE",
"552 113 OFFCURVE",
"552 262 CURVE SMOOTH",
"552 373 LINE SMOOTH",
"552 522 OFFCURVE",
"479 563 OFFCURVE",
"330 563 CURVE SMOOTH",
"301 563 LINE SMOOTH",
"150 563 OFFCURVE",
"78 522 OFFCURVE",
"78 373 CURVE SMOOTH",
"78 262 LINE SMOOTH"
);
},
{
closed = 1;
nodes = (
"425 394 OFFCURVE",
"405 431 OFFCURVE",
"360 431 CURVE SMOOTH",
"310 431 LINE SMOOTH",
"251 431 OFFCURVE",
"205 397 OFFCURVE",
"205 337 CURVE SMOOTH",
"205 298 LINE SMOOTH",
"205 238 OFFCURVE",
"251 204 OFFCURVE",
"310 204 CURVE SMOOTH",
"360 204 LINE SMOOTH",
"408 204 OFFCURVE",
"425 241 OFFCURVE",
"425 266 CURVE SMOOTH",
"425 291 OFFCURVE",
"410 299 OFFCURVE",
"395 299 CURVE SMOOTH",
"380 299 OFFCURVE",
"369 295 OFFCURVE",
"365 266 CURVE",
"365 265 OFFCURVE",
"363 265 OFFCURVE",
"358 265 CURVE SMOOTH",
"310 265 LINE SMOOTH",
"282 265 OFFCURVE",
"265 278 OFFCURVE",
"265 298 CURVE SMOOTH",
"265 337 LINE SMOOTH",
"265 357 OFFCURVE",
"282 370 OFFCURVE",
"310 370 CURVE SMOOTH",
"358 370 LINE SMOOTH",
"362 370 OFFCURVE",
"364 370 OFFCURVE",
"365 369 CURVE",
"366 359 LINE SMOOTH",
"367 344 OFFCURVE",
"376 336 OFFCURVE",
"393 336 CURVE SMOOTH",
"410 336 OFFCURVE",
"425 345 OFFCURVE",
"425 370 CURVE SMOOTH"
);
}
);
width = 630;
}
);
note = copyright;
rightKerningGroup = numbersign;
unicode = 00A9;
},
{
glyphname = ordfeminine;
lastChange = "2016-07-31 02:30:00 +0000";
layers = (
{
layerId = "AE6579ED-DC47-4075-A6A3-4B1A21099458";
paths = (
{
closed = 1;
nodes = (
"198 400 LINE SMOOTH",
"126 400 OFFCURVE",
"86 378 OFFCURVE",
"86 311 CURVE SMOOTH",
"86 272 OFFCURVE",
"115 234 OFFCURVE",
"156 234 CURVE SMOOTH",
"193 234 LINE SMOOTH",
"216 234 OFFCURVE",
"234 239 OFFCURVE",
"247 248 CURVE",
"253 237 OFFCURVE",
"261 231 OFFCURVE",
"271 231 CURVE SMOOTH",
"291 231 OFFCURVE",
"306 239 OFFCURVE",
"306 258 CURVE SMOOTH",
"306 397 LINE SMOOTH",
"306 445 OFFCURVE",
"283 476 OFFCURVE",
"238 476 CURVE SMOOTH",
"153 476 LINE SMOOTH",
"112 476 OFFCURVE",
"86 455 OFFCURVE",
"86 416 CURVE SMOOTH",
"86 400 OFFCURVE",
"101 389 OFFCURVE",
"117 389 CURVE SMOOTH",
"132 389 OFFCURVE",
"147 399 OFFCURVE",
"147 414 CURVE",
"148 415 OFFCURVE",
"151 415 OFFCURVE",
"156 415 CURVE SMOOTH",
"235 415 LINE SMOOTH",
"244 415 OFFCURVE",
"245 413 OFFCURVE",
"245 404 CURVE SMOOTH",
"245 400 LINE"
);
},
{
closed = 1;
nodes = (
"76 214 OFFCURVE",
"61 199 OFFCURVE",
"61 183 CURVE SMOOTH",
"61 166 OFFCURVE",
"72 149 OFFCURVE",
"97 149 CURVE SMOOTH",
"293 149 LINE SMOOTH",
"316 149 OFFCURVE",
"331 161 OFFCURVE",
"331 181 CURVE SMOOTH",
"331 200 OFFCURVE",
"316 214 OFFCURVE",
"293 214 CURVE SMOOTH",
"97 214 LINE SMOOTH"
);
},
{
closed = 1;
nodes = (
"239 310 OFFCURVE",
"222 295 OFFCURVE",
"193 295 CURVE SMOOTH",
"156 295 LINE",
"150 296 OFFCURVE",
"147 301 OFFCURVE",
"147 312 CURVE SMOOTH",
"147 323 OFFCURVE",
"150 330 OFFCURVE",
"156 334 CURVE",
"162 337 OFFCURVE",
"176 339 OFFCURVE",
"198 339 CURVE SMOOTH",
"244 339 LINE"
);
}
);
width = 392;
}
);
note = ordfeminine;
rightKerningGroup = numbersign;
unicode = 00AA;
},
{
glyphname = logicalnot;
lastChange = "2016-07-31 02:30:00 +0000";
layers = (
{
layerId = "AE6579ED-DC47-4075-A6A3-4B1A21099458";
paths = (
{
closed = 1;
nodes = (
"389 116 OFFCURVE",
"403 98 OFFCURVE",
"424 98 CURVE SMOOTH",
"449 98 OFFCURVE",
"462 112 OFFCURVE",
"462 141 CURVE SMOOTH",
"462 225 LINE SMOOTH",
"462 253 OFFCURVE",
"447 267 OFFCURVE",
"418 267 CURVE SMOOTH",
"120 267 LINE SMOOTH",
"91 267 OFFCURVE",
"79 248 OFFCURVE",
"79 231 CURVE SMOOTH",
"79 206 OFFCURVE",
"93 194 OFFCURVE",
"120 194 CURVE SMOOTH",
"389 194 LINE",
"389 141 LINE SMOOTH"
);
}
);
width = 543;
}
);
note = logicalnot;
rightKerningGroup = numbersign;
unicode = 00AC;
},
{
glyphname = registered;
lastChange = "2016-07-31 02:30:00 +0000";
layers = (
{
layerId = "AE6579ED-DC47-4075-A6A3-4B1A21099458";
paths = (
{
closed = 1;
nodes = (
"182 144 OFFCURVE",
"150 161 OFFCURVE",
"150 262 CURVE SMOOTH",
"150 373 LINE SMOOTH",
"150 474 OFFCURVE",
"182 491 OFFCURVE",
"301 491 CURVE SMOOTH",
"330 491 LINE SMOOTH",
"446 491 OFFCURVE",
"480 474 OFFCURVE",
"480 373 CURVE SMOOTH",
"480 262 LINE SMOOTH",
"480 161 OFFCURVE",
"446 144 OFFCURVE",
"330 144 CURVE SMOOTH",
"301 144 LINE SMOOTH"
);
},
{
closed = 1;
nodes = (
"78 113 OFFCURVE",
"150 72 OFFCURVE",
"301 72 CURVE SMOOTH",
"330 72 LINE SMOOTH",
"479 72 OFFCURVE",
"552 113 OFFCURVE",
"552 262 CURVE SMOOTH",
"552 373 LINE SMOOTH",
"552 522 OFFCURVE",
"479 563 OFFCURVE",
"330 563 CURVE SMOOTH",
"301 563 LINE SMOOTH",
"150 563 OFFCURVE",
"78 522 OFFCURVE",
"78 373 CURVE SMOOTH",
"78 262 LINE SMOOTH"
);
},
{
closed = 1;
nodes = (
"422 193 OFFCURVE",
"436 204 OFFCURVE",
"436 217 CURVE SMOOTH",
"436 236 OFFCURVE",
"421 263 OFFCURVE",
"392 297 CURVE",
"419 311 OFFCURVE",
"433 332 OFFCURVE",
"433 361 CURVE SMOOTH",
"433 411 OFFCURVE",
"393 436 OFFCURVE",
"314 436 CURVE SMOOTH",
"230 436 LINE SMOOTH",
"218 436 OFFCURVE",
"201 427 OFFCURVE",
"201 411 CURVE SMOOTH",
"201 217 LINE SMOOTH",
"201 204 OFFCURVE",
"215 193 OFFCURVE",
"232 193 CURVE SMOOTH",
"249 193 OFFCURVE",
"262 204 OFFCURVE",
"262 217 CURVE SMOOTH",
"262 288 LINE",
"320 288 LINE",
"348 271 OFFCURVE",
"371 229 OFFCURVE",
"375 214 CURVE",
"378 200 OFFCURVE",
"389 193 OFFCURVE",
"407 193 CURVE SMOOTH"
);
},
{
closed = 1;
nodes = (
"262 375 LINE",
"314 375 LINE SMOOTH",
"339 375 OFFCURVE",
"355 374 OFFCURVE",
"362 373 CURVE",
"369 371 OFFCURVE",
"372 367 OFFCURVE",
"372 361 CURVE SMOOTH",
"372 358 OFFCURVE",
"370 355 OFFCURVE",
"367 353 CURVE",
"364 350 OFFCURVE",
"346 349 OFFCURVE",
"314 349 CURVE SMOOTH",
"262 349 LINE"
);
}
);
width = 630;
}
);
leftKerningGroup = registered;
note = registered;
rightKerningGroup = registered;
unicode = 00AE;
},
{
glyphname = macron;
lastChange = "2016-07-31 02:30:00 +0000";
layers = (
{
layerId = "AE6579ED-DC47-4075-A6A3-4B1A21099458";
paths = (
{
closed = 1;
nodes = (
"62 736 OFFCURVE",
"50 717 OFFCURVE",
"50 700 CURVE SMOOTH",
"50 675 OFFCURVE",
"64 663 OFFCURVE",
"91 663 CURVE SMOOTH",
"336 663 LINE SMOOTH",
"361 663 OFFCURVE",
"380 677 OFFCURVE",
"380 698 CURVE SMOOTH",
"380 723 OFFCURVE",
"365 736 OFFCURVE",
"336 736 CURVE SMOOTH",
"91 736 LINE SMOOTH"
);
}
);
width = 429;
}
);
note = macron;
rightKerningGroup = numbersign;
unicode = 00AF;
},
{
glyphname = degree;
lastChange = "2016-07-31 02:30:00 +0000";
layers = (
{
layerId = "AE6579ED-DC47-4075-A6A3-4B1A21099458";
paths = (
{
closed = 1;
nodes = (
"260 622 OFFCURVE",
"300 582 OFFCURVE",
"300 535 CURVE SMOOTH",
"300 487 OFFCURVE",
"260 447 OFFCURVE",
"213 447 CURVE SMOOTH",
"165 447 OFFCURVE",
"125 487 OFFCURVE",
"125 535 CURVE SMOOTH",
"125 582 OFFCURVE",
"165 622 OFFCURVE",
"213 622 CURVE SMOOTH"
);
},
{
closed = 1;
nodes = (
"371 622 OFFCURVE",
"300 693 OFFCURVE",
"213 693 CURVE SMOOTH",
"125 693 OFFCURVE",
"54 622 OFFCURVE",
"54 535 CURVE SMOOTH",
"54 447 OFFCURVE",
"125 376 OFFCURVE",
"213 376 CURVE SMOOTH",
"300 376 OFFCURVE",
"371 447 OFFCURVE",
"371 535 CURVE SMOOTH"
);
}
);
width = 424;
}
);
note = degree;
rightKerningGroup = numbersign;
unicode = 00B0;
},
{
glyphname = plusminus;
lastChange = "2016-07-31 02:30:00 +0000";
layers = (
{
layerId = "AE6579ED-DC47-4075-A6A3-4B1A21099458";
paths = (
{
closed = 1;
nodes = (
"506 -10 OFFCURVE",
"525 4 OFFCURVE",
"525 25 CURVE SMOOTH",
"525 50 OFFCURVE",
"510 63 OFFCURVE",
"481 63 CURVE SMOOTH",
"103 63 LINE SMOOTH",
"76 63 OFFCURVE",
"62 51 OFFCURVE",
"62 28 CURVE SMOOTH",
"62 1 OFFCURVE",
"82 -10 OFFCURVE",
"103 -10 CURVE SMOOTH",
"481 -10 LINE SMOOTH"
);
},
{
closed = 1;
nodes = (
"257 115 OFFCURVE",
"269 101 OFFCURVE",
"293 101 CURVE SMOOTH",
"317 101 OFFCURVE",
"329 115 OFFCURVE",
"329 143 CURVE SMOOTH",
"329 255 LINE",
"481 255 LINE SMOOTH",
"506 255 OFFCURVE",
"525 271 OFFCURVE",
"525 292 CURVE SMOOTH",
"525 313 OFFCURVE",
"508 328 OFFCURVE",
"481 328 CURVE SMOOTH",
"329 328 LINE",
"329 440 LINE SMOOTH",
"329 469 OFFCURVE",
"317 483 OFFCURVE",
"293 483 CURVE SMOOTH",
"269 483 OFFCURVE",
"257 469 OFFCURVE",
"257 440 CURVE SMOOTH",
"257 328 LINE",
"103 328 LINE SMOOTH",
"76 328 OFFCURVE",
"62 316 OFFCURVE",
"62 293 CURVE SMOOTH",
"62 272 OFFCURVE",
"76 255 OFFCURVE",
"103 255 CURVE SMOOTH",
"257 255 LINE",
"257 143 LINE SMOOTH"
);
}
);
width = 587;
}
);
note = plusminus;
rightKerningGroup = numbersign;
unicode = 00B1;
},
{
glyphname = twosuperior;
lastChange = "2016-07-31 02:30:00 +0000";
layers = (
{
layerId = "AE6579ED-DC47-4075-A6A3-4B1A21099458";
paths = (
{
closed = 1;
nodes = (
"285 446 OFFCURVE",
"305 462 OFFCURVE",
"305 478 CURVE SMOOTH",
"305 494 OFFCURVE",
"285 508 OFFCURVE",
"268 509 CURVE",
"120 509 LINE",
"129 532 OFFCURVE",
"163 557 OFFCURVE",
"222 586 CURVE SMOOTH",
"277 614 OFFCURVE",
"305 645 OFFCURVE",
"305 680 CURVE SMOOTH",
"305 681 OFFCURVE",
"305 681 OFFCURVE",
"305 682 CURVE SMOOTH",
"305 765 OFFCURVE",
"258 782 OFFCURVE",
"170 782 CURVE SMOOTH",
"140 782 LINE SMOOTH",
"93 782 OFFCURVE",
"50 750 OFFCURVE",
"50 703 CURVE SMOOTH",
"50 683 OFFCURVE",
"68 670 OFFCURVE",
"85 670 CURVE SMOOTH",
"101 670 OFFCURVE",
"116 684 OFFCURVE",
"116 704 CURVE SMOOTH",
"116 714 OFFCURVE",
"125 719 OFFCURVE",
"144 719 CURVE SMOOTH",
"170 719 LINE SMOOTH",
"201 719 OFFCURVE",
"221 717 OFFCURVE",
"230 713 CURVE",
"238 709 OFFCURVE",
"242 699 OFFCURVE",
"242 682 CURVE SMOOTH",
"242 666 OFFCURVE",
"211 649 OFFCURVE",
"174 630 CURVE SMOOTH",
"155 621 OFFCURVE",
"137 610 OFFCURVE",
"118 598 CURVE SMOOTH",
"81 574 OFFCURVE",
"50 532 OFFCURVE",
"50 483 CURVE SMOOTH",
"50 446 LINE",
"268 446 LINE SMOOTH"
);
}
);
width = 355;
}
);
note = twosuperior;
rightKerningGroup = numbersign;
unicode = 00B2;
},
{
glyphname = threesuperior;
lastChange = "2016-07-31 02:30:00 +0000";
layers = (
{
layerId = "AE6579ED-DC47-4075-A6A3-4B1A21099458";
paths = (
{
closed = 1;
nodes = (
"218 665 OFFCURVE",
"173 649 OFFCURVE",
"147 649 CURVE SMOOTH",
"121 649 OFFCURVE",
"108 635 OFFCURVE",
"108 619 CURVE SMOOTH",
"108 603 OFFCURVE",
"117 586 OFFCURVE",
"145 586 CURVE SMOOTH",
"173 586 OFFCURVE",
"218 562 OFFCURVE",
"218 541 CURVE SMOOTH",
"218 523 OFFCURVE",
"209 513 OFFCURVE",
"192 510 CURVE SMOOTH",
"187 509 OFFCURVE",
"181 509 OFFCURVE",
"173 509 CURVE SMOOTH",
"169 509 OFFCURVE",
"164 509 OFFCURVE",
"159 509 CURVE SMOOTH",
"127 509 OFFCURVE",
"108 514 OFFCURVE",
"103 525 CURVE",
"102 541 OFFCURVE",
"89 555 OFFCURVE",
"70 555 CURVE SMOOTH",
"50 555 OFFCURVE",
"37 542 OFFCURVE",
"37 525 CURVE SMOOTH",
"37 486 OFFCURVE",
"84 446 OFFCURVE",
"153 446 CURVE SMOOTH",
"222 446 OFFCURVE",
"280 455 OFFCURVE",
"280 540 CURVE SMOOTH",
"280 570 OFFCURVE",
"264 596 OFFCURVE",
"233 618 CURVE",
"264 635 OFFCURVE",
"280 657 OFFCURVE",
"280 684 CURVE SMOOTH",
"280 753 OFFCURVE",
"252 782 OFFCURVE",
"149 782 CURVE SMOOTH",
"85 782 OFFCURVE",
"37 742 OFFCURVE",
"37 703 CURVE SMOOTH",
"37 686 OFFCURVE",
"50 673 OFFCURVE",
"70 673 CURVE SMOOTH",
"89 673 OFFCURVE",
"103 684 OFFCURVE",
"103 701 CURVE",
"104 713 OFFCURVE",
"136 719 OFFCURVE",
"168 719 CURVE SMOOTH",
"201 719 OFFCURVE",
"218 714 OFFCURVE",
"218 690 CURVE SMOOTH"
);
}
);
width = 325;
}
);
note = threesuperior;
rightKerningGroup = numbersign;
unicode = 00B3;
},
{
glyphname = acute;
lastChange = "2016-07-31 02:30:00 +0000";
layers = (
{
layerId = "AE6579ED-DC47-4075-A6A3-4B1A21099458";
paths = (
{
closed = 1;
nodes = (
"190 637 OFFCURVE",
"194 646 OFFCURVE",
"194 657 CURVE SMOOTH",
"194 678 OFFCURVE",
"178 693 OFFCURVE",
"158 693 CURVE SMOOTH",
"148 693 OFFCURVE",
"137 687 OFFCURVE",
"126 674 CURVE SMOOTH",
"30 559 LINE",
"23 549 OFFCURVE",
"19 539 OFFCURVE",
"19 530 CURVE SMOOTH",
"19 510 OFFCURVE",
"37 495 OFFCURVE",
"56 495 CURVE SMOOTH",
"65 495 OFFCURVE",
"76 501 OFFCURVE",
"87 514 CURVE SMOOTH",
"183 629 LINE SMOOTH"
);
}
);
width = 212;
}
);
note = acute;
rightKerningGroup = numbersign;
unicode = 00B4;
},
{
glyphname = paragraph;
lastChange = "2016-07-31 02:30:00 +0000";
layers = (
{
layerId = "AE6579ED-DC47-4075-A6A3-4B1A21099458";
paths = (
{
closed = 1;
nodes = (
"345 -8 OFFCURVE",
"357 -22 OFFCURVE",
"382 -22 CURVE SMOOTH",
"401 -22 OFFCURVE",
"417 -11 OFFCURVE",
"417 20 CURVE SMOOTH",
"417 651 LINE",
"257 651 LINE SMOOTH",
"112 651 OFFCURVE",
"35 608 OFFCURVE",
"35 493 CURVE SMOOTH",
"35 378 OFFCURVE",
"103 322 OFFCURVE",
"215 322 CURVE SMOOTH",
"242 322 LINE",
"242 20 LINE SMOOTH",
"242 -8 OFFCURVE",
"254 -22 OFFCURVE",
"279 -22 CURVE SMOOTH",
"298 -22 OFFCURVE",
"314 -11 OFFCURVE",
"314 20 CURVE SMOOTH",
"314 579 LINE",
"345 579 LINE",
"345 20 LINE SMOOTH"
);
}
);
width = 506;
}
);
note = paragraph;
rightKerningGroup = numbersign;
unicode = 00B6;
},
{
glyphname = periodcentered;
lastChange = "2016-07-31 02:30:00 +0000";
layers = (
{
layerId = "AE6579ED-DC47-4075-A6A3-4B1A21099458";
paths = (
{
closed = 1;
nodes = (
"187 416 OFFCURVE",
"153 438 OFFCURVE",
"126 438 CURVE SMOOTH",
"99 438 OFFCURVE",
"65 416 OFFCURVE",
"65 387 CURVE SMOOTH",
"65 358 OFFCURVE",
"97 336 OFFCURVE",
"125 336 CURVE SMOOTH",
"153 336 OFFCURVE",
"187 358 OFFCURVE",
"187 387 CURVE SMOOTH"
);
}
);
width = 252;
}
);
note = periodcentered;
rightKerningGroup = numbersign;
unicode = 00B7;
},
{
glyphname = cedilla;
lastChange = "2016-07-31 02:30:00 +0000";
layers = (
{
layerId = "AE6579ED-DC47-4075-A6A3-4B1A21099458";
paths = (
{
closed = 1;
nodes = (
"81 10 LINE",
"81 5 LINE SMOOTH",
"81 -36 OFFCURVE",
"110 -68 OFFCURVE",
"133 -83 CURVE",
"144 -91 OFFCURVE",
"150 -96 OFFCURVE",
"150 -98 CURVE SMOOTH",
"150 -103 OFFCURVE",
"149 -109 OFFCURVE",
"146 -114 CURVE",
"143 -122 OFFCURVE",
"134 -123 OFFCURVE",
"120 -123 CURVE SMOOTH",
"113 -123 OFFCURVE",
"102 -119 OFFCURVE",
"87 -112 CURVE SMOOTH",
"72 -105 OFFCURVE",
"61 -102 OFFCURVE",
"54 -102 CURVE SMOOTH",
"39 -102 OFFCURVE",
"27 -110 OFFCURVE",
"27 -134 CURVE SMOOTH",
"27 -158 OFFCURVE",
"59 -190 OFFCURVE",
"116 -190 CURVE SMOOTH",
"172 -190 OFFCURVE",
"222 -156 OFFCURVE",
"222 -99 CURVE SMOOTH",
"222 -70 OFFCURVE",
"204 -47 OFFCURVE",
"188 -36 CURVE",
"165 -23 OFFCURVE",
"154 -9 OFFCURVE",
"153 5 CURVE",
"153 10 LINE"
);
}
);
width = 242;
}
);
note = cedilla;
rightKerningGroup = numbersign;
unicode = 00B8;
},
{
glyphname = onesuperior;
lastChange = "2016-07-31 02:30:00 +0000";
layers = (
{
layerId = "AE6579ED-DC47-4075-A6A3-4B1A21099458";
paths = (
{
closed = 1;
nodes = (
"59 455 OFFCURVE",
"70 443 OFFCURVE",
"91 443 CURVE SMOOTH",
"112 443 OFFCURVE",
"123 455 OFFCURVE",
"123 480 CURVE SMOOTH",
"123 751 LINE SMOOTH",
"123 774 OFFCURVE",
"104 785 OFFCURVE",
"88 785 CURVE SMOOTH",
"80 785 OFFCURVE",
"71 781 OFFCURVE",
"61 772 CURVE",
"12 721 LINE SMOOTH",
"2 711 OFFCURVE",
"-3 702 OFFCURVE",
"-3 694 CURVE SMOOTH",
"-3 678 OFFCURVE",
"8 663 OFFCURVE",
"28 663 CURVE SMOOTH",
"38 663 OFFCURVE",
"48 668 OFFCURVE",
"59 679 CURVE",
"59 480 LINE SMOOTH"
);
}
);
width = 182;
}
);
note = onesuperior;
rightKerningGroup = numbersign;
unicode = 00B9;
},
{
glyphname = ordmasculine;
lastChange = "2016-07-31 02:30:00 +0000";
layers = (
{
layerId = "AE6579ED-DC47-4075-A6A3-4B1A21099458";
paths = (
{
closed = 1;
nodes = (
"151 295 OFFCURVE",
"147 297 OFFCURVE",
"147 333 CURVE SMOOTH",
"147 377 LINE SMOOTH",
"147 413 OFFCURVE",
"151 415 OFFCURVE",
"191 415 CURVE SMOOTH",
"200 415 LINE SMOOTH",
"241 415 OFFCURVE",
"245 413 OFFCURVE",
"245 377 CURVE SMOOTH",
"245 333 LINE SMOOTH",
"245 297 OFFCURVE",
"241 295 OFFCURVE",
"200 295 CURVE SMOOTH",
"191 295 LINE SMOOTH"
);
},
{
closed = 1;
nodes = (
"86 257 OFFCURVE",
"116 234 OFFCURVE",
"191 234 CURVE SMOOTH",
"200 234 LINE SMOOTH",
"276 234 OFFCURVE",
"306 257 OFFCURVE",
"306 333 CURVE SMOOTH",
"306 377 LINE SMOOTH",
"306 453 OFFCURVE",
"276 476 OFFCURVE",
"200 476 CURVE SMOOTH",
"191 476 LINE SMOOTH",
"116 476 OFFCURVE",
"86 453 OFFCURVE",
"86 377 CURVE SMOOTH",
"86 333 LINE SMOOTH"
);
},
{
closed = 1;
nodes = (
"76 214 OFFCURVE",
"61 198 OFFCURVE",
"61 182 CURVE SMOOTH",
"61 166 OFFCURVE",
"72 149 OFFCURVE",
"97 149 CURVE SMOOTH",
"293 149 LINE SMOOTH",
"316 149 OFFCURVE",
"331 161 OFFCURVE",
"331 180 CURVE",
"330 199 OFFCURVE",
"316 214 OFFCURVE",
"293 214 CURVE SMOOTH",
"97 214 LINE SMOOTH"
);
}
);
width = 392;
}
);
note = ordmasculine;
rightKerningGroup = numbersign;
unicode = 00BA;
},
{
glyphname = onequarter;
lastChange = "2016-07-31 02:30:06 +0000";
layers = (
{
layerId = "AE6579ED-DC47-4075-A6A3-4B1A21099458";
paths = (
{
closed = 1;
nodes = (
"523 85 LINE SMOOTH",
"524 85 OFFCURVE",
"524 85 OFFCURVE",
"525 85 CURVE SMOOTH",
"548 85 OFFCURVE",
"559 95 OFFCURVE",
"559 116 CURVE SMOOTH",
"559 137 OFFCURVE",
"547 148 OFFCURVE",
"523 148 CURVE SMOOTH",
"489 148 LINE",
"489 320 LINE",
"419 320 LINE",
"293 151 LINE",
"293 85 LINE",
"425 85 LINE",
"425 18 LINE SMOOTH",
"425 -7 OFFCURVE",
"436 -19 OFFCURVE",
"457 -19 CURVE SMOOTH",
"478 -19 OFFCURVE",
"489 -7 OFFCURVE",
"489 18 CURVE SMOOTH",
"489 85 LINE"
);
},
{
closed = 1;
nodes = (
"425 226 LINE",
"425 148 LINE",
"367 148 LINE"
);
},
{
closed = 1;
nodes = (
"150 321 OFFCURVE",
"161 309 OFFCURVE",
"182 309 CURVE SMOOTH",
"203 309 OFFCURVE",
"214 321 OFFCURVE",
"214 346 CURVE SMOOTH",
"214 617 LINE SMOOTH",
"214 640 OFFCURVE",
"195 651 OFFCURVE",
"179 651 CURVE SMOOTH",
"171 651 OFFCURVE",
"162 647 OFFCURVE",
"152 638 CURVE",
"103 587 LINE SMOOTH",
"93 577 OFFCURVE",
"88 568 OFFCURVE",
"88 560 CURVE SMOOTH",
"88 544 OFFCURVE",
"99 529 OFFCURVE",
"119 529 CURVE SMOOTH",
"129 529 OFFCURVE",
"139 534 OFFCURVE",
"150 545 CURVE",
"150 346 LINE SMOOTH"
);
},
{
closed = 1;
nodes = (
"523 498 OFFCURVE",
"528 508 OFFCURVE",
"528 519 CURVE SMOOTH",
"528 540 OFFCURVE",
"515 549 OFFCURVE",
"496 549 CURVE SMOOTH",
"487 549 OFFCURVE",
"477 544 OFFCURVE",
"467 535 CURVE",
"56 124 LINE",
"47 114 OFFCURVE",
"42 104 OFFCURVE",
"42 93 CURVE SMOOTH",
"42 72 OFFCURVE",
"55 63 OFFCURVE",
"74 63 CURVE SMOOTH",
"83 63 OFFCURVE",
"93 68 OFFCURVE",
"103 77 CURVE",
"514 488 LINE"
);
}
);
width = 602;
}
);
note = onequarter;
rightKerningGroup = numbersign;
unicode = 00BC;
},
{
glyphname = onehalf;
lastChange = "2016-07-31 02:30:06 +0000";
layers = (
{
layerId = "AE6579ED-DC47-4075-A6A3-4B1A21099458";
paths = (
{
closed = 1;
nodes = (
"558 -16 OFFCURVE",
"578 0 OFFCURVE",
"578 16 CURVE SMOOTH",
"578 32 OFFCURVE",
"558 46 OFFCURVE",
"541 47 CURVE",
"393 47 LINE",
"402 70 OFFCURVE",
"436 95 OFFCURVE",
"495 124 CURVE SMOOTH",
"550 152 OFFCURVE",
"578 183 OFFCURVE",
"578 218 CURVE SMOOTH",
"578 219 OFFCURVE",
"578 219 OFFCURVE",
"578 220 CURVE SMOOTH",
"578 303 OFFCURVE",
"531 320 OFFCURVE",
"443 320 CURVE SMOOTH",
"413 320 LINE SMOOTH",
"366 320 OFFCURVE",
"323 288 OFFCURVE",
"323 241 CURVE SMOOTH",
"323 221 OFFCURVE",
"341 208 OFFCURVE",
"358 208 CURVE SMOOTH",
"374 208 OFFCURVE",
"389 222 OFFCURVE",
"389 242 CURVE SMOOTH",
"389 252 OFFCURVE",
"398 257 OFFCURVE",
"417 257 CURVE SMOOTH",
"443 257 LINE SMOOTH",
"474 257 OFFCURVE",
"494 255 OFFCURVE",
"503 251 CURVE",
"511 247 OFFCURVE",
"515 237 OFFCURVE",
"515 220 CURVE SMOOTH",
"515 204 OFFCURVE",
"484 187 OFFCURVE",
"447 168 CURVE SMOOTH",
"428 159 OFFCURVE",
"410 148 OFFCURVE",
"391 136 CURVE SMOOTH",
"354 112 OFFCURVE",
"323 70 OFFCURVE",
"323 21 CURVE SMOOTH",
"323 -16 LINE",
"541 -16 LINE SMOOTH"
);
},
{
closed = 1;
nodes = (
"158 321 OFFCURVE",
"169 309 OFFCURVE",
"190 309 CURVE SMOOTH",
"211 309 OFFCURVE",
"222 321 OFFCURVE",
"222 346 CURVE SMOOTH",
"222 617 LINE SMOOTH",
"222 640 OFFCURVE",
"203 651 OFFCURVE",
"187 651 CURVE SMOOTH",
"179 651 OFFCURVE",
"170 647 OFFCURVE",
"160 638 CURVE",
"111 587 LINE SMOOTH",
"101 577 OFFCURVE",
"96 568 OFFCURVE",
"96 560 CURVE SMOOTH",
"96 544 OFFCURVE",
"107 529 OFFCURVE",
"127 529 CURVE SMOOTH",
"137 529 OFFCURVE",
"147 534 OFFCURVE",
"158 545 CURVE",
"158 346 LINE SMOOTH"
);
},
{
closed = 1;
nodes = (
"520 498 OFFCURVE",
"525 508 OFFCURVE",
"525 519 CURVE SMOOTH",
"525 540 OFFCURVE",
"512 549 OFFCURVE",
"493 549 CURVE SMOOTH",
"484 549 OFFCURVE",
"474 544 OFFCURVE",
"464 535 CURVE",
"53 124 LINE",
"44 114 OFFCURVE",
"39 104 OFFCURVE",
"39 93 CURVE SMOOTH",
"39 72 OFFCURVE",
"52 63 OFFCURVE",
"71 63 CURVE SMOOTH",
"80 63 OFFCURVE",
"90 68 OFFCURVE",
"100 77 CURVE",
"511 488 LINE"
);
}
);
width = 631;
}
);
note = onehalf;
rightKerningGroup = numbersign;
unicode = 00BD;
},
{
glyphname = threequarters;
lastChange = "2016-07-31 02:30:06 +0000";
layers = (
{
layerId = "AE6579ED-DC47-4075-A6A3-4B1A21099458";
paths = (
{
closed = 1;
nodes = (
"569 85 LINE SMOOTH",
"570 85 OFFCURVE",
"570 85 OFFCURVE",
"571 85 CURVE SMOOTH",
"594 85 OFFCURVE",
"605 95 OFFCURVE",
"605 116 CURVE SMOOTH",
"605 137 OFFCURVE",
"593 148 OFFCURVE",
"569 148 CURVE SMOOTH",
"535 148 LINE",
"535 320 LINE",
"465 320 LINE",
"339 151 LINE",
"339 85 LINE",
"471 85 LINE",
"471 18 LINE SMOOTH",
"471 -7 OFFCURVE",
"482 -19 OFFCURVE",
"503 -19 CURVE SMOOTH",
"524 -19 OFFCURVE",
"535 -7 OFFCURVE",
"535 18 CURVE SMOOTH",
"535 85 LINE"
);
},
{
closed = 1;
nodes = (
"471 226 LINE",
"471 148 LINE",
"413 148 LINE"
);
},
{
closed = 1;
nodes = (
"243 534 OFFCURVE",
"198 518 OFFCURVE",
"172 518 CURVE SMOOTH",
"146 518 OFFCURVE",
"133 504 OFFCURVE",
"133 488 CURVE SMOOTH",
"133 472 OFFCURVE",
"142 455 OFFCURVE",
"170 455 CURVE SMOOTH",
"198 455 OFFCURVE",
"243 431 OFFCURVE",
"243 410 CURVE SMOOTH",
"243 392 OFFCURVE",
"234 382 OFFCURVE",
"217 379 CURVE SMOOTH",
"212 378 OFFCURVE",
"206 378 OFFCURVE",
"198 378 CURVE SMOOTH",
"194 378 OFFCURVE",
"189 378 OFFCURVE",
"184 378 CURVE SMOOTH",
"152 378 OFFCURVE",
"133 383 OFFCURVE",
"128 394 CURVE",
"127 410 OFFCURVE",
"114 424 OFFCURVE",
"95 424 CURVE SMOOTH",
"75 424 OFFCURVE",
"62 411 OFFCURVE",
"62 394 CURVE SMOOTH",
"62 355 OFFCURVE",
"109 315 OFFCURVE",
"178 315 CURVE SMOOTH",
"247 315 OFFCURVE",
"305 324 OFFCURVE",
"305 409 CURVE SMOOTH",
"305 439 OFFCURVE",
"289 465 OFFCURVE",
"258 487 CURVE",
"289 504 OFFCURVE",
"305 526 OFFCURVE",
"305 553 CURVE SMOOTH",
"305 622 OFFCURVE",
"277 651 OFFCURVE",
"174 651 CURVE SMOOTH",
"110 651 OFFCURVE",
"62 611 OFFCURVE",
"62 572 CURVE SMOOTH",
"62 555 OFFCURVE",
"75 542 OFFCURVE",
"95 542 CURVE SMOOTH",
"114 542 OFFCURVE",
"128 553 OFFCURVE",
"128 570 CURVE",
"129 582 OFFCURVE",
"161 588 OFFCURVE",
"193 588 CURVE SMOOTH",
"226 588 OFFCURVE",
"243 583 OFFCURVE",
"243 559 CURVE SMOOTH"
);
},
{
closed = 1;
nodes = (
"574 498 OFFCURVE",
"579 508 OFFCURVE",
"579 519 CURVE SMOOTH",
"579 540 OFFCURVE",
"566 549 OFFCURVE",
"547 549 CURVE SMOOTH",
"538 549 OFFCURVE",
"528 544 OFFCURVE",
"518 535 CURVE",
"107 124 LINE",
"98 114 OFFCURVE",
"93 104 OFFCURVE",
"93 93 CURVE SMOOTH",
"93 72 OFFCURVE",
"106 63 OFFCURVE",
"125 63 CURVE SMOOTH",
"134 63 OFFCURVE",
"144 68 OFFCURVE",
"154 77 CURVE",
"565 488 LINE"
);
}
);
width = 650;
}
);
note = threequarters;
rightKerningGroup = numbersign;
unicode = 00BE;
},
{
glyphname = questiondown;
lastChange = "2016-07-31 02:30:00 +0000";
layers = (
{
layerId = "AE6579ED-DC47-4075-A6A3-4B1A21099458";
paths = (
{
closed = 1;
nodes = (
"228 420 OFFCURVE",
"263 399 OFFCURVE",
"290 399 CURVE SMOOTH",
"317 399 OFFCURVE",
"351 421 OFFCURVE",
"351 450 CURVE SMOOTH",
"351 479 OFFCURVE",
"317 501 OFFCURVE",
"289 501 CURVE SMOOTH",
"261 501 OFFCURVE",
"228 480 OFFCURVE",
"228 450 CURVE SMOOTH"
);
},
{
closed = 1;
nodes = (
"325 314 OFFCURVE",
"313 328 OFFCURVE",
"289 328 CURVE SMOOTH",
"265 328 OFFCURVE",
"253 314 OFFCURVE",
"253 285 CURVE SMOOTH",
"253 188 LINE",
"172 165 LINE SMOOTH",
"73 137 OFFCURVE",
"36 89 OFFCURVE",
"36 -6 CURVE SMOOTH",
"36 -101 OFFCURVE",
"89 -180 OFFCURVE",
"213 -180 CURVE SMOOTH",
"289 -180 LINE SMOOTH",
"362 -180 OFFCURVE",
"407 -173 OFFCURVE",
"450 -146 CURVE SMOOTH",
"491 -121 OFFCURVE",
"512 -69 OFFCURVE",
"512 8 CURVE SMOOTH",
"512 39 OFFCURVE",
"494 51 OFFCURVE",
"474 51 CURVE SMOOTH",
"454 51 OFFCURVE",
"439 33 OFFCURVE",
"439 8 CURVE SMOOTH",
"439 -93 OFFCURVE",
"409 -108 OFFCURVE",
"289 -108 CURVE SMOOTH",
"195 -108 LINE SMOOTH",
"135 -108 OFFCURVE",
"108 -55 OFFCURVE",
"108 -6 CURVE SMOOTH",
"108 42 OFFCURVE",
"131 80 OFFCURVE",
"160 88 CURVE SMOOTH",
"325 133 LINE",
"325 285 LINE SMOOTH"
);
}
);
width = 545;
}
);
note = questiondown;
rightKerningGroup = questiondown;
unicode = 00BF;
},
{
glyphname = Agrave;
lastChange = "2016-07-31 02:30:06 +0000";
layers = (
{
layerId = "AE6579ED-DC47-4075-A6A3-4B1A21099458";
paths = (
{
closed = 1;
nodes = (
"244 814 OFFCURVE",
"233 819 OFFCURVE",
"224 819 CURVE SMOOTH",
"205 819 OFFCURVE",
"187 803 OFFCURVE",
"187 784 CURVE SMOOTH",
"187 775 OFFCURVE",
"192 764 OFFCURVE",
"202 753 CURVE",
"271 685 LINE",
"281 674 OFFCURVE",
"291 668 OFFCURVE",
"302 668 CURVE SMOOTH",
"323 668 OFFCURVE",
"339 685 OFFCURVE",
"339 704 CURVE SMOOTH",
"339 713 OFFCURVE",
"334 723 OFFCURVE",
"325 733 CURVE",
"255 803 LINE SMOOTH"
);
},
{
closed = 1;
nodes = (
"27 37 LINE",
"25 31 OFFCURVE",
"24 23 OFFCURVE",
"24 14 CURVE SMOOTH",
"24 -5 OFFCURVE",
"45 -16 OFFCURVE",
"60 -16 CURVE SMOOTH",
"77 -16 OFFCURVE",
"89 -7 OFFCURVE",
"97 12 CURVE SMOOTH",
"166 189 LINE",
"444 189 LINE",
"513 12 LINE SMOOTH",
"520 -7 OFFCURVE",
"533 -16 OFFCURVE",
"550 -16 CURVE SMOOTH",
"565 -16 OFFCURVE",
"586 -5 OFFCURVE",
"586 14 CURVE SMOOTH",
"586 23 OFFCURVE",
"585 31 OFFCURVE",
"583 37 CURVE",
"346 636 LINE",
"264 636 LINE"
);
},
{
closed = 1;
nodes = (
"415 261 LINE",
"195 261 LINE",
"304 532 LINE"
);
}
);
width = 610;
}
);
leftKerningGroup = A;
note = Agrave;
rightKerningGroup = A;
unicode = 00C0;
},
{
glyphname = Aacute;
lastChange = "2016-07-31 02:30:06 +0000";
layers = (
{
layerId = "AE6579ED-DC47-4075-A6A3-4B1A21099458";
paths = (
{
closed = 1;
nodes = (
"256 722 OFFCURVE",
"251 713 OFFCURVE",
"251 704 CURVE SMOOTH",
"251 686 OFFCURVE",
"266 668 OFFCURVE",
"288 668 CURVE SMOOTH",
"299 668 OFFCURVE",
"309 674 OFFCURVE",
"319 685 CURVE",
"388 753 LINE",
"398 764 OFFCURVE",
"403 775 OFFCURVE",
"403 784 CURVE SMOOTH",
"403 802 OFFCURVE",
"385 819 OFFCURVE",
"366 819 CURVE SMOOTH",
"357 819 OFFCURVE",
"346 814 OFFCURVE",
"335 803 CURVE SMOOTH",
"265 733 LINE"
);
},
{
closed = 1;
nodes = (
"27 37 LINE",
"25 31 OFFCURVE",
"24 23 OFFCURVE",
"24 14 CURVE SMOOTH",
"24 -5 OFFCURVE",
"45 -16 OFFCURVE",
"60 -16 CURVE SMOOTH",
"77 -16 OFFCURVE",
"89 -7 OFFCURVE",
"97 12 CURVE SMOOTH",
"166 189 LINE",
"444 189 LINE",
"513 12 LINE SMOOTH",
"520 -7 OFFCURVE",
"533 -16 OFFCURVE",
"550 -16 CURVE SMOOTH",
"565 -16 OFFCURVE",
"586 -5 OFFCURVE",
"586 14 CURVE SMOOTH",
"586 23 OFFCURVE",
"585 31 OFFCURVE",
"583 37 CURVE",
"346 636 LINE",
"264 636 LINE"
);
},
{
closed = 1;
nodes = (
"415 261 LINE",
"195 261 LINE",
"304 532 LINE"
);
}
);
width = 610;
}
);
leftKerningGroup = A;
note = Aacute;
rightKerningGroup = A;
unicode = 00C1;
},
{
glyphname = Acircumflex;
lastChange = "2016-07-31 02:30:06 +0000";
layers = (
{
layerId = "AE6579ED-DC47-4075-A6A3-4B1A21099458";
paths = (
{
closed = 1;
nodes = (
"157 696 OFFCURVE",
"154 688 OFFCURVE",
"154 679 CURVE SMOOTH",
"154 660 OFFCURVE",
"165 651 OFFCURVE",
"187 651 CURVE SMOOTH",
"196 651 OFFCURVE",
"204 653 OFFCURVE",
"209 657 CURVE",
"211 658 OFFCURVE",
"213 661 OFFCURVE",
"216 664 CURVE SMOOTH",
"219 667 OFFCURVE",
"221 668 OFFCURVE",
"222 669 CURVE",
"305 738 LINE",
"389 669 LINE SMOOTH",
"397 662 OFFCURVE",
"402 658 OFFCURVE",
"405 655 CURVE SMOOTH",
"408 652 OFFCURVE",
"414 651 OFFCURVE",
"424 651 CURVE SMOOTH",
"446 651 OFFCURVE",
"457 660 OFFCURVE",
"457 679 CURVE SMOOTH",
"457 688 OFFCURVE",
"454 696 OFFCURVE",
"449 703 CURVE",
"338 819 LINE",
"271 819 LINE",
"162 703 LINE"
);
},
{
closed = 1;
nodes = (
"27 37 LINE",
"25 31 OFFCURVE",
"24 23 OFFCURVE",
"24 14 CURVE SMOOTH",
"24 -5 OFFCURVE",
"45 -16 OFFCURVE",
"60 -16 CURVE SMOOTH",
"77 -16 OFFCURVE",
"89 -7 OFFCURVE",
"97 12 CURVE SMOOTH",
"166 189 LINE",
"444 189 LINE",
"513 12 LINE SMOOTH",
"520 -7 OFFCURVE",
"533 -16 OFFCURVE",
"550 -16 CURVE SMOOTH",
"565 -16 OFFCURVE",
"586 -5 OFFCURVE",
"586 14 CURVE SMOOTH",
"586 23 OFFCURVE",
"585 31 OFFCURVE",
"583 37 CURVE",
"346 636 LINE",
"264 636 LINE"
);
},
{
closed = 1;
nodes = (
"415 261 LINE",
"195 261 LINE",
"304 532 LINE"
);
}
);
width = 610;
}
);
leftKerningGroup = A;
note = Acircumflex;
rightKerningGroup = A;
unicode = 00C2;
},
{
glyphname = Atilde;
lastChange = "2016-07-31 02:30:06 +0000";
layers = (
{
layerId = "AE6579ED-DC47-4075-A6A3-4B1A21099458";
paths = (
{
closed = 1;
nodes = (
"352 693 OFFCURVE",
"360 691 OFFCURVE",
"367 691 CURVE SMOOTH",
"374 691 OFFCURVE",
"383 695 OFFCURVE",
"393 702 CURVE",
"437 740 LINE",
"449 749 OFFCURVE",
"455 760 OFFCURVE",
"456 772 CURVE",
"456 796 OFFCURVE",
"437 808 OFFCURVE",
"418 808 CURVE SMOOTH",
"409 808 OFFCURVE",
"400 804 OFFCURVE",
"393 797 CURVE",
"363 771 LINE",
"361 769 OFFCURVE",
"359 768 OFFCURVE",
"358 768 CURVE SMOOTH",
"357 768 OFFCURVE",
"355 769 OFFCURVE",
"353 770 CURVE",
"266 803 LINE SMOOTH",
"258 806 OFFCURVE",
"250 808 OFFCURVE",
"242 808 CURVE SMOOTH",
"234 808 OFFCURVE",
"226 804 OFFCURVE",
"217 797 CURVE",
"172 759 LINE SMOOTH",
"160 749 OFFCURVE",
"154 738 OFFCURVE",
"154 727 CURVE SMOOTH",
"154 704 OFFCURVE",
"173 691 OFFCURVE",
"192 691 CURVE SMOOTH",
"201 691 OFFCURVE",
"210 695 OFFCURVE",
"217 702 CURVE",
"246 728 LINE",
"248 730 OFFCURVE",
"250 731 OFFCURVE",
"251 731 CURVE SMOOTH",
"252 731 OFFCURVE",
"254 730 OFFCURVE",
"257 729 CURVE",
"343 696 LINE"
);
},
{
closed = 1;
nodes = (
"27 37 LINE",
"25 31 OFFCURVE",
"24 23 OFFCURVE",
"24 14 CURVE SMOOTH",
"24 -5 OFFCURVE",
"45 -16 OFFCURVE",
"60 -16 CURVE SMOOTH",
"77 -16 OFFCURVE",
"89 -7 OFFCURVE",
"97 12 CURVE SMOOTH",
"166 189 LINE",
"444 189 LINE",
"513 12 LINE SMOOTH",
"520 -7 OFFCURVE",
"533 -16 OFFCURVE",
"550 -16 CURVE SMOOTH",
"565 -16 OFFCURVE",
"586 -5 OFFCURVE",
"586 14 CURVE SMOOTH",
"586 23 OFFCURVE",
"585 31 OFFCURVE",
"583 37 CURVE",
"346 636 LINE",
"264 636 LINE"
);
},
{
closed = 1;
nodes = (
"415 261 LINE",
"195 261 LINE",
"304 532 LINE"
);
}
);
width = 610;
}
);
leftKerningGroup = A;
note = Atilde;
rightKerningGroup = A;
unicode = 00C3;
},
{
glyphname = Adieresis;
lastChange = "2016-07-31 02:30:06 +0000";
layers = (
{
layerId = "AE6579ED-DC47-4075-A6A3-4B1A21099458";
paths = (
{
closed = 1;
nodes = (
"281 786 OFFCURVE",
"247 808 OFFCURVE",
"220 808 CURVE SMOOTH",
"193 808 OFFCURVE",
"159 786 OFFCURVE",
"159 757 CURVE SMOOTH",
"159 728 OFFCURVE",
"191 706 OFFCURVE",
"219 706 CURVE SMOOTH",
"247 706 OFFCURVE",
"281 728 OFFCURVE",
"281 757 CURVE SMOOTH"
);
},
{
closed = 1;
nodes = (
"451 786 OFFCURVE",
"417 808 OFFCURVE",
"390 808 CURVE SMOOTH",
"363 808 OFFCURVE",
"329 786 OFFCURVE",
"329 757 CURVE SMOOTH",
"329 728 OFFCURVE",
"361 706 OFFCURVE",
"389 706 CURVE SMOOTH",
"417 706 OFFCURVE",
"451 728 OFFCURVE",
"451 757 CURVE SMOOTH"
);
},
{
closed = 1;
nodes = (
"27 37 LINE",
"25 31 OFFCURVE",
"24 23 OFFCURVE",
"24 14 CURVE SMOOTH",
"24 -5 OFFCURVE",
"45 -16 OFFCURVE",
"60 -16 CURVE SMOOTH",
"77 -16 OFFCURVE",
"89 -7 OFFCURVE",
"97 12 CURVE SMOOTH",
"166 189 LINE",
"444 189 LINE",
"513 12 LINE SMOOTH",
"520 -7 OFFCURVE",
"533 -16 OFFCURVE",
"550 -16 CURVE SMOOTH",
"565 -16 OFFCURVE",
"586 -5 OFFCURVE",
"586 14 CURVE SMOOTH",
"586 23 OFFCURVE",
"585 31 OFFCURVE",
"583 37 CURVE",
"346 636 LINE",
"264 636 LINE"
);
},
{
closed = 1;
nodes = (
"415 261 LINE",
"195 261 LINE",
"304 532 LINE"
);
}
);
width = 610;
}
);
leftKerningGroup = A;
note = Adieresis;
rightKerningGroup = A;
unicode = 00C4;
},
{
glyphname = Aring;
lastChange = "2016-07-31 02:30:06 +0000";
layers = (
{
layerId = "AE6579ED-DC47-4075-A6A3-4B1A21099458";
paths = (
{
closed = 1;
nodes = (
"289 762 OFFCURVE",
"296 765 OFFCURVE",
"305 765 CURVE SMOOTH",
"322 765 OFFCURVE",
"338 751 OFFCURVE",
"338 732 CURVE SMOOTH",
"338 713 OFFCURVE",
"322 699 OFFCURVE",
"305 699 CURVE SMOOTH",
"288 699 OFFCURVE",
"272 713 OFFCURVE",
"272 732 CURVE SMOOTH",
"272 741 OFFCURVE",
"275 749 OFFCURVE",
"282 756 CURVE"
);
},
{
closed = 1;
nodes = (
"227 777 OFFCURVE",
"218 756 OFFCURVE",
"218 732 CURVE SMOOTH",
"218 684 OFFCURVE",
"257 645 OFFCURVE",
"305 645 CURVE SMOOTH",
"353 645 OFFCURVE",
"392 684 OFFCURVE",
"392 732 CURVE SMOOTH",
"392 780 OFFCURVE",
"353 819 OFFCURVE",
"305 819 CURVE SMOOTH",
"281 819 OFFCURVE",
"261 811 OFFCURVE",
"244 794 CURVE SMOOTH"
);
},
{
closed = 1;
nodes = (
"27 37 LINE",
"25 31 OFFCURVE",
"24 23 OFFCURVE",
"24 14 CURVE SMOOTH",
"24 -5 OFFCURVE",
"45 -16 OFFCURVE",
"60 -16 CURVE SMOOTH",
"77 -16 OFFCURVE",
"89 -7 OFFCURVE",
"97 12 CURVE SMOOTH",
"166 189 LINE",
"444 189 LINE",
"513 12 LINE SMOOTH",
"520 -7 OFFCURVE",
"533 -16 OFFCURVE",
"550 -16 CURVE SMOOTH",
"565 -16 OFFCURVE",
"586 -5 OFFCURVE",
"586 14 CURVE SMOOTH",
"586 23 OFFCURVE",
"585 31 OFFCURVE",
"583 37 CURVE",
"346 636 LINE",
"264 636 LINE"
);
},
{
closed = 1;
nodes = (
"415 261 LINE",
"195 261 LINE",
"304 532 LINE"
);
}
);
width = 610;
}
);
leftKerningGroup = A;
note = Aring;
rightKerningGroup = A;
unicode = 00C5;
},
{
glyphname = AE;
lastChange = "2016-07-31 02:30:00 +0000";
layers = (
{
layerId = "AE6579ED-DC47-4075-A6A3-4B1A21099458";
paths = (
{
closed = 1;
nodes = (
"724 317 OFFCURVE",
"740 328 OFFCURVE",
"740 351 CURVE SMOOTH",
"740 376 OFFCURVE",
"724 389 OFFCURVE",
"692 389 CURVE SMOOTH",
"482 389 LINE",
"482 569 LINE",
"813 569 LINE SMOOTH",
"842 569 OFFCURVE",
"857 580 OFFCURVE",
"857 603 CURVE SMOOTH",
"857 628 OFFCURVE",
"842 641 OFFCURVE",
"813 641 CURVE SMOOTH",
"442 641 LINE SMOOTH",
"430 641 OFFCURVE",
"421 636 OFFCURVE",
"414 627 CURVE",
"20 39 LINE",
"13 30 OFFCURVE",
"10 21 OFFCURVE",
"10 12 CURVE SMOOTH",
"10 -7 OFFCURVE",
"28 -16 OFFCURVE",
"40 -16 CURVE SMOOTH",
"55 -16 OFFCURVE",
"69 -7 OFFCURVE",
"81 11 CURVE SMOOTH",
"201 184 LINE",
"408 184 LINE",
"408 44 LINE SMOOTH",
"408 15 OFFCURVE",
"419 0 OFFCURVE",
"442 0 CURVE SMOOTH",
"813 0 LINE SMOOTH",
"842 0 OFFCURVE",
"857 11 OFFCURVE",
"857 34 CURVE SMOOTH",
"857 59 OFFCURVE",
"842 72 OFFCURVE",
"813 72 CURVE SMOOTH",
"482 72 LINE",
"482 317 LINE",
"692 317 LINE SMOOTH"
);
},
{
closed = 1;
nodes = (
"249 256 LINE",
"408 494 LINE",
"408 256 LINE"
);
}
);
width = 904;
}
);
leftKerningGroup = AE;
note = AE;
rightKerningGroup = E;
unicode = 00C6;
},
{
glyphname = Ccedilla;
lastChange = "2016-07-31 02:30:00 +0000";
layers = (
{
layerId = "AE6579ED-DC47-4075-A6A3-4B1A21099458";
paths = (
{
closed = 1;
nodes = (
"298 -39 OFFCURVE",
"328 -69 OFFCURVE",
"350 -83 CURVE SMOOTH",
"361 -90 OFFCURVE",
"366 -95 OFFCURVE",
"366 -98 CURVE SMOOTH",
"366 -103 OFFCURVE",
"365 -109 OFFCURVE",
"362 -114 CURVE",
"359 -122 OFFCURVE",
"350 -123 OFFCURVE",
"336 -123 CURVE SMOOTH",
"329 -123 OFFCURVE",
"318 -119 OFFCURVE",
"303 -112 CURVE SMOOTH",
"288 -105 OFFCURVE",
"277 -102 OFFCURVE",
"270 -102 CURVE SMOOTH",
"255 -102 OFFCURVE",
"243 -110 OFFCURVE",
"243 -134 CURVE SMOOTH",
"243 -158 OFFCURVE",
"275 -190 OFFCURVE",
"332 -190 CURVE SMOOTH",
"388 -190 OFFCURVE",
"438 -156 OFFCURVE",
"438 -99 CURVE SMOOTH",
"438 -63 OFFCURVE",
"412 -41 OFFCURVE",
"389 -25 CURVE SMOOTH",
"377 -17 OFFCURVE",
"370 -9 OFFCURVE",
"369 0 CURVE",
"465 0 LINE SMOOTH",
"552 0 OFFCURVE",
"575 49 OFFCURVE",
"575 117 CURVE SMOOTH",
"575 150 OFFCURVE",
"563 167 OFFCURVE",
"539 167 CURVE SMOOTH",
"520 167 OFFCURVE",
"503 156 OFFCURVE",
"503 121 CURVE SMOOTH",
"503 85 OFFCURVE",
"494 72 OFFCURVE",
"458 72 CURVE SMOOTH",
"324 72 LINE SMOOTH",
"176 72 OFFCURVE",
"143 86 OFFCURVE",
"143 186 CURVE SMOOTH",
"143 450 LINE SMOOTH",
"143 549 OFFCURVE",
"177 564 OFFCURVE",
"306 564 CURVE SMOOTH",
"458 564 LINE SMOOTH",
"494 564 OFFCURVE",
"503 551 OFFCURVE",
"503 516 CURVE SMOOTH",
"503 480 OFFCURVE",
"520 469 OFFCURVE",
"539 469 CURVE SMOOTH",
"563 469 OFFCURVE",
"575 486 OFFCURVE",
"575 519 CURVE SMOOTH",
"575 586 OFFCURVE",
"552 636 OFFCURVE",
"465 636 CURVE SMOOTH",
"306 636 LINE SMOOTH",
"145 636 OFFCURVE",
"71 597 OFFCURVE",
"71 452 CURVE SMOOTH",
"71 184 LINE SMOOTH",
"71 45 OFFCURVE",
"138 3 OFFCURVE",
"297 0 CURVE"
);
}
);
width = 631;
}
);
leftKerningGroup = C;
note = Ccedilla;
rightKerningGroup = C;
unicode = 00C7;
},
{
glyphname = Egrave;
lastChange = "2016-07-31 02:30:06 +0000";
layers = (
{
layerId = "AE6579ED-DC47-4075-A6A3-4B1A21099458";
paths = (
{
closed = 1;
nodes = (
"271 814 OFFCURVE",
"260 819 OFFCURVE",
"251 819 CURVE SMOOTH",
"232 819 OFFCURVE",
"214 803 OFFCURVE",
"214 784 CURVE SMOOTH",
"214 775 OFFCURVE",
"219 764 OFFCURVE",
"229 753 CURVE",
"298 685 LINE",
"308 674 OFFCURVE",
"318 668 OFFCURVE",
"329 668 CURVE SMOOTH",
"350 668 OFFCURVE",
"366 685 OFFCURVE",
"366 704 CURVE SMOOTH",
"366 713 OFFCURVE",
"361 723 OFFCURVE",
"352 733 CURVE",
"282 803 LINE SMOOTH"
);
},
{
closed = 1;
nodes = (
"454 322 OFFCURVE",
"471 333 OFFCURVE",
"471 356 CURVE SMOOTH",
"471 381 OFFCURVE",
"454 394 OFFCURVE",
"421 394 CURVE SMOOTH",
"156 394 LINE",
"156 564 LINE",
"544 564 LINE SMOOTH",
"573 564 OFFCURVE",
"588 575 OFFCURVE",
"588 598 CURVE SMOOTH",
"588 623 OFFCURVE",
"573 636 OFFCURVE",
"544 636 CURVE SMOOTH",
"118 636 LINE SMOOTH",
"95 636 OFFCURVE",
"84 621 OFFCURVE",
"84 592 CURVE SMOOTH",
"84 44 LINE SMOOTH",
"84 15 OFFCURVE",
"95 0 OFFCURVE",
"118 0 CURVE SMOOTH",
"544 0 LINE SMOOTH",
"573 0 OFFCURVE",
"588 11 OFFCURVE",
"588 34 CURVE SMOOTH",
"588 59 OFFCURVE",
"573 72 OFFCURVE",
"544 72 CURVE SMOOTH",
"156 72 LINE",
"156 322 LINE",
"421 322 LINE SMOOTH"
);
}
);
width = 636;
}
);
leftKerningGroup = B;
note = Egrave;
rightKerningGroup = E;
unicode = 00C8;
},
{
glyphname = Eacute;
lastChange = "2016-07-31 02:30:06 +0000";
layers = (
{
layerId = "AE6579ED-DC47-4075-A6A3-4B1A21099458";
paths = (
{
closed = 1;
nodes = (
"270 722 OFFCURVE",
"265 713 OFFCURVE",
"265 704 CURVE SMOOTH",
"265 686 OFFCURVE",
"280 668 OFFCURVE",
"302 668 CURVE SMOOTH",
"313 668 OFFCURVE",
"323 674 OFFCURVE",
"333 685 CURVE",
"402 753 LINE",
"412 764 OFFCURVE",
"417 775 OFFCURVE",
"417 784 CURVE SMOOTH",
"417 802 OFFCURVE",
"399 819 OFFCURVE",
"380 819 CURVE SMOOTH",
"371 819 OFFCURVE",
"360 814 OFFCURVE",
"349 803 CURVE SMOOTH",
"279 733 LINE"
);
},
{
closed = 1;
nodes = (
"454 322 OFFCURVE",
"471 333 OFFCURVE",
"471 356 CURVE SMOOTH",
"471 381 OFFCURVE",
"454 394 OFFCURVE",
"421 394 CURVE SMOOTH",
"156 394 LINE",
"156 564 LINE",
"544 564 LINE SMOOTH",
"573 564 OFFCURVE",
"588 575 OFFCURVE",
"588 598 CURVE SMOOTH",
"588 623 OFFCURVE",
"573 636 OFFCURVE",
"544 636 CURVE SMOOTH",
"118 636 LINE SMOOTH",
"95 636 OFFCURVE",
"84 621 OFFCURVE",
"84 592 CURVE SMOOTH",
"84 44 LINE SMOOTH",
"84 15 OFFCURVE",
"95 0 OFFCURVE",
"118 0 CURVE SMOOTH",
"544 0 LINE SMOOTH",
"573 0 OFFCURVE",
"588 11 OFFCURVE",
"588 34 CURVE SMOOTH",
"588 59 OFFCURVE",
"573 72 OFFCURVE",
"544 72 CURVE SMOOTH",
"156 72 LINE",
"156 322 LINE",
"421 322 LINE SMOOTH"
);
}
);
width = 636;
}
);
leftKerningGroup = B;
note = Eacute;
rightKerningGroup = E;
unicode = 00C9;
},
{
glyphname = Ecircumflex;
lastChange = "2016-07-31 02:30:06 +0000";
layers = (
{
layerId = "AE6579ED-DC47-4075-A6A3-4B1A21099458";
paths = (
{
closed = 1;
nodes = (
"183 696 OFFCURVE",
"180 688 OFFCURVE",
"180 679 CURVE SMOOTH",
"180 660 OFFCURVE",
"191 651 OFFCURVE",
"213 651 CURVE SMOOTH",
"222 651 OFFCURVE",
"230 653 OFFCURVE",
"235 657 CURVE",
"237 658 OFFCURVE",
"239 661 OFFCURVE",
"242 664 CURVE SMOOTH",
"245 667 OFFCURVE",
"247 668 OFFCURVE",
"248 669 CURVE",
"331 738 LINE",
"415 669 LINE SMOOTH",
"423 662 OFFCURVE",
"428 658 OFFCURVE",
"431 655 CURVE SMOOTH",
"434 652 OFFCURVE",
"440 651 OFFCURVE",
"450 651 CURVE SMOOTH",
"472 651 OFFCURVE",
"483 660 OFFCURVE",
"483 679 CURVE SMOOTH",
"483 688 OFFCURVE",
"480 696 OFFCURVE",
"475 703 CURVE",
"364 819 LINE",
"297 819 LINE",
"188 703 LINE"
);
},
{
closed = 1;
nodes = (
"454 322 OFFCURVE",
"471 333 OFFCURVE",
"471 356 CURVE SMOOTH",
"471 381 OFFCURVE",
"454 394 OFFCURVE",
"421 394 CURVE SMOOTH",
"156 394 LINE",
"156 564 LINE",
"544 564 LINE SMOOTH",
"573 564 OFFCURVE",
"588 575 OFFCURVE",
"588 598 CURVE SMOOTH",
"588 623 OFFCURVE",
"573 636 OFFCURVE",
"544 636 CURVE SMOOTH",
"118 636 LINE SMOOTH",
"95 636 OFFCURVE",
"84 621 OFFCURVE",
"84 592 CURVE SMOOTH",
"84 44 LINE SMOOTH",
"84 15 OFFCURVE",
"95 0 OFFCURVE",
"118 0 CURVE SMOOTH",
"544 0 LINE SMOOTH",
"573 0 OFFCURVE",
"588 11 OFFCURVE",
"588 34 CURVE SMOOTH",
"588 59 OFFCURVE",
"573 72 OFFCURVE",
"544 72 CURVE SMOOTH",
"156 72 LINE",
"156 322 LINE",
"421 322 LINE SMOOTH"
);
}
);
width = 636;
}
);
leftKerningGroup = B;
note = Ecircumflex;
rightKerningGroup = E;
unicode = 00CA;
},
{
glyphname = Edieresis;
lastChange = "2016-07-31 02:30:06 +0000";
layers = (
{
layerId = "AE6579ED-DC47-4075-A6A3-4B1A21099458";
paths = (
{
closed = 1;
nodes = (
"307 786 OFFCURVE",
"273 808 OFFCURVE",
"246 808 CURVE SMOOTH",
"219 808 OFFCURVE",
"185 786 OFFCURVE",
"185 757 CURVE SMOOTH",
"185 728 OFFCURVE",
"217 706 OFFCURVE",
"245 706 CURVE SMOOTH",
"273 706 OFFCURVE",
"307 728 OFFCURVE",
"307 757 CURVE SMOOTH"
);
},
{
closed = 1;
nodes = (
"477 786 OFFCURVE",
"443 808 OFFCURVE",
"416 808 CURVE SMOOTH",
"389 808 OFFCURVE",
"355 786 OFFCURVE",
"355 757 CURVE SMOOTH",
"355 728 OFFCURVE",
"387 706 OFFCURVE",
"415 706 CURVE SMOOTH",
"443 706 OFFCURVE",
"477 728 OFFCURVE",
"477 757 CURVE SMOOTH"
);
},
{
closed = 1;
nodes = (
"454 322 OFFCURVE",
"471 333 OFFCURVE",
"471 356 CURVE SMOOTH",
"471 381 OFFCURVE",
"454 394 OFFCURVE",
"421 394 CURVE SMOOTH",
"156 394 LINE",
"156 564 LINE",
"544 564 LINE SMOOTH",
"573 564 OFFCURVE",
"588 575 OFFCURVE",
"588 598 CURVE SMOOTH",
"588 623 OFFCURVE",
"573 636 OFFCURVE",
"544 636 CURVE SMOOTH",
"118 636 LINE SMOOTH",
"95 636 OFFCURVE",
"84 621 OFFCURVE",
"84 592 CURVE SMOOTH",
"84 44 LINE SMOOTH",
"84 15 OFFCURVE",
"95 0 OFFCURVE",
"118 0 CURVE SMOOTH",
"544 0 LINE SMOOTH",
"573 0 OFFCURVE",
"588 11 OFFCURVE",
"588 34 CURVE SMOOTH",
"588 59 OFFCURVE",
"573 72 OFFCURVE",
"544 72 CURVE SMOOTH",
"156 72 LINE",
"156 322 LINE",
"421 322 LINE SMOOTH"
);
}
);
width = 636;
}
);
leftKerningGroup = B;
note = Edieresis;
rightKerningGroup = E;
unicode = 00CB;
},
{
glyphname = Igrave;
lastChange = "2016-07-31 02:30:06 +0000";
layers = (
{
layerId = "AE6579ED-DC47-4075-A6A3-4B1A21099458";
paths = (
{
closed = 1;
nodes = (
"61 814 OFFCURVE",
"50 819 OFFCURVE",
"41 819 CURVE SMOOTH",
"22 819 OFFCURVE",
"4 803 OFFCURVE",
"4 784 CURVE SMOOTH",
"4 775 OFFCURVE",
"9 764 OFFCURVE",
"19 753 CURVE",
"88 685 LINE",
"98 674 OFFCURVE",
"108 668 OFFCURVE",
"119 668 CURVE SMOOTH",
"140 668 OFFCURVE",
"156 685 OFFCURVE",
"156 704 CURVE SMOOTH",
"156 713 OFFCURVE",
"151 723 OFFCURVE",
"142 733 CURVE",
"72 803 LINE SMOOTH"
);
},
{
closed = 1;
nodes = (
"156 629 OFFCURVE",
"144 643 OFFCURVE",
"120 643 CURVE SMOOTH",
"96 643 OFFCURVE",
"84 629 OFFCURVE",
"84 602 CURVE SMOOTH",
"84 33 LINE SMOOTH",
"84 6 OFFCURVE",
"96 -7 OFFCURVE",
"120 -7 CURVE SMOOTH",
"144 -7 OFFCURVE",
"156 6 OFFCURVE",
"156 33 CURVE SMOOTH",
"156 602 LINE SMOOTH"
);
}
);
width = 240;
}
);
leftKerningGroup = B;
note = Igrave;
rightKerningGroup = H;
unicode = 00CC;
},
{
glyphname = Iacute;
lastChange = "2016-07-31 02:30:06 +0000";
layers = (
{
layerId = "AE6579ED-DC47-4075-A6A3-4B1A21099458";
paths = (
{
closed = 1;
nodes = (
"90 722 OFFCURVE",
"85 713 OFFCURVE",
"85 704 CURVE SMOOTH",
"85 686 OFFCURVE",
"100 668 OFFCURVE",
"122 668 CURVE SMOOTH",
"133 668 OFFCURVE",
"143 674 OFFCURVE",
"153 685 CURVE",
"222 753 LINE",
"232 764 OFFCURVE",
"237 775 OFFCURVE",
"237 784 CURVE SMOOTH",
"237 802 OFFCURVE",
"219 819 OFFCURVE",
"200 819 CURVE SMOOTH",
"191 819 OFFCURVE",
"180 814 OFFCURVE",
"169 803 CURVE SMOOTH",
"99 733 LINE"
);
},
{
closed = 1;
nodes = (
"156 629 OFFCURVE",
"144 643 OFFCURVE",
"120 643 CURVE SMOOTH",
"96 643 OFFCURVE",
"84 629 OFFCURVE",
"84 602 CURVE SMOOTH",
"84 33 LINE SMOOTH",
"84 6 OFFCURVE",
"96 -7 OFFCURVE",
"120 -7 CURVE SMOOTH",
"144 -7 OFFCURVE",
"156 6 OFFCURVE",
"156 33 CURVE SMOOTH",
"156 602 LINE SMOOTH"
);
}
);
width = 240;
}
);
leftKerningGroup = B;
note = Iacute;
rightKerningGroup = H;
unicode = 00CD;
},
{
glyphname = Icircumflex;
lastChange = "2016-07-31 02:30:06 +0000";
layers = (
{
layerId = "AE6579ED-DC47-4075-A6A3-4B1A21099458";
paths = (
{
closed = 1;
nodes = (
"-27 696 OFFCURVE",
"-30 688 OFFCURVE",
"-30 679 CURVE SMOOTH",
"-30 660 OFFCURVE",
"-19 651 OFFCURVE",
"3 651 CURVE SMOOTH",
"12 651 OFFCURVE",
"20 653 OFFCURVE",
"25 657 CURVE",
"27 658 OFFCURVE",
"29 661 OFFCURVE",
"32 664 CURVE SMOOTH",
"35 667 OFFCURVE",
"37 668 OFFCURVE",
"38 669 CURVE",
"121 738 LINE",
"205 669 LINE SMOOTH",
"213 662 OFFCURVE",
"218 658 OFFCURVE",
"221 655 CURVE SMOOTH",
"224 652 OFFCURVE",
"230 651 OFFCURVE",
"240 651 CURVE SMOOTH",
"262 651 OFFCURVE",
"273 660 OFFCURVE",
"273 679 CURVE SMOOTH",
"273 688 OFFCURVE",
"270 696 OFFCURVE",
"265 703 CURVE",
"154 819 LINE",
"87 819 LINE",
"-22 703 LINE"
);
},
{
closed = 1;
nodes = (
"156 629 OFFCURVE",
"144 643 OFFCURVE",
"120 643 CURVE SMOOTH",
"96 643 OFFCURVE",
"84 629 OFFCURVE",
"84 602 CURVE SMOOTH",
"84 33 LINE SMOOTH",
"84 6 OFFCURVE",
"96 -7 OFFCURVE",
"120 -7 CURVE SMOOTH",
"144 -7 OFFCURVE",
"156 6 OFFCURVE",
"156 33 CURVE SMOOTH",
"156 602 LINE SMOOTH"
);
}
);
width = 240;
}
);
leftKerningGroup = B;
note = Icircumflex;
rightKerningGroup = H;
unicode = 00CE;
},
{
glyphname = Idieresis;
lastChange = "2016-07-31 02:30:06 +0000";
layers = (
{
layerId = "AE6579ED-DC47-4075-A6A3-4B1A21099458";
paths = (
{
closed = 1;
nodes = (
"96 786 OFFCURVE",
"62 808 OFFCURVE",
"35 808 CURVE SMOOTH",
"8 808 OFFCURVE",
"-26 786 OFFCURVE",
"-26 757 CURVE SMOOTH",
"-26 728 OFFCURVE",
"6 706 OFFCURVE",
"34 706 CURVE SMOOTH",
"62 706 OFFCURVE",
"96 728 OFFCURVE",
"96 757 CURVE SMOOTH"
);
},
{
closed = 1;
nodes = (
"266 786 OFFCURVE",
"232 808 OFFCURVE",
"205 808 CURVE SMOOTH",
"178 808 OFFCURVE",
"144 786 OFFCURVE",
"144 757 CURVE SMOOTH",
"144 728 OFFCURVE",
"176 706 OFFCURVE",
"204 706 CURVE SMOOTH",
"232 706 OFFCURVE",
"266 728 OFFCURVE",
"266 757 CURVE SMOOTH"
);
},
{
closed = 1;
nodes = (
"156 629 OFFCURVE",
"144 643 OFFCURVE",
"120 643 CURVE SMOOTH",
"96 643 OFFCURVE",
"84 629 OFFCURVE",
"84 602 CURVE SMOOTH",
"84 33 LINE SMOOTH",
"84 6 OFFCURVE",
"96 -7 OFFCURVE",
"120 -7 CURVE SMOOTH",
"144 -7 OFFCURVE",
"156 6 OFFCURVE",
"156 33 CURVE SMOOTH",
"156 602 LINE SMOOTH"
);
}
);
width = 240;
}
);
leftKerningGroup = B;
note = Idieresis;
rightKerningGroup = H;
unicode = 00CF;
},
{
glyphname = Eth;
lastChange = "2016-07-31 02:30:00 +0000";
layers = (
{
layerId = "AE6579ED-DC47-4075-A6A3-4B1A21099458";
paths = (
{
closed = 1;
nodes = (
"516 86 OFFCURVE",
"484 72 OFFCURVE",
"336 72 CURVE SMOOTH",
"156 72 LINE",
"156 288 LINE",
"240 288 LINE SMOOTH",
"267 288 OFFCURVE",
"284 303 OFFCURVE",
"284 324 CURVE SMOOTH",
"284 349 OFFCURVE",
"269 361 OFFCURVE",
"240 361 CURVE SMOOTH",
"156 361 LINE",
"156 564 LINE",
"354 564 LINE SMOOTH",
"483 564 OFFCURVE",
"516 549 OFFCURVE",
"516 450 CURVE SMOOTH",
"516 186 LINE SMOOTH"
);
},
{
closed = 1;
nodes = (
"588 596 OFFCURVE",
"515 636 OFFCURVE",
"354 636 CURVE SMOOTH",
"118 636 LINE SMOOTH",
"95 636 OFFCURVE",
"84 621 OFFCURVE",
"84 592 CURVE SMOOTH",
"84 361 LINE",
"53 361 OFFCURVE",
"42 345 OFFCURVE",
"42 326 CURVE SMOOTH",
"42 301 OFFCURVE",
"56 288 OFFCURVE",
"84 288 CURVE",
"84 44 LINE SMOOTH",
"84 15 OFFCURVE",
"95 0 OFFCURVE",
"118 0 CURVE SMOOTH",
"336 0 LINE SMOOTH",
"515 0 OFFCURVE",
"588 39 OFFCURVE",
"588 184 CURVE SMOOTH",
"588 452 LINE SMOOTH"
);
}
);
width = 659;
}
);
leftKerningGroup = B;
note = Eth;
rightKerningGroup = D;
unicode = 00D0;
},
{
glyphname = Ntilde;
lastChange = "2016-07-31 02:30:06 +0000";
layers = (
{
layerId = "AE6579ED-DC47-4075-A6A3-4B1A21099458";
paths = (
{
closed = 1;
nodes = (
"382 693 OFFCURVE",
"390 691 OFFCURVE",
"397 691 CURVE SMOOTH",
"404 691 OFFCURVE",
"413 695 OFFCURVE",
"423 702 CURVE",
"467 740 LINE",
"479 749 OFFCURVE",
"485 760 OFFCURVE",
"486 772 CURVE",
"486 796 OFFCURVE",
"467 808 OFFCURVE",
"448 808 CURVE SMOOTH",
"439 808 OFFCURVE",
"430 804 OFFCURVE",
"423 797 CURVE",
"393 771 LINE",
"391 769 OFFCURVE",
"389 768 OFFCURVE",
"388 768 CURVE SMOOTH",
"387 768 OFFCURVE",
"385 769 OFFCURVE",
"383 770 CURVE",
"296 803 LINE SMOOTH",
"288 806 OFFCURVE",
"280 808 OFFCURVE",
"272 808 CURVE SMOOTH",
"264 808 OFFCURVE",
"256 804 OFFCURVE",
"247 797 CURVE",
"202 759 LINE SMOOTH",
"190 749 OFFCURVE",
"184 738 OFFCURVE",
"184 727 CURVE SMOOTH",
"184 704 OFFCURVE",
"203 691 OFFCURVE",
"222 691 CURVE SMOOTH",
"231 691 OFFCURVE",
"240 695 OFFCURVE",
"247 702 CURVE",
"276 728 LINE",
"278 730 OFFCURVE",
"280 731 OFFCURVE",
"281 731 CURVE SMOOTH",
"282 731 OFFCURVE",
"284 730 OFFCURVE",
"287 729 CURVE",
"373 696 LINE"
);
},
{
closed = 1;
nodes = (
"576 -7 OFFCURVE",
"588 7 OFFCURVE",
"588 35 CURVE SMOOTH",
"588 600 LINE SMOOTH",
"588 629 OFFCURVE",
"576 643 OFFCURVE",
"552 643 CURVE SMOOTH",
"528 643 OFFCURVE",
"516 628 OFFCURVE",
"516 597 CURVE SMOOTH",
"516 118 LINE",
"156 620 LINE SMOOTH",
"145 635 OFFCURVE",
"133 643 OFFCURVE",
"118 643 CURVE SMOOTH",
"95 643 OFFCURVE",
"84 629 OFFCURVE",
"84 600 CURVE SMOOTH",
"84 35 LINE SMOOTH",
"84 7 OFFCURVE",
"96 -7 OFFCURVE",
"120 -7 CURVE SMOOTH",
"144 -7 OFFCURVE",
"156 6 OFFCURVE",
"156 32 CURVE SMOOTH",
"156 517 LINE",
"525 0 LINE",
"528 -5 OFFCURVE",
"538 -7 OFFCURVE",
"553 -7 CURVE SMOOTH"
);
}
);
width = 672;
}
);
leftKerningGroup = B;
note = Ntilde;
rightKerningGroup = H;
unicode = 00D1;
},
{
glyphname = Ograve;
lastChange = "2016-07-31 02:30:06 +0000";
layers = (
{
layerId = "AE6579ED-DC47-4075-A6A3-4B1A21099458";
paths = (
{
closed = 1;
nodes = (
"256 814 OFFCURVE",
"245 819 OFFCURVE",
"236 819 CURVE SMOOTH",
"217 819 OFFCURVE",
"199 803 OFFCURVE",
"199 784 CURVE SMOOTH",
"199 775 OFFCURVE",
"204 764 OFFCURVE",
"214 753 CURVE",
"283 685 LINE",
"293 674 OFFCURVE",
"303 668 OFFCURVE",
"314 668 CURVE SMOOTH",
"335 668 OFFCURVE",
"351 685 OFFCURVE",
"351 704 CURVE SMOOTH",
"351 713 OFFCURVE",
"346 723 OFFCURVE",
"337 733 CURVE",
"267 803 LINE SMOOTH"
);
},
{
closed = 1;
nodes = (
"568 554 OFFCURVE",
"467 645 OFFCURVE",
"316 645 CURVE SMOOTH",
"164 645 OFFCURVE",
"64 555 OFFCURVE",
"64 406 CURVE SMOOTH",
"64 230 LINE SMOOTH",
"64 81 OFFCURVE",
"164 -9 OFFCURVE",
"316 -9 CURVE SMOOTH",
"467 -9 OFFCURVE",
"568 82 OFFCURVE",
"568 230 CURVE SMOOTH",
"568 406 LINE SMOOTH"
);
},
{
closed = 1;
nodes = (
"481 499 OFFCURVE",
"496 457 OFFCURVE",
"496 403 CURVE SMOOTH",
"496 233 LINE SMOOTH",
"496 124 OFFCURVE",
"433 63 OFFCURVE",
"316 63 CURVE SMOOTH",
"199 63 OFFCURVE",
"136 124 OFFCURVE",
"136 233 CURVE SMOOTH",
"136 403 LINE SMOOTH",
"136 511 OFFCURVE",
"197 573 OFFCURVE",
"316 573 CURVE SMOOTH",
"375 573 OFFCURVE",
"420 558 OFFCURVE",
"451 529 CURVE SMOOTH"
);
}
);
width = 632;
}
);
leftKerningGroup = O;
note = Ograve;
rightKerningGroup = O;
unicode = 00D2;
},
{
glyphname = Oacute;
lastChange = "2016-07-31 02:30:06 +0000";
layers = (
{
layerId = "AE6579ED-DC47-4075-A6A3-4B1A21099458";
paths = (
{
closed = 1;
nodes = (
"285 722 OFFCURVE",
"280 713 OFFCURVE",
"280 704 CURVE SMOOTH",
"280 686 OFFCURVE",
"295 668 OFFCURVE",
"317 668 CURVE SMOOTH",
"328 668 OFFCURVE",
"338 674 OFFCURVE",
"348 685 CURVE",
"417 753 LINE",
"427 764 OFFCURVE",
"432 775 OFFCURVE",
"432 784 CURVE SMOOTH",
"432 802 OFFCURVE",
"414 819 OFFCURVE",
"395 819 CURVE SMOOTH",
"386 819 OFFCURVE",
"375 814 OFFCURVE",
"364 803 CURVE SMOOTH",
"294 733 LINE"
);
},
{
closed = 1;
nodes = (
"568 554 OFFCURVE",
"467 645 OFFCURVE",
"316 645 CURVE SMOOTH",
"164 645 OFFCURVE",
"64 555 OFFCURVE",
"64 406 CURVE SMOOTH",
"64 230 LINE SMOOTH",
"64 81 OFFCURVE",
"164 -9 OFFCURVE",
"316 -9 CURVE SMOOTH",
"467 -9 OFFCURVE",
"568 82 OFFCURVE",
"568 230 CURVE SMOOTH",
"568 406 LINE SMOOTH"
);
},
{
closed = 1;
nodes = (
"481 499 OFFCURVE",
"496 457 OFFCURVE",
"496 403 CURVE SMOOTH",
"496 233 LINE SMOOTH",
"496 124 OFFCURVE",
"433 63 OFFCURVE",
"316 63 CURVE SMOOTH",
"199 63 OFFCURVE",
"136 124 OFFCURVE",
"136 233 CURVE SMOOTH",
"136 403 LINE SMOOTH",
"136 511 OFFCURVE",
"197 573 OFFCURVE",
"316 573 CURVE SMOOTH",
"375 573 OFFCURVE",
"420 558 OFFCURVE",
"451 529 CURVE SMOOTH"
);
}
);
width = 632;
}
);
leftKerningGroup = O;
note = Oacute;
rightKerningGroup = O;
unicode = 00D3;
},
{
glyphname = Ocircumflex;
lastChange = "2016-07-31 02:30:06 +0000";
layers = (
{
layerId = "AE6579ED-DC47-4075-A6A3-4B1A21099458";
paths = (
{
closed = 1;
nodes = (
"168 696 OFFCURVE",
"165 688 OFFCURVE",
"165 679 CURVE SMOOTH",
"165 660 OFFCURVE",
"176 651 OFFCURVE",
"198 651 CURVE SMOOTH",
"207 651 OFFCURVE",
"215 653 OFFCURVE",
"220 657 CURVE",
"222 658 OFFCURVE",
"224 661 OFFCURVE",
"227 664 CURVE SMOOTH",
"230 667 OFFCURVE",
"232 668 OFFCURVE",
"233 669 CURVE",
"316 738 LINE",
"400 669 LINE SMOOTH",
"408 662 OFFCURVE",
"413 658 OFFCURVE",
"416 655 CURVE SMOOTH",
"419 652 OFFCURVE",
"425 651 OFFCURVE",
"435 651 CURVE SMOOTH",
"457 651 OFFCURVE",
"468 660 OFFCURVE",
"468 679 CURVE SMOOTH",
"468 688 OFFCURVE",
"465 696 OFFCURVE",
"460 703 CURVE",
"349 819 LINE",
"282 819 LINE",
"173 703 LINE"
);
},
{
closed = 1;
nodes = (
"568 554 OFFCURVE",
"467 645 OFFCURVE",
"316 645 CURVE SMOOTH",
"164 645 OFFCURVE",
"64 555 OFFCURVE",
"64 406 CURVE SMOOTH",
"64 230 LINE SMOOTH",
"64 81 OFFCURVE",
"164 -9 OFFCURVE",
"316 -9 CURVE SMOOTH",
"467 -9 OFFCURVE",
"568 82 OFFCURVE",
"568 230 CURVE SMOOTH",
"568 406 LINE SMOOTH"
);
},
{
closed = 1;
nodes = (
"481 499 OFFCURVE",
"496 457 OFFCURVE",
"496 403 CURVE SMOOTH",
"496 233 LINE SMOOTH",
"496 124 OFFCURVE",
"433 63 OFFCURVE",
"316 63 CURVE SMOOTH",
"199 63 OFFCURVE",
"136 124 OFFCURVE",
"136 233 CURVE SMOOTH",
"136 403 LINE SMOOTH",
"136 511 OFFCURVE",
"197 573 OFFCURVE",
"316 573 CURVE SMOOTH",
"375 573 OFFCURVE",
"420 558 OFFCURVE",
"451 529 CURVE SMOOTH"
);
}
);
width = 632;
}
);
leftKerningGroup = O;
note = Ocircumflex;
rightKerningGroup = O;
unicode = 00D4;
},
{
glyphname = Otilde;
lastChange = "2016-07-31 02:30:06 +0000";
layers = (
{
layerId = "AE6579ED-DC47-4075-A6A3-4B1A21099458";
paths = (
{
closed = 1;
nodes = (
"363 693 OFFCURVE",
"371 691 OFFCURVE",
"378 691 CURVE SMOOTH",
"385 691 OFFCURVE",
"394 695 OFFCURVE",
"404 702 CURVE",
"448 740 LINE",
"460 749 OFFCURVE",
"466 760 OFFCURVE",
"467 772 CURVE",
"467 796 OFFCURVE",
"448 808 OFFCURVE",
"429 808 CURVE SMOOTH",
"420 808 OFFCURVE",
"411 804 OFFCURVE",
"404 797 CURVE",
"374 771 LINE",
"372 769 OFFCURVE",
"370 768 OFFCURVE",
"369 768 CURVE SMOOTH",
"368 768 OFFCURVE",
"366 769 OFFCURVE",
"364 770 CURVE",
"277 803 LINE SMOOTH",
"269 806 OFFCURVE",
"261 808 OFFCURVE",
"253 808 CURVE SMOOTH",
"245 808 OFFCURVE",
"237 804 OFFCURVE",
"228 797 CURVE",
"183 759 LINE SMOOTH",
"171 749 OFFCURVE",
"165 738 OFFCURVE",
"165 727 CURVE SMOOTH",
"165 704 OFFCURVE",
"184 691 OFFCURVE",
"203 691 CURVE SMOOTH",
"212 691 OFFCURVE",
"221 695 OFFCURVE",
"228 702 CURVE",
"257 728 LINE",
"259 730 OFFCURVE",
"261 731 OFFCURVE",
"262 731 CURVE SMOOTH",
"263 731 OFFCURVE",
"265 730 OFFCURVE",
"268 729 CURVE",
"354 696 LINE"
);
},
{
closed = 1;
nodes = (
"568 554 OFFCURVE",
"467 645 OFFCURVE",
"316 645 CURVE SMOOTH",
"164 645 OFFCURVE",
"64 555 OFFCURVE",
"64 406 CURVE SMOOTH",
"64 230 LINE SMOOTH",
"64 81 OFFCURVE",
"164 -9 OFFCURVE",
"316 -9 CURVE SMOOTH",
"467 -9 OFFCURVE",
"568 82 OFFCURVE",
"568 230 CURVE SMOOTH",
"568 406 LINE SMOOTH"
);
},
{
closed = 1;
nodes = (
"481 499 OFFCURVE",
"496 457 OFFCURVE",
"496 403 CURVE SMOOTH",
"496 233 LINE SMOOTH",
"496 124 OFFCURVE",
"433 63 OFFCURVE",
"316 63 CURVE SMOOTH",
"199 63 OFFCURVE",
"136 124 OFFCURVE",
"136 233 CURVE SMOOTH",
"136 403 LINE SMOOTH",
"136 511 OFFCURVE",
"197 573 OFFCURVE",
"316 573 CURVE SMOOTH",
"375 573 OFFCURVE",
"420 558 OFFCURVE",
"451 529 CURVE SMOOTH"
);
}
);
width = 632;
}
);
leftKerningGroup = O;
note = Otilde;
rightKerningGroup = O;
unicode = 00D5;
},
{
glyphname = Odieresis;
lastChange = "2016-07-31 02:30:06 +0000";
layers = (
{
layerId = "AE6579ED-DC47-4075-A6A3-4B1A21099458";
paths = (
{
closed = 1;
nodes = (
"292 786 OFFCURVE",
"258 808 OFFCURVE",
"231 808 CURVE SMOOTH",
"204 808 OFFCURVE",
"170 786 OFFCURVE",
"170 757 CURVE SMOOTH",
"170 728 OFFCURVE",
"202 706 OFFCURVE",
"230 706 CURVE SMOOTH",
"258 706 OFFCURVE",
"292 728 OFFCURVE",
"292 757 CURVE SMOOTH"
);
},
{
closed = 1;
nodes = (
"462 786 OFFCURVE",
"428 808 OFFCURVE",
"401 808 CURVE SMOOTH",
"374 808 OFFCURVE",
"340 786 OFFCURVE",
"340 757 CURVE SMOOTH",
"340 728 OFFCURVE",
"372 706 OFFCURVE",
"400 706 CURVE SMOOTH",
"428 706 OFFCURVE",
"462 728 OFFCURVE",
"462 757 CURVE SMOOTH"
);
},
{
closed = 1;
nodes = (
"568 554 OFFCURVE",
"467 645 OFFCURVE",
"316 645 CURVE SMOOTH",
"164 645 OFFCURVE",
"64 555 OFFCURVE",
"64 406 CURVE SMOOTH",
"64 230 LINE SMOOTH",
"64 81 OFFCURVE",
"164 -9 OFFCURVE",
"316 -9 CURVE SMOOTH",
"467 -9 OFFCURVE",
"568 82 OFFCURVE",
"568 230 CURVE SMOOTH",
"568 406 LINE SMOOTH"
);
},
{
closed = 1;
nodes = (
"481 499 OFFCURVE",
"496 457 OFFCURVE",
"496 403 CURVE SMOOTH",
"496 233 LINE SMOOTH",
"496 124 OFFCURVE",
"433 63 OFFCURVE",
"316 63 CURVE SMOOTH",
"199 63 OFFCURVE",
"136 124 OFFCURVE",
"136 233 CURVE SMOOTH",
"136 403 LINE SMOOTH",
"136 511 OFFCURVE",
"197 573 OFFCURVE",
"316 573 CURVE SMOOTH",
"375 573 OFFCURVE",
"420 558 OFFCURVE",
"451 529 CURVE SMOOTH"
);
}
);
width = 632;
}
);
leftKerningGroup = O;
note = Odieresis;
rightKerningGroup = O;
unicode = 00D6;
},
{
glyphname = multiply;
lastChange = "2016-07-31 02:30:00 +0000";
layers = (
{
layerId = "AE6579ED-DC47-4075-A6A3-4B1A21099458";
paths = (
{
closed = 1;
nodes = (
"83 109 LINE SMOOTH",
"74 100 OFFCURVE",
"69 91 OFFCURVE",
"69 81 CURVE SMOOTH",
"69 61 OFFCURVE",
"85 45 OFFCURVE",
"106 45 CURVE SMOOTH",
"116 45 OFFCURVE",
"125 49 OFFCURVE",
"134 58 CURVE SMOOTH",
"255 179 LINE",
"376 58 LINE",
"388 47 OFFCURVE",
"398 42 OFFCURVE",
"406 42 CURVE SMOOTH",
"422 42 OFFCURVE",
"441 61 OFFCURVE",
"441 82 CURVE SMOOTH",
"441 92 OFFCURVE",
"436 101 OFFCURVE",
"427 109 CURVE",
"306 230 LINE",
"427 351 LINE SMOOTH",
"436 360 OFFCURVE",
"441 370 OFFCURVE",
"441 380 CURVE SMOOTH",
"441 399 OFFCURVE",
"426 417 OFFCURVE",
"406 417 CURVE SMOOTH",
"396 417 OFFCURVE",
"386 412 OFFCURVE",
"376 403 CURVE",
"255 282 LINE",
"135 402 LINE SMOOTH",
"125 412 OFFCURVE",
"115 417 OFFCURVE",
"106 417 CURVE SMOOTH",
"86 417 OFFCURVE",
"69 401 OFFCURVE",
"69 380 CURVE SMOOTH",
"69 369 OFFCURVE",
"74 360 OFFCURVE",
"84 351 CURVE",
"204 230 LINE"
);
}
);
width = 510;
}
);
note = multiply;
rightKerningGroup = numbersign;
unicode = 00D7;
},
{
glyphname = Oslash;
lastChange = "2016-07-31 02:30:00 +0000";
layers = (
{
layerId = "AE6579ED-DC47-4075-A6A3-4B1A21099458";
paths = (
{
closed = 1;
nodes = (
"140 177 OFFCURVE",
"136 203 OFFCURVE",
"136 233 CURVE SMOOTH",
"136 403 LINE SMOOTH",
"136 511 OFFCURVE",
"199 573 OFFCURVE",
"310 573 CURVE SMOOTH",
"365 573 OFFCURVE",
"408 562 OFFCURVE",
"438 539 CURVE",
"149 156 LINE"
);
},
{
closed = 1;
nodes = (
"437 629 OFFCURVE",
"380 645 OFFCURVE",
"309 645 CURVE SMOOTH",
"167 645 OFFCURVE",
"64 555 OFFCURVE",
"64 406 CURVE SMOOTH",
"64 230 LINE SMOOTH",
"64 177 OFFCURVE",
"76 131 OFFCURVE",
"101 93 CURVE",
"69 50 LINE",
"62 42 OFFCURVE",
"59 33 OFFCURVE",
"59 23 CURVE SMOOTH",
"59 3 OFFCURVE",
"78 -12 OFFCURVE",
"98 -12 CURVE SMOOTH",
"108 -12 OFFCURVE",
"118 -6 OFFCURVE",
"127 6 CURVE SMOOTH",
"152 39 LINE",
"197 7 OFFCURVE",
"254 -9 OFFCURVE",
"324 -9 CURVE SMOOTH",
"464 -9 OFFCURVE",
"568 82 OFFCURVE",
"568 230 CURVE SMOOTH",
"568 406 LINE SMOOTH",
"568 459 OFFCURVE",
"556 505 OFFCURVE",
"531 543 CURVE",
"562 584 LINE SMOOTH",
"569 593 OFFCURVE",
"573 603 OFFCURVE",
"573 612 CURVE SMOOTH",
"573 630 OFFCURVE",
"555 646 OFFCURVE",
"535 646 CURVE SMOOTH",
"524 646 OFFCURVE",
"514 640 OFFCURVE",
"505 627 CURVE",
"481 596 LINE"
);
},
{
closed = 1;
nodes = (
"492 458 OFFCURVE",
"496 432 OFFCURVE",
"496 403 CURVE SMOOTH",
"496 233 LINE SMOOTH",
"496 124 OFFCURVE",
"432 63 OFFCURVE",
"321 63 CURVE SMOOTH",
"266 63 OFFCURVE",
"224 74 OFFCURVE",
"195 96 CURVE",
"483 479 LINE"
);
}
);
width = 632;
}
);
leftKerningGroup = O;
note = Oslash;
rightKerningGroup = O;
unicode = 00D8;
},
{
glyphname = Ugrave;
lastChange = "2016-07-31 02:30:06 +0000";
layers = (
{
layerId = "AE6579ED-DC47-4075-A6A3-4B1A21099458";
paths = (
{
closed = 1;
nodes = (
"270 813 OFFCURVE",
"259 819 OFFCURVE",
"249 819 CURVE SMOOTH",
"229 819 OFFCURVE",
"213 804 OFFCURVE",
"213 783 CURVE SMOOTH",
"213 772 OFFCURVE",
"217 763 OFFCURVE",
"224 755 CURVE SMOOTH",
"320 640 LINE",
"332 627 OFFCURVE",
"343 621 OFFCURVE",
"352 621 CURVE SMOOTH",
"371 621 OFFCURVE",
"388 637 OFFCURVE",
"388 656 CURVE SMOOTH",
"388 665 OFFCURVE",
"384 675 OFFCURVE",
"377 685 CURVE",
"281 800 LINE SMOOTH"
);
},
{
closed = 1;
nodes = (
"509 124 OFFCURVE",
"446 63 OFFCURVE",
"329 63 CURVE SMOOTH",
"212 63 OFFCURVE",
"149 124 OFFCURVE",
"149 233 CURVE SMOOTH",
"149 603 LINE SMOOTH",
"149 631 OFFCURVE",
"132 643 OFFCURVE",
"113 643 CURVE SMOOTH",
"89 643 OFFCURVE",
"77 629 OFFCURVE",
"77 602 CURVE SMOOTH",
"77 230 LINE SMOOTH",
"77 81 OFFCURVE",
"176 -9 OFFCURVE",
"328 -9 CURVE SMOOTH",
"480 -9 OFFCURVE",
"581 82 OFFCURVE",
"581 230 CURVE SMOOTH",
"581 602 LINE SMOOTH",
"581 629 OFFCURVE",
"569 643 OFFCURVE",
"545 643 CURVE SMOOTH",
"521 643 OFFCURVE",
"509 630 OFFCURVE",
"509 603 CURVE SMOOTH",
"509 233 LINE SMOOTH"
);
}
);
width = 658;
}
);
leftKerningGroup = U;
note = Ugrave;
rightKerningGroup = U;
unicode = 00D9;
},
{
glyphname = Uacute;
lastChange = "2016-07-31 02:30:06 +0000";
layers = (
{
layerId = "AE6579ED-DC47-4075-A6A3-4B1A21099458";
paths = (
{
closed = 1;
nodes = (
"465 763 OFFCURVE",
"469 772 OFFCURVE",
"469 783 CURVE SMOOTH",
"469 804 OFFCURVE",
"453 819 OFFCURVE",
"433 819 CURVE SMOOTH",
"423 819 OFFCURVE",
"412 813 OFFCURVE",
"401 800 CURVE SMOOTH",
"305 685 LINE",
"298 675 OFFCURVE",
"294 665 OFFCURVE",
"294 656 CURVE SMOOTH",
"294 636 OFFCURVE",
"312 621 OFFCURVE",
"331 621 CURVE SMOOTH",
"340 621 OFFCURVE",
"351 627 OFFCURVE",
"362 640 CURVE SMOOTH",
"458 755 LINE SMOOTH"
);
},
{
closed = 1;
nodes = (
"509 124 OFFCURVE",
"446 63 OFFCURVE",
"329 63 CURVE SMOOTH",
"212 63 OFFCURVE",
"149 124 OFFCURVE",
"149 233 CURVE SMOOTH",
"149 603 LINE SMOOTH",
"149 631 OFFCURVE",
"132 643 OFFCURVE",
"113 643 CURVE SMOOTH",
"89 643 OFFCURVE",
"77 629 OFFCURVE",
"77 602 CURVE SMOOTH",
"77 230 LINE SMOOTH",
"77 81 OFFCURVE",
"176 -9 OFFCURVE",
"328 -9 CURVE SMOOTH",
"480 -9 OFFCURVE",
"581 82 OFFCURVE",
"581 230 CURVE SMOOTH",
"581 602 LINE SMOOTH",
"581 629 OFFCURVE",
"569 643 OFFCURVE",
"545 643 CURVE SMOOTH",
"521 643 OFFCURVE",
"509 630 OFFCURVE",
"509 603 CURVE SMOOTH",
"509 233 LINE SMOOTH"
);
}
);
width = 658;
}
);
leftKerningGroup = U;
note = Uacute;
rightKerningGroup = U;
unicode = 00DA;
},
{
glyphname = Ucircumflex;
lastChange = "2016-07-31 02:30:06 +0000";
layers = (
{
layerId = "AE6579ED-DC47-4075-A6A3-4B1A21099458";
paths = (
{
closed = 1;
nodes = (
"181 696 OFFCURVE",
"178 688 OFFCURVE",
"178 679 CURVE SMOOTH",
"178 660 OFFCURVE",
"189 651 OFFCURVE",
"211 651 CURVE SMOOTH",
"220 651 OFFCURVE",
"228 653 OFFCURVE",
"233 657 CURVE",
"235 658 OFFCURVE",
"237 661 OFFCURVE",
"240 664 CURVE SMOOTH",
"243 667 OFFCURVE",
"245 668 OFFCURVE",
"246 669 CURVE",
"329 738 LINE",
"413 669 LINE SMOOTH",
"421 662 OFFCURVE",
"426 658 OFFCURVE",
"429 655 CURVE SMOOTH",
"432 652 OFFCURVE",
"438 651 OFFCURVE",
"448 651 CURVE SMOOTH",
"470 651 OFFCURVE",
"481 660 OFFCURVE",
"481 679 CURVE SMOOTH",
"481 688 OFFCURVE",
"478 696 OFFCURVE",
"473 703 CURVE",
"362 819 LINE",
"295 819 LINE",
"186 703 LINE"
);
},
{
closed = 1;
nodes = (
"509 124 OFFCURVE",
"446 63 OFFCURVE",
"329 63 CURVE SMOOTH",
"212 63 OFFCURVE",
"149 124 OFFCURVE",
"149 233 CURVE SMOOTH",
"149 603 LINE SMOOTH",
"149 631 OFFCURVE",
"132 643 OFFCURVE",
"113 643 CURVE SMOOTH",
"89 643 OFFCURVE",
"77 629 OFFCURVE",
"77 602 CURVE SMOOTH",
"77 230 LINE SMOOTH",
"77 81 OFFCURVE",
"176 -9 OFFCURVE",
"328 -9 CURVE SMOOTH",
"480 -9 OFFCURVE",
"581 82 OFFCURVE",
"581 230 CURVE SMOOTH",
"581 602 LINE SMOOTH",
"581 629 OFFCURVE",
"569 643 OFFCURVE",
"545 643 CURVE SMOOTH",
"521 643 OFFCURVE",
"509 630 OFFCURVE",
"509 603 CURVE SMOOTH",
"509 233 LINE SMOOTH"
);
}
);
width = 658;
}
);
leftKerningGroup = U;
note = Ucircumflex;
rightKerningGroup = U;
unicode = 00DB;
},
{
glyphname = Udieresis;
lastChange = "2016-07-31 02:30:06 +0000";
layers = (
{
layerId = "AE6579ED-DC47-4075-A6A3-4B1A21099458";
paths = (
{
closed = 1;
nodes = (
"306 786 OFFCURVE",
"272 808 OFFCURVE",
"245 808 CURVE SMOOTH",
"218 808 OFFCURVE",
"184 786 OFFCURVE",
"184 757 CURVE SMOOTH",
"184 728 OFFCURVE",
"216 706 OFFCURVE",
"244 706 CURVE SMOOTH",
"272 706 OFFCURVE",
"306 728 OFFCURVE",
"306 757 CURVE SMOOTH"
);
},
{
closed = 1;
nodes = (
"476 786 OFFCURVE",
"442 808 OFFCURVE",
"415 808 CURVE SMOOTH",
"388 808 OFFCURVE",
"354 786 OFFCURVE",
"354 757 CURVE SMOOTH",
"354 728 OFFCURVE",
"386 706 OFFCURVE",
"414 706 CURVE SMOOTH",
"442 706 OFFCURVE",
"476 728 OFFCURVE",
"476 757 CURVE SMOOTH"
);
},
{
closed = 1;
nodes = (
"509 124 OFFCURVE",
"446 63 OFFCURVE",
"329 63 CURVE SMOOTH",
"212 63 OFFCURVE",
"149 124 OFFCURVE",
"149 233 CURVE SMOOTH",
"149 603 LINE SMOOTH",
"149 631 OFFCURVE",
"132 643 OFFCURVE",
"113 643 CURVE SMOOTH",
"89 643 OFFCURVE",
"77 629 OFFCURVE",
"77 602 CURVE SMOOTH",
"77 230 LINE SMOOTH",
"77 81 OFFCURVE",
"176 -9 OFFCURVE",
"328 -9 CURVE SMOOTH",
"480 -9 OFFCURVE",
"581 82 OFFCURVE",
"581 230 CURVE SMOOTH",
"581 602 LINE SMOOTH",
"581 629 OFFCURVE",
"569 643 OFFCURVE",
"545 643 CURVE SMOOTH",
"521 643 OFFCURVE",
"509 630 OFFCURVE",
"509 603 CURVE SMOOTH",
"509 233 LINE SMOOTH"
);
}
);
width = 658;
}
);
leftKerningGroup = U;
note = Udieresis;
rightKerningGroup = U;
unicode = 00DC;
},
{
glyphname = Yacute;
lastChange = "2016-07-31 02:30:06 +0000";
layers = (
{
layerId = "AE6579ED-DC47-4075-A6A3-4B1A21099458";
paths = (
{
closed = 1;
nodes = (
"417 763 OFFCURVE",
"421 772 OFFCURVE",
"421 783 CURVE SMOOTH",
"421 804 OFFCURVE",
"405 819 OFFCURVE",
"385 819 CURVE SMOOTH",
"375 819 OFFCURVE",
"364 813 OFFCURVE",
"353 800 CURVE SMOOTH",
"257 685 LINE",
"250 675 OFFCURVE",
"246 665 OFFCURVE",
"246 656 CURVE SMOOTH",
"246 636 OFFCURVE",
"264 621 OFFCURVE",
"283 621 CURVE SMOOTH",
"292 621 OFFCURVE",
"303 627 OFFCURVE",
"314 640 CURVE SMOOTH",
"410 755 LINE SMOOTH"
);
},
{
closed = 1;
nodes = (
"244 6 OFFCURVE",
"257 -7 OFFCURVE",
"282 -7 CURVE SMOOTH",
"307 -7 OFFCURVE",
"320 6 OFFCURVE",
"320 32 CURVE SMOOTH",
"320 306 LINE",
"534 583 LINE",
"541 594 OFFCURVE",
"544 604 OFFCURVE",
"544 612 CURVE SMOOTH",
"544 628 OFFCURVE",
"526 643 OFFCURVE",
"507 643 CURVE SMOOTH",
"498 643 OFFCURVE",
"487 636 OFFCURVE",
"475 621 CURVE SMOOTH",
"281 365 LINE",
"86 621 LINE SMOOTH",
"75 636 OFFCURVE",
"65 643 OFFCURVE",
"55 643 CURVE SMOOTH",
"35 643 OFFCURVE",
"18 628 OFFCURVE",
"18 612 CURVE SMOOTH",
"18 604 OFFCURVE",
"21 594 OFFCURVE",
"28 583 CURVE",
"243 306 LINE",
"243 32 LINE"
);
}
);
width = 563;
}
);
leftKerningGroup = Y;
note = Yacute;
rightKerningGroup = Y;
unicode = 00DD;
},
{
glyphname = Thorn;
lastChange = "2016-07-31 02:30:00 +0000";
layers = (
{
layerId = "AE6579ED-DC47-4075-A6A3-4B1A21099458";
paths = (
{
closed = 1;
nodes = (
"156 604 OFFCURVE",
"139 616 OFFCURVE",
"120 616 CURVE SMOOTH",
"101 616 OFFCURVE",
"84 604 OFFCURVE",
"84 573 CURVE SMOOTH",
"84 35 LINE SMOOTH",
"84 7 OFFCURVE",
"96 -7 OFFCURVE",
"120 -7 CURVE SMOOTH",
"144 -7 OFFCURVE",
"156 7 OFFCURVE",
"156 35 CURVE SMOOTH",
"156 155 LINE",
"333 155 LINE SMOOTH",
"456 155 OFFCURVE",
"525 212 OFFCURVE",
"525 316 CURVE SMOOTH",
"525 420 OFFCURVE",
"456 476 OFFCURVE",
"335 476 CURVE SMOOTH",
"156 476 LINE",
"156 573 LINE SMOOTH"
);
},
{
closed = 1;
nodes = (
"415 404 OFFCURVE",
"452 387 OFFCURVE",
"452 311 CURVE SMOOTH",
"452 235 OFFCURVE",
"418 218 OFFCURVE",
"283 218 CURVE SMOOTH",
"156 218 LINE",
"156 404 LINE",
"284 404 LINE SMOOTH"
);
}
);
width = 560;
}
);
leftKerningGroup = B;
note = Thorn;
rightKerningGroup = Thorn;
unicode = 00DE;
},
{
glyphname = germandbls;
lastChange = "2016-07-31 02:30:00 +0000";
layers = (
{
layerId = "AE6579ED-DC47-4075-A6A3-4B1A21099458";
paths = (
{
closed = 1;
nodes = (
"318 341 OFFCURVE",
"394 294 OFFCURVE",
"394 201 CURVE SMOOTH",
"394 102 OFFCURVE",
"366 52 OFFCURVE",
"310 52 CURVE SMOOTH",
"261 52 OFFCURVE",
"236 69 OFFCURVE",
"236 103 CURVE SMOOTH",
"236 132 OFFCURVE",
"222 147 OFFCURVE",
"194 147 CURVE SMOOTH",
"166 147 OFFCURVE",
"152 132 OFFCURVE",
"152 101 CURVE SMOOTH",
"152 24 OFFCURVE",
"228 -20 OFFCURVE",
"304 -20 CURVE SMOOTH",
"379 -20 OFFCURVE",
"466 25 OFFCURVE",
"466 198 CURVE SMOOTH",
"466 290 OFFCURVE",
"422 351 OFFCURVE",
"335 381 CURVE",
"377 414 OFFCURVE",
"398 457 OFFCURVE",
"398 510 CURVE SMOOTH",
"398 578 OFFCURVE",
"346 636 OFFCURVE",
"242 636 CURVE SMOOTH",
"138 636 OFFCURVE",
"70 596 OFFCURVE",
"63 460 CURVE",
"42 457 OFFCURVE",
"32 446 OFFCURVE",
"32 427 CURVE SMOOTH",
"32 408 OFFCURVE",
"42 397 OFFCURVE",
"63 394 CURVE",
"63 37 LINE SMOOTH",
"63 8 OFFCURVE",
"74 -7 OFFCURVE",
"97 -7 CURVE SMOOTH",
"122 -7 OFFCURVE",
"135 8 OFFCURVE",
"135 39 CURVE SMOOTH",
"135 461 LINE SMOOTH",
"135 549 OFFCURVE",
"166 564 OFFCURVE",
"233 564 CURVE SMOOTH",
"300 564 OFFCURVE",
"325 544 OFFCURVE",
"325 512 CURVE SMOOTH",
"325 435 OFFCURVE",
"266 408 OFFCURVE",
"165 408 CURVE",
"165 341 LINE"
);
}
);
width = 506;
}
);
leftKerningGroup = f;
note = germandbls;
rightKerningGroup = germandbls;
unicode = 00DF;
},
{
glyphname = agrave;
lastChange = "2016-07-31 02:30:06 +0000";
layers = (
{
layerId = "AE6579ED-DC47-4075-A6A3-4B1A21099458";
paths = (
{
closed = 1;
nodes = (
"233 684 OFFCURVE",
"222 690 OFFCURVE",
"212 690 CURVE SMOOTH",
"192 690 OFFCURVE",
"176 675 OFFCURVE",
"176 654 CURVE SMOOTH",
"176 643 OFFCURVE",
"180 634 OFFCURVE",
"187 626 CURVE SMOOTH",
"283 511 LINE",
"295 498 OFFCURVE",
"306 492 OFFCURVE",
"315 492 CURVE SMOOTH",
"334 492 OFFCURVE",
"351 508 OFFCURVE",
"351 527 CURVE SMOOTH",
"351 536 OFFCURVE",
"347 546 OFFCURVE",
"340 556 CURVE",
"244 671 LINE SMOOTH"
);
},
{
closed = 1;
nodes = (
"138 305 OFFCURVE",
"61 265 OFFCURVE",
"61 129 CURVE SMOOTH",
"61 50 OFFCURVE",
"110 0 OFFCURVE",
"178 0 CURVE SMOOTH",
"271 0 LINE SMOOTH",
"351 0 OFFCURVE",
"411 17 OFFCURVE",
"451 50 CURVE",
"451 38 LINE SMOOTH",
"451 8 OFFCURVE",
"463 -7 OFFCURVE",
"487 -7 CURVE SMOOTH",
"511 -7 OFFCURVE",
"523 7 OFFCURVE",
"523 35 CURVE SMOOTH",
"523 331 LINE SMOOTH",
"523 424 OFFCURVE",
"498 461 OFFCURVE",
"413 461 CURVE SMOOTH",
"258 461 LINE SMOOTH",
"130 461 OFFCURVE",
"61 434 OFFCURVE",
"61 350 CURVE SMOOTH",
"61 320 OFFCURVE",
"73 305 OFFCURVE",
"97 305 CURVE SMOOTH",
"121 305 OFFCURVE",
"133 320 OFFCURVE",
"133 350 CURVE SMOOTH",
"133 365 OFFCURVE",
"142 375 OFFCURVE",
"160 381 CURVE",
"178 386 OFFCURVE",
"213 389 OFFCURVE",
"265 389 CURVE SMOOTH",
"406 389 LINE SMOOTH",
"442 389 OFFCURVE",
"451 380 OFFCURVE",
"451 347 CURVE SMOOTH",
"451 305 LINE",
"314 305 LINE SMOOTH"
);
},
{
closed = 1;
nodes = (
"451 232 OFFCURVE",
"451 230 OFFCURVE",
"451 229 CURVE SMOOTH",
"451 153 OFFCURVE",
"430 72 OFFCURVE",
"271 72 CURVE SMOOTH",
"178 72 LINE SMOOTH",
"158 72 OFFCURVE",
"133 96 OFFCURVE",
"133 124 CURVE SMOOTH",
"133 220 OFFCURVE",
"165 233 OFFCURVE",
"314 233 CURVE SMOOTH",
"451 233 LINE"
);
}
);
width = 594;
}
);
leftKerningGroup = a;
note = agrave;
rightKerningGroup = a;
unicode = 00E0;
},
{
glyphname = aacute;
lastChange = "2016-07-31 02:30:06 +0000";
layers = (
{
layerId = "AE6579ED-DC47-4075-A6A3-4B1A21099458";
paths = (
{
closed = 1;
nodes = (
"428 637 OFFCURVE",
"432 646 OFFCURVE",
"432 657 CURVE SMOOTH",
"432 678 OFFCURVE",
"416 693 OFFCURVE",
"396 693 CURVE SMOOTH",
"386 693 OFFCURVE",
"375 687 OFFCURVE",
"364 674 CURVE SMOOTH",
"268 559 LINE",
"261 549 OFFCURVE",
"257 539 OFFCURVE",
"257 530 CURVE SMOOTH",
"257 510 OFFCURVE",
"275 495 OFFCURVE",
"294 495 CURVE SMOOTH",
"303 495 OFFCURVE",
"314 501 OFFCURVE",
"325 514 CURVE SMOOTH",
"421 629 LINE SMOOTH"
);
},
{
closed = 1;
nodes = (
"138 305 OFFCURVE",
"61 265 OFFCURVE",
"61 129 CURVE SMOOTH",
"61 50 OFFCURVE",
"110 0 OFFCURVE",
"178 0 CURVE SMOOTH",
"271 0 LINE SMOOTH",
"351 0 OFFCURVE",
"411 17 OFFCURVE",
"451 50 CURVE",
"451 38 LINE SMOOTH",
"451 8 OFFCURVE",
"463 -7 OFFCURVE",
"487 -7 CURVE SMOOTH",
"511 -7 OFFCURVE",
"523 7 OFFCURVE",
"523 35 CURVE SMOOTH",
"523 331 LINE SMOOTH",
"523 424 OFFCURVE",
"498 461 OFFCURVE",
"413 461 CURVE SMOOTH",
"258 461 LINE SMOOTH",
"130 461 OFFCURVE",
"61 434 OFFCURVE",
"61 350 CURVE SMOOTH",
"61 320 OFFCURVE",
"73 305 OFFCURVE",
"97 305 CURVE SMOOTH",
"121 305 OFFCURVE",
"133 320 OFFCURVE",
"133 350 CURVE SMOOTH",
"133 365 OFFCURVE",
"142 375 OFFCURVE",
"160 381 CURVE",
"178 386 OFFCURVE",
"213 389 OFFCURVE",
"265 389 CURVE SMOOTH",
"406 389 LINE SMOOTH",
"442 389 OFFCURVE",
"451 380 OFFCURVE",
"451 347 CURVE SMOOTH",
"451 305 LINE",
"314 305 LINE SMOOTH"
);
},
{
closed = 1;
nodes = (
"451 232 OFFCURVE",
"451 230 OFFCURVE",
"451 229 CURVE SMOOTH",
"451 153 OFFCURVE",
"430 72 OFFCURVE",
"271 72 CURVE SMOOTH",
"178 72 LINE SMOOTH",
"158 72 OFFCURVE",
"133 96 OFFCURVE",
"133 124 CURVE SMOOTH",
"133 220 OFFCURVE",
"165 233 OFFCURVE",
"314 233 CURVE SMOOTH",
"451 233 LINE"
);
}
);
width = 594;
}
);
leftKerningGroup = a;
note = aacute;
rightKerningGroup = a;
unicode = 00E1;
},
{
glyphname = acircumflex;
lastChange = "2016-07-31 02:30:06 +0000";
layers = (
{
layerId = "AE6579ED-DC47-4075-A6A3-4B1A21099458";
paths = (
{
closed = 1;
nodes = (
"144 567 OFFCURVE",
"141 559 OFFCURVE",
"141 550 CURVE SMOOTH",
"141 531 OFFCURVE",
"152 522 OFFCURVE",
"174 522 CURVE SMOOTH",
"183 522 OFFCURVE",
"191 524 OFFCURVE",
"196 528 CURVE",
"198 529 OFFCURVE",
"200 532 OFFCURVE",
"203 535 CURVE SMOOTH",
"206 538 OFFCURVE",
"208 539 OFFCURVE",
"209 540 CURVE",
"292 609 LINE",
"376 540 LINE SMOOTH",
"384 533 OFFCURVE",
"389 529 OFFCURVE",
"392 526 CURVE SMOOTH",
"395 523 OFFCURVE",
"401 522 OFFCURVE",
"411 522 CURVE SMOOTH",
"433 522 OFFCURVE",
"444 531 OFFCURVE",
"444 550 CURVE SMOOTH",
"444 559 OFFCURVE",
"441 567 OFFCURVE",
"436 574 CURVE",
"325 690 LINE",
"258 690 LINE",
"149 574 LINE"
);
},
{
closed = 1;
nodes = (
"138 305 OFFCURVE",
"61 265 OFFCURVE",
"61 129 CURVE SMOOTH",
"61 50 OFFCURVE",
"110 0 OFFCURVE",
"178 0 CURVE SMOOTH",
"271 0 LINE SMOOTH",
"351 0 OFFCURVE",
"411 17 OFFCURVE",
"451 50 CURVE",
"451 38 LINE SMOOTH",
"451 8 OFFCURVE",
"463 -7 OFFCURVE",
"487 -7 CURVE SMOOTH",
"511 -7 OFFCURVE",
"523 7 OFFCURVE",
"523 35 CURVE SMOOTH",
"523 331 LINE SMOOTH",
"523 424 OFFCURVE",
"498 461 OFFCURVE",
"413 461 CURVE SMOOTH",
"258 461 LINE SMOOTH",
"130 461 OFFCURVE",
"61 434 OFFCURVE",
"61 350 CURVE SMOOTH",
"61 320 OFFCURVE",
"73 305 OFFCURVE",
"97 305 CURVE SMOOTH",
"121 305 OFFCURVE",
"133 320 OFFCURVE",
"133 350 CURVE SMOOTH",
"133 365 OFFCURVE",
"142 375 OFFCURVE",
"160 381 CURVE",
"178 386 OFFCURVE",
"213 389 OFFCURVE",
"265 389 CURVE SMOOTH",
"406 389 LINE SMOOTH",
"442 389 OFFCURVE",
"451 380 OFFCURVE",
"451 347 CURVE SMOOTH",
"451 305 LINE",
"314 305 LINE SMOOTH"
);
},
{
closed = 1;
nodes = (
"451 232 OFFCURVE",
"451 230 OFFCURVE",
"451 229 CURVE SMOOTH",
"451 153 OFFCURVE",
"430 72 OFFCURVE",
"271 72 CURVE SMOOTH",
"178 72 LINE SMOOTH",
"158 72 OFFCURVE",
"133 96 OFFCURVE",
"133 124 CURVE SMOOTH",
"133 220 OFFCURVE",
"165 233 OFFCURVE",
"314 233 CURVE SMOOTH",
"451 233 LINE"
);
}
);
width = 594;
}
);
leftKerningGroup = a;
note = acircumflex;
rightKerningGroup = a;
unicode = 00E2;
},
{
glyphname = atilde;
lastChange = "2016-07-31 02:30:06 +0000";
layers = (
{
layerId = "AE6579ED-DC47-4075-A6A3-4B1A21099458";
paths = (
{
closed = 1;
nodes = (
"340 509 OFFCURVE",
"348 507 OFFCURVE",
"355 507 CURVE SMOOTH",
"362 507 OFFCURVE",
"371 511 OFFCURVE",
"381 518 CURVE",
"425 556 LINE",
"437 565 OFFCURVE",
"443 576 OFFCURVE",
"444 588 CURVE",
"444 612 OFFCURVE",
"425 624 OFFCURVE",
"406 624 CURVE SMOOTH",
"397 624 OFFCURVE",
"388 620 OFFCURVE",
"381 613 CURVE",
"351 587 LINE",
"349 585 OFFCURVE",
"347 584 OFFCURVE",
"346 584 CURVE SMOOTH",
"345 584 OFFCURVE",
"343 585 OFFCURVE",
"341 586 CURVE",
"254 619 LINE SMOOTH",
"246 622 OFFCURVE",
"238 624 OFFCURVE",
"230 624 CURVE SMOOTH",
"222 624 OFFCURVE",
"214 620 OFFCURVE",
"205 613 CURVE",
"160 575 LINE SMOOTH",
"148 565 OFFCURVE",
"142 554 OFFCURVE",
"142 543 CURVE SMOOTH",
"142 520 OFFCURVE",
"161 507 OFFCURVE",
"180 507 CURVE SMOOTH",
"189 507 OFFCURVE",
"198 511 OFFCURVE",
"205 518 CURVE",
"234 544 LINE",
"236 546 OFFCURVE",
"238 547 OFFCURVE",
"239 547 CURVE SMOOTH",
"240 547 OFFCURVE",
"242 546 OFFCURVE",
"245 545 CURVE",
"331 512 LINE"
);
},
{
closed = 1;
nodes = (
"138 305 OFFCURVE",
"61 265 OFFCURVE",
"61 129 CURVE SMOOTH",
"61 50 OFFCURVE",
"110 0 OFFCURVE",
"178 0 CURVE SMOOTH",
"271 0 LINE SMOOTH",
"351 0 OFFCURVE",
"411 17 OFFCURVE",
"451 50 CURVE",
"451 38 LINE SMOOTH",
"451 8 OFFCURVE",
"463 -7 OFFCURVE",
"487 -7 CURVE SMOOTH",
"511 -7 OFFCURVE",
"523 7 OFFCURVE",
"523 35 CURVE SMOOTH",
"523 331 LINE SMOOTH",
"523 424 OFFCURVE",
"498 461 OFFCURVE",
"413 461 CURVE SMOOTH",
"258 461 LINE SMOOTH",
"130 461 OFFCURVE",
"61 434 OFFCURVE",
"61 350 CURVE SMOOTH",
"61 320 OFFCURVE",
"73 305 OFFCURVE",
"97 305 CURVE SMOOTH",
"121 305 OFFCURVE",
"133 320 OFFCURVE",
"133 350 CURVE SMOOTH",
"133 365 OFFCURVE",
"142 375 OFFCURVE",
"160 381 CURVE",
"178 386 OFFCURVE",
"213 389 OFFCURVE",
"265 389 CURVE SMOOTH",
"406 389 LINE SMOOTH",
"442 389 OFFCURVE",
"451 380 OFFCURVE",
"451 347 CURVE SMOOTH",
"451 305 LINE",
"314 305 LINE SMOOTH"
);
},
{
closed = 1;
nodes = (
"451 232 OFFCURVE",
"451 230 OFFCURVE",
"451 229 CURVE SMOOTH",
"451 153 OFFCURVE",
"430 72 OFFCURVE",
"271 72 CURVE SMOOTH",
"178 72 LINE SMOOTH",
"158 72 OFFCURVE",
"133 96 OFFCURVE",
"133 124 CURVE SMOOTH",
"133 220 OFFCURVE",
"165 233 OFFCURVE",
"314 233 CURVE SMOOTH",
"451 233 LINE"
);
}
);
width = 594;
}
);
leftKerningGroup = a;
note = atilde;
rightKerningGroup = a;
unicode = 00E3;
},
{
glyphname = adieresis;
lastChange = "2016-07-31 02:30:06 +0000";
layers = (
{
layerId = "AE6579ED-DC47-4075-A6A3-4B1A21099458";
paths = (
{
closed = 1;
nodes = (
"311 602 OFFCURVE",
"277 624 OFFCURVE",
"250 624 CURVE SMOOTH",
"223 624 OFFCURVE",
"189 602 OFFCURVE",
"189 573 CURVE SMOOTH",
"189 544 OFFCURVE",
"221 522 OFFCURVE",
"249 522 CURVE SMOOTH",
"277 522 OFFCURVE",
"311 544 OFFCURVE",
"311 573 CURVE SMOOTH"
);
},
{
closed = 1;
nodes = (
"481 602 OFFCURVE",
"447 624 OFFCURVE",
"420 624 CURVE SMOOTH",
"393 624 OFFCURVE",
"359 602 OFFCURVE",
"359 573 CURVE SMOOTH",
"359 544 OFFCURVE",
"391 522 OFFCURVE",
"419 522 CURVE SMOOTH",
"447 522 OFFCURVE",
"481 544 OFFCURVE",
"481 573 CURVE SMOOTH"
);
},
{
closed = 1;
nodes = (
"138 305 OFFCURVE",
"61 265 OFFCURVE",
"61 129 CURVE SMOOTH",
"61 50 OFFCURVE",
"110 0 OFFCURVE",
"178 0 CURVE SMOOTH",
"271 0 LINE SMOOTH",
"351 0 OFFCURVE",
"411 17 OFFCURVE",
"451 50 CURVE",
"451 38 LINE SMOOTH",
"451 8 OFFCURVE",
"463 -7 OFFCURVE",
"487 -7 CURVE SMOOTH",
"511 -7 OFFCURVE",
"523 7 OFFCURVE",
"523 35 CURVE SMOOTH",
"523 331 LINE SMOOTH",
"523 424 OFFCURVE",
"498 461 OFFCURVE",
"413 461 CURVE SMOOTH",
"258 461 LINE SMOOTH",
"130 461 OFFCURVE",
"61 434 OFFCURVE",
"61 350 CURVE SMOOTH",
"61 320 OFFCURVE",
"73 305 OFFCURVE",
"97 305 CURVE SMOOTH",
"121 305 OFFCURVE",
"133 320 OFFCURVE",
"133 350 CURVE SMOOTH",
"133 365 OFFCURVE",
"142 375 OFFCURVE",
"160 381 CURVE",
"178 386 OFFCURVE",
"213 389 OFFCURVE",
"265 389 CURVE SMOOTH",
"406 389 LINE SMOOTH",
"442 389 OFFCURVE",
"451 380 OFFCURVE",
"451 347 CURVE SMOOTH",
"451 305 LINE",
"314 305 LINE SMOOTH"
);
},
{
closed = 1;
nodes = (
"451 232 OFFCURVE",
"451 230 OFFCURVE",
"451 229 CURVE SMOOTH",
"451 153 OFFCURVE",
"430 72 OFFCURVE",
"271 72 CURVE SMOOTH",
"178 72 LINE SMOOTH",
"158 72 OFFCURVE",
"133 96 OFFCURVE",
"133 124 CURVE SMOOTH",
"133 220 OFFCURVE",
"165 233 OFFCURVE",
"314 233 CURVE SMOOTH",
"451 233 LINE"
);
}
);
width = 594;
}
);
leftKerningGroup = a;
note = adieresis;
rightKerningGroup = a;
unicode = 00E4;
},
{
glyphname = aring;
lastChange = "2016-07-31 02:30:06 +0000";
layers = (
{
layerId = "AE6579ED-DC47-4075-A6A3-4B1A21099458";
paths = (
{
closed = 1;
nodes = (
"277 624 OFFCURVE",
"284 627 OFFCURVE",
"293 627 CURVE SMOOTH",
"310 627 OFFCURVE",
"326 613 OFFCURVE",
"326 594 CURVE SMOOTH",
"326 575 OFFCURVE",
"310 561 OFFCURVE",
"293 561 CURVE SMOOTH",
"276 561 OFFCURVE",
"260 575 OFFCURVE",
"260 594 CURVE SMOOTH",
"260 603 OFFCURVE",
"263 611 OFFCURVE",
"270 618 CURVE"
);
},
{
closed = 1;
nodes = (
"215 639 OFFCURVE",
"206 618 OFFCURVE",
"206 594 CURVE SMOOTH",
"206 546 OFFCURVE",
"245 507 OFFCURVE",
"293 507 CURVE SMOOTH",
"341 507 OFFCURVE",
"380 546 OFFCURVE",
"380 594 CURVE SMOOTH",
"380 642 OFFCURVE",
"341 681 OFFCURVE",
"293 681 CURVE SMOOTH",
"269 681 OFFCURVE",
"249 673 OFFCURVE",
"232 656 CURVE SMOOTH"
);
},
{
closed = 1;
nodes = (
"138 305 OFFCURVE",
"61 265 OFFCURVE",
"61 129 CURVE SMOOTH",
"61 50 OFFCURVE",
"110 0 OFFCURVE",
"178 0 CURVE SMOOTH",
"271 0 LINE SMOOTH",
"351 0 OFFCURVE",
"411 17 OFFCURVE",
"451 50 CURVE",
"451 38 LINE SMOOTH",
"451 8 OFFCURVE",
"463 -7 OFFCURVE",
"487 -7 CURVE SMOOTH",
"511 -7 OFFCURVE",
"523 7 OFFCURVE",
"523 35 CURVE SMOOTH",
"523 331 LINE SMOOTH",
"523 424 OFFCURVE",
"498 461 OFFCURVE",
"413 461 CURVE SMOOTH",
"258 461 LINE SMOOTH",
"130 461 OFFCURVE",
"61 434 OFFCURVE",
"61 350 CURVE SMOOTH",
"61 320 OFFCURVE",
"73 305 OFFCURVE",
"97 305 CURVE SMOOTH",
"121 305 OFFCURVE",
"133 320 OFFCURVE",
"133 350 CURVE SMOOTH",
"133 365 OFFCURVE",
"142 375 OFFCURVE",
"160 381 CURVE",
"178 386 OFFCURVE",
"213 389 OFFCURVE",
"265 389 CURVE SMOOTH",
"406 389 LINE SMOOTH",
"442 389 OFFCURVE",
"451 380 OFFCURVE",
"451 347 CURVE SMOOTH",
"451 305 LINE",
"314 305 LINE SMOOTH"
);
},
{
closed = 1;
nodes = (
"451 232 OFFCURVE",
"451 230 OFFCURVE",
"451 229 CURVE SMOOTH",
"451 153 OFFCURVE",
"430 72 OFFCURVE",
"271 72 CURVE SMOOTH",
"178 72 LINE SMOOTH",
"158 72 OFFCURVE",
"133 96 OFFCURVE",
"133 124 CURVE SMOOTH",
"133 220 OFFCURVE",
"165 233 OFFCURVE",
"314 233 CURVE SMOOTH",
"451 233 LINE"
);
}
);
width = 594;
}
);
leftKerningGroup = a;
note = aring;
rightKerningGroup = a;
unicode = 00E5;
},
{
glyphname = ae;
lastChange = "2016-07-31 02:30:00 +0000";
layers = (
{
layerId = "AE6579ED-DC47-4075-A6A3-4B1A21099458";
paths = (
{
closed = 1;
nodes = (
"440 228 LINE",
"440 124 OFFCURVE",
"384 72 OFFCURVE",
"272 72 CURVE SMOOTH",
"179 72 LINE SMOOTH",
"159 72 OFFCURVE",
"134 96 OFFCURVE",
"134 124 CURVE SMOOTH",
"134 219 OFFCURVE",
"166 233 OFFCURVE",
"295 233 CURVE SMOOTH",
"436 233 LINE"
);
},
{
closed = 1;
nodes = (
"813 389 OFFCURVE",
"849 374 OFFCURVE",
"854 305 CURVE",
"513 305 LINE",
"518 374 OFFCURVE",
"557 389 OFFCURVE",
"686 389 CURVE SMOOTH",
"694 389 LINE SMOOTH"
);
},
{
closed = 1;
nodes = (
"926 423 OFFCURVE",
"853 461 OFFCURVE",
"694 461 CURVE SMOOTH",
"686 461 LINE SMOOTH",
"593 461 OFFCURVE",
"529 448 OFFCURVE",
"494 421 CURVE",
"477 448 OFFCURVE",
"443 461 OFFCURVE",
"394 461 CURVE SMOOTH",
"239 461 LINE SMOOTH",
"134 461 OFFCURVE",
"62 423 OFFCURVE",
"62 339 CURVE SMOOTH",
"62 309 OFFCURVE",
"74 294 OFFCURVE",
"98 294 CURVE SMOOTH",
"122 294 OFFCURVE",
"134 309 OFFCURVE",
"134 339 CURVE SMOOTH",
"134 372 OFFCURVE",
"171 389 OFFCURVE",
"246 389 CURVE SMOOTH",
"387 389 LINE SMOOTH",
"426 389 OFFCURVE",
"435 379 OFFCURVE",
"435 347 CURVE SMOOTH",
"435 305 LINE",
"295 305 LINE SMOOTH",
"138 305 OFFCURVE",
"62 265 OFFCURVE",
"62 129 CURVE SMOOTH",
"62 50 OFFCURVE",
"111 0 OFFCURVE",
"179 0 CURVE SMOOTH",
"272 0 LINE SMOOTH",
"337 0 OFFCURVE",
"425 26 OFFCURVE",
"469 71 CURVE",
"506 16 OFFCURVE",
"575 0 OFFCURVE",
"686 0 CURVE SMOOTH",
"816 0 LINE SMOOTH",
"903 0 OFFCURVE",
"926 49 OFFCURVE",
"926 116 CURVE SMOOTH",
"926 149 OFFCURVE",
"914 166 OFFCURVE",
"890 167 CURVE",
"871 167 OFFCURVE",
"854 155 OFFCURVE",
"854 120 CURVE SMOOTH",
"854 85 OFFCURVE",
"845 72 OFFCURVE",
"809 72 CURVE SMOOTH",
"686 72 LINE SMOOTH",
"550 72 OFFCURVE",
"517 86 OFFCURVE",
"517 181 CURVE",
"513 233 LINE",
"926 233 LINE",
"926 283 LINE SMOOTH"
);
}
);
width = 986;
}
);
leftKerningGroup = a;
note = ae;
rightKerningGroup = e;
unicode = 00E6;
},
{
glyphname = ccedilla;
lastChange = "2016-07-31 02:30:00 +0000";
layers = (
{
layerId = "AE6579ED-DC47-4075-A6A3-4B1A21099458";
paths = (
{
closed = 1;
nodes = (
"278 -38 OFFCURVE",
"308 -68 OFFCURVE",
"330 -83 CURVE SMOOTH",
"341 -90 OFFCURVE",
"346 -96 OFFCURVE",
"346 -100 CURVE SMOOTH",
"346 -104 OFFCURVE",
"345 -109 OFFCURVE",
"342 -114 CURVE",
"339 -122 OFFCURVE",
"330 -123 OFFCURVE",
"316 -123 CURVE SMOOTH",
"309 -123 OFFCURVE",
"298 -119 OFFCURVE",
"283 -112 CURVE SMOOTH",
"268 -105 OFFCURVE",
"257 -102 OFFCURVE",
"250 -102 CURVE SMOOTH",
"235 -102 OFFCURVE",
"223 -110 OFFCURVE",
"223 -134 CURVE SMOOTH",
"223 -158 OFFCURVE",
"255 -190 OFFCURVE",
"312 -190 CURVE SMOOTH",
"368 -190 OFFCURVE",
"418 -156 OFFCURVE",
"418 -99 CURVE SMOOTH",
"418 -63 OFFCURVE",
"392 -41 OFFCURVE",
"369 -25 CURVE SMOOTH",
"357 -17 OFFCURVE",
"350 -9 OFFCURVE",
"349 0 CURVE",
"455 0 LINE SMOOTH",
"542 0 OFFCURVE",
"565 49 OFFCURVE",
"565 117 CURVE SMOOTH",
"565 150 OFFCURVE",
"553 167 OFFCURVE",
"529 167 CURVE SMOOTH",
"510 167 OFFCURVE",
"493 156 OFFCURVE",
"493 121 CURVE SMOOTH",
"493 85 OFFCURVE",
"484 72 OFFCURVE",
"448 72 CURVE SMOOTH",
"314 72 LINE SMOOTH",
"165 72 OFFCURVE",
"133 85 OFFCURVE",
"133 181 CURVE SMOOTH",
"133 280 LINE SMOOTH",
"133 376 OFFCURVE",
"165 389 OFFCURVE",
"314 389 CURVE SMOOTH",
"448 389 LINE SMOOTH",
"484 389 OFFCURVE",
"493 376 OFFCURVE",
"493 341 CURVE SMOOTH",
"493 305 OFFCURVE",
"510 294 OFFCURVE",
"529 294 CURVE SMOOTH",
"553 294 OFFCURVE",
"565 311 OFFCURVE",
"565 344 CURVE SMOOTH",
"565 411 OFFCURVE",
"542 461 OFFCURVE",
"455 461 CURVE SMOOTH",
"314 461 LINE SMOOTH",
"134 461 OFFCURVE",
"61 423 OFFCURVE",
"61 283 CURVE SMOOTH",
"61 178 LINE SMOOTH",
"61 47 OFFCURVE",
"125 6 OFFCURVE",
"277 1 CURVE"
);
}
);
width = 624;
}
);
leftKerningGroup = c;
note = ccedilla;
rightKerningGroup = c;
unicode = 00E7;
},
{
glyphname = egrave;
lastChange = "2016-07-31 02:30:06 +0000";
layers = (
{
layerId = "AE6579ED-DC47-4075-A6A3-4B1A21099458";
paths = (
{
closed = 1;
nodes = (
"267 687 OFFCURVE",
"256 693 OFFCURVE",
"246 693 CURVE SMOOTH",
"226 693 OFFCURVE",
"210 678 OFFCURVE",
"210 657 CURVE SMOOTH",
"210 646 OFFCURVE",
"214 637 OFFCURVE",
"221 629 CURVE SMOOTH",
"317 514 LINE",
"329 501 OFFCURVE",
"340 495 OFFCURVE",
"349 495 CURVE SMOOTH",
"368 495 OFFCURVE",
"385 511 OFFCURVE",
"385 530 CURVE SMOOTH",
"385 539 OFFCURVE",
"381 549 OFFCURVE",
"374 559 CURVE",
"278 674 LINE SMOOTH"
);
},
{
closed = 1;
nodes = (
"595 423 OFFCURVE",
"522 461 OFFCURVE",
"343 461 CURVE SMOOTH",
"314 461 LINE SMOOTH",
"134 461 OFFCURVE",
"61 423 OFFCURVE",
"61 283 CURVE SMOOTH",
"61 178 LINE SMOOTH",
"61 38 OFFCURVE",
"134 0 OFFCURVE",
"314 0 CURVE SMOOTH",
"475 0 LINE SMOOTH",
"562 0 OFFCURVE",
"585 49 OFFCURVE",
"585 116 CURVE SMOOTH",
"585 149 OFFCURVE",
"573 166 OFFCURVE",
"549 167 CURVE",
"530 167 OFFCURVE",
"513 155 OFFCURVE",
"513 120 CURVE SMOOTH",
"513 85 OFFCURVE",
"504 72 OFFCURVE",
"468 72 CURVE SMOOTH",
"314 72 LINE SMOOTH",
"165 72 OFFCURVE",
"133 85 OFFCURVE",
"133 181 CURVE SMOOTH",
"133 235 LINE",
"595 235 LINE",
"595 283 LINE SMOOTH"
);
},
{
closed = 1;
nodes = (
"412 389 OFFCURVE",
"459 384 OFFCURVE",
"483 375 CURVE",
"507 365 OFFCURVE",
"520 342 OFFCURVE",
"523 307 CURVE",
"133 307 LINE",
"135 342 OFFCURVE",
"148 364 OFFCURVE",
"171 374 CURVE SMOOTH",
"194 384 OFFCURVE",
"242 389 OFFCURVE",
"314 389 CURVE SMOOTH",
"343 389 LINE SMOOTH"
);
}
);
width = 651;
}
);
leftKerningGroup = c;
note = egrave;
rightKerningGroup = e;
unicode = 00E8;
},
